G04 #@! TF.GenerationSoftware,KiCad,Pcbnew,5.1.5-52549c5~86~ubuntu19.10.1*
G04 #@! TF.CreationDate,2020-05-04T22:04:25+01:00*
G04 #@! TF.ProjectId,pmod-dualrs422,706d6f64-2d64-4756-916c-72733432322e,rev?*
G04 #@! TF.SameCoordinates,PXccb7580PY7aec778*
G04 #@! TF.FileFunction,Soldermask,Bot*
G04 #@! TF.FilePolarity,Negative*
%FSLAX46Y46*%
G04 Gerber Fmt 4.6, Leading zero omitted, Abs format (unit mm)*
G04 Created by KiCad (PCBNEW 5.1.5-52549c5~86~ubuntu19.10.1) date 2020-05-04 22:04:25*
%MOMM*%
%LPD*%
G04 APERTURE LIST*
%ADD10C,0.100000*%
G04 APERTURE END LIST*
D10*
G36*
X26783512Y2801073D02*
G01*
X26932812Y2771376D01*
X27096784Y2703456D01*
X27244354Y2604853D01*
X27369853Y2479354D01*
X27468456Y2331784D01*
X27536376Y2167812D01*
X27571000Y1993741D01*
X27571000Y1816259D01*
X27536376Y1642188D01*
X27468456Y1478216D01*
X27369853Y1330646D01*
X27244354Y1205147D01*
X27096784Y1106544D01*
X26932812Y1038624D01*
X26783512Y1008927D01*
X26758742Y1004000D01*
X26581258Y1004000D01*
X26556488Y1008927D01*
X26407188Y1038624D01*
X26243216Y1106544D01*
X26095646Y1205147D01*
X25970147Y1330646D01*
X25871544Y1478216D01*
X25803624Y1642188D01*
X25769000Y1816259D01*
X25769000Y1993741D01*
X25803624Y2167812D01*
X25871544Y2331784D01*
X25970147Y2479354D01*
X26095646Y2604853D01*
X26243216Y2703456D01*
X26407188Y2771376D01*
X26556488Y2801073D01*
X26581258Y2806000D01*
X26758742Y2806000D01*
X26783512Y2801073D01*
G37*
G36*
X35300256Y5418702D02*
G01*
X35406579Y5397553D01*
X35707042Y5273097D01*
X35977451Y5092415D01*
X36207415Y4862451D01*
X36388097Y4592042D01*
X36485762Y4356259D01*
X36512553Y4291578D01*
X36576000Y3972611D01*
X36576000Y3647389D01*
X36555434Y3544000D01*
X36512553Y3328421D01*
X36388097Y3027958D01*
X36207415Y2757549D01*
X35977451Y2527585D01*
X35707042Y2346903D01*
X35406579Y2222447D01*
X35300256Y2201298D01*
X35087611Y2159000D01*
X34762389Y2159000D01*
X34549744Y2201298D01*
X34443421Y2222447D01*
X34142958Y2346903D01*
X33872549Y2527585D01*
X33642585Y2757549D01*
X33461903Y3027958D01*
X33337447Y3328421D01*
X33294566Y3544000D01*
X33274000Y3647389D01*
X33274000Y3972611D01*
X33337447Y4291578D01*
X33364239Y4356259D01*
X33461903Y4592042D01*
X33642585Y4862451D01*
X33872549Y5092415D01*
X34142958Y5273097D01*
X34443421Y5397553D01*
X34549744Y5418702D01*
X34762389Y5461000D01*
X35087611Y5461000D01*
X35300256Y5418702D01*
G37*
G36*
X26783512Y5341073D02*
G01*
X26932812Y5311376D01*
X27096784Y5243456D01*
X27244354Y5144853D01*
X27369853Y5019354D01*
X27468456Y4871784D01*
X27536376Y4707812D01*
X27571000Y4533741D01*
X27571000Y4356259D01*
X27536376Y4182188D01*
X27468456Y4018216D01*
X27369853Y3870646D01*
X27244354Y3745147D01*
X27096784Y3646544D01*
X26932812Y3578624D01*
X26783512Y3548927D01*
X26758742Y3544000D01*
X26581258Y3544000D01*
X26556488Y3548927D01*
X26407188Y3578624D01*
X26243216Y3646544D01*
X26095646Y3745147D01*
X25970147Y3870646D01*
X25871544Y4018216D01*
X25803624Y4182188D01*
X25769000Y4356259D01*
X25769000Y4533741D01*
X25803624Y4707812D01*
X25871544Y4871784D01*
X25970147Y5019354D01*
X26095646Y5144853D01*
X26243216Y5243456D01*
X26407188Y5311376D01*
X26556488Y5341073D01*
X26581258Y5346000D01*
X26758742Y5346000D01*
X26783512Y5341073D01*
G37*
G36*
X26783512Y7881073D02*
G01*
X26932812Y7851376D01*
X27096784Y7783456D01*
X27244354Y7684853D01*
X27369853Y7559354D01*
X27468456Y7411784D01*
X27536376Y7247812D01*
X27571000Y7073741D01*
X27571000Y6896259D01*
X27536376Y6722188D01*
X27468456Y6558216D01*
X27369853Y6410646D01*
X27244354Y6285147D01*
X27096784Y6186544D01*
X26932812Y6118624D01*
X26783512Y6088927D01*
X26758742Y6084000D01*
X26581258Y6084000D01*
X26556488Y6088927D01*
X26407188Y6118624D01*
X26243216Y6186544D01*
X26095646Y6285147D01*
X25970147Y6410646D01*
X25871544Y6558216D01*
X25803624Y6722188D01*
X25769000Y6896259D01*
X25769000Y7073741D01*
X25803624Y7247812D01*
X25871544Y7411784D01*
X25970147Y7559354D01*
X26095646Y7684853D01*
X26243216Y7783456D01*
X26407188Y7851376D01*
X26556488Y7881073D01*
X26581258Y7886000D01*
X26758742Y7886000D01*
X26783512Y7881073D01*
G37*
G36*
X6438032Y7890913D02*
G01*
X6587332Y7861216D01*
X6751304Y7793296D01*
X6898874Y7694693D01*
X7024373Y7569194D01*
X7122976Y7421624D01*
X7190896Y7257652D01*
X7225520Y7083581D01*
X7225520Y6906099D01*
X7190896Y6732028D01*
X7122976Y6568056D01*
X7024373Y6420486D01*
X6898874Y6294987D01*
X6751304Y6196384D01*
X6587332Y6128464D01*
X6438032Y6098767D01*
X6413262Y6093840D01*
X6235778Y6093840D01*
X6211008Y6098767D01*
X6061708Y6128464D01*
X5897736Y6196384D01*
X5750166Y6294987D01*
X5624667Y6420486D01*
X5526064Y6568056D01*
X5458144Y6732028D01*
X5423520Y6906099D01*
X5423520Y7083581D01*
X5458144Y7257652D01*
X5526064Y7421624D01*
X5624667Y7569194D01*
X5750166Y7694693D01*
X5897736Y7793296D01*
X6061708Y7861216D01*
X6211008Y7890913D01*
X6235778Y7895840D01*
X6413262Y7895840D01*
X6438032Y7890913D01*
G37*
G36*
X3898032Y7890913D02*
G01*
X4047332Y7861216D01*
X4211304Y7793296D01*
X4358874Y7694693D01*
X4484373Y7569194D01*
X4582976Y7421624D01*
X4650896Y7257652D01*
X4685520Y7083581D01*
X4685520Y6906099D01*
X4650896Y6732028D01*
X4582976Y6568056D01*
X4484373Y6420486D01*
X4358874Y6294987D01*
X4211304Y6196384D01*
X4047332Y6128464D01*
X3898032Y6098767D01*
X3873262Y6093840D01*
X3695778Y6093840D01*
X3671008Y6098767D01*
X3521708Y6128464D01*
X3357736Y6196384D01*
X3210166Y6294987D01*
X3084667Y6420486D01*
X2986064Y6568056D01*
X2918144Y6732028D01*
X2883520Y6906099D01*
X2883520Y7083581D01*
X2918144Y7257652D01*
X2986064Y7421624D01*
X3084667Y7569194D01*
X3210166Y7694693D01*
X3357736Y7793296D01*
X3521708Y7861216D01*
X3671008Y7890913D01*
X3695778Y7895840D01*
X3873262Y7895840D01*
X3898032Y7890913D01*
G37*
G36*
X35300256Y11768702D02*
G01*
X35406579Y11747553D01*
X35707042Y11623097D01*
X35977451Y11442415D01*
X36207415Y11212451D01*
X36207416Y11212449D01*
X36388098Y10942040D01*
X36512553Y10641578D01*
X36576000Y10322611D01*
X36576000Y9997389D01*
X36536269Y9797651D01*
X36512553Y9678421D01*
X36388097Y9377958D01*
X36207415Y9107549D01*
X35977451Y8877585D01*
X35707042Y8696903D01*
X35406579Y8572447D01*
X35300256Y8551298D01*
X35087611Y8509000D01*
X34762389Y8509000D01*
X34549744Y8551298D01*
X34443421Y8572447D01*
X34142958Y8696903D01*
X33872549Y8877585D01*
X33642585Y9107549D01*
X33461903Y9377958D01*
X33337447Y9678421D01*
X33313731Y9797651D01*
X33274000Y9997389D01*
X33274000Y10322611D01*
X33337447Y10641578D01*
X33461902Y10942040D01*
X33642584Y11212449D01*
X33642585Y11212451D01*
X33872549Y11442415D01*
X34142958Y11623097D01*
X34443421Y11747553D01*
X34549744Y11768702D01*
X34762389Y11811000D01*
X35087611Y11811000D01*
X35300256Y11768702D01*
G37*
G36*
X26783512Y10421073D02*
G01*
X26932812Y10391376D01*
X27096784Y10323456D01*
X27244354Y10224853D01*
X27369853Y10099354D01*
X27468456Y9951784D01*
X27536376Y9787812D01*
X27571000Y9613741D01*
X27571000Y9436259D01*
X27536376Y9262188D01*
X27468456Y9098216D01*
X27369853Y8950646D01*
X27244354Y8825147D01*
X27096784Y8726544D01*
X26932812Y8658624D01*
X26783512Y8628927D01*
X26758742Y8624000D01*
X26581258Y8624000D01*
X26556488Y8628927D01*
X26407188Y8658624D01*
X26243216Y8726544D01*
X26095646Y8825147D01*
X25970147Y8950646D01*
X25871544Y9098216D01*
X25803624Y9262188D01*
X25769000Y9436259D01*
X25769000Y9613741D01*
X25803624Y9787812D01*
X25871544Y9951784D01*
X25970147Y10099354D01*
X26095646Y10224853D01*
X26243216Y10323456D01*
X26407188Y10391376D01*
X26556488Y10421073D01*
X26581258Y10426000D01*
X26758742Y10426000D01*
X26783512Y10421073D01*
G37*
G36*
X6438032Y10430913D02*
G01*
X6587332Y10401216D01*
X6751304Y10333296D01*
X6898874Y10234693D01*
X7024373Y10109194D01*
X7122976Y9961624D01*
X7190896Y9797652D01*
X7225520Y9623581D01*
X7225520Y9446099D01*
X7190896Y9272028D01*
X7122976Y9108056D01*
X7024373Y8960486D01*
X6898874Y8834987D01*
X6751304Y8736384D01*
X6587332Y8668464D01*
X6438032Y8638767D01*
X6413262Y8633840D01*
X6235778Y8633840D01*
X6211008Y8638767D01*
X6061708Y8668464D01*
X5897736Y8736384D01*
X5750166Y8834987D01*
X5624667Y8960486D01*
X5526064Y9108056D01*
X5458144Y9272028D01*
X5423520Y9446099D01*
X5423520Y9623581D01*
X5458144Y9797652D01*
X5526064Y9961624D01*
X5624667Y10109194D01*
X5750166Y10234693D01*
X5897736Y10333296D01*
X6061708Y10401216D01*
X6211008Y10430913D01*
X6235778Y10435840D01*
X6413262Y10435840D01*
X6438032Y10430913D01*
G37*
G36*
X3898032Y10430913D02*
G01*
X4047332Y10401216D01*
X4211304Y10333296D01*
X4358874Y10234693D01*
X4484373Y10109194D01*
X4582976Y9961624D01*
X4650896Y9797652D01*
X4685520Y9623581D01*
X4685520Y9446099D01*
X4650896Y9272028D01*
X4582976Y9108056D01*
X4484373Y8960486D01*
X4358874Y8834987D01*
X4211304Y8736384D01*
X4047332Y8668464D01*
X3898032Y8638767D01*
X3873262Y8633840D01*
X3695778Y8633840D01*
X3671008Y8638767D01*
X3521708Y8668464D01*
X3357736Y8736384D01*
X3210166Y8834987D01*
X3084667Y8960486D01*
X2986064Y9108056D01*
X2918144Y9272028D01*
X2883520Y9446099D01*
X2883520Y9623581D01*
X2918144Y9797652D01*
X2986064Y9961624D01*
X3084667Y10109194D01*
X3210166Y10234693D01*
X3357736Y10333296D01*
X3521708Y10401216D01*
X3671008Y10430913D01*
X3695778Y10435840D01*
X3873262Y10435840D01*
X3898032Y10430913D01*
G37*
G36*
X26783512Y12961073D02*
G01*
X26932812Y12931376D01*
X27096784Y12863456D01*
X27244354Y12764853D01*
X27369853Y12639354D01*
X27468456Y12491784D01*
X27536376Y12327812D01*
X27571000Y12153741D01*
X27571000Y11976259D01*
X27536376Y11802188D01*
X27468456Y11638216D01*
X27369853Y11490646D01*
X27244354Y11365147D01*
X27096784Y11266544D01*
X26932812Y11198624D01*
X26783512Y11168927D01*
X26758742Y11164000D01*
X26581258Y11164000D01*
X26556488Y11168927D01*
X26407188Y11198624D01*
X26243216Y11266544D01*
X26095646Y11365147D01*
X25970147Y11490646D01*
X25871544Y11638216D01*
X25803624Y11802188D01*
X25769000Y11976259D01*
X25769000Y12153741D01*
X25803624Y12327812D01*
X25871544Y12491784D01*
X25970147Y12639354D01*
X26095646Y12764853D01*
X26243216Y12863456D01*
X26407188Y12931376D01*
X26556488Y12961073D01*
X26581258Y12966000D01*
X26758742Y12966000D01*
X26783512Y12961073D01*
G37*
G36*
X6438032Y12970913D02*
G01*
X6587332Y12941216D01*
X6751304Y12873296D01*
X6898874Y12774693D01*
X7024373Y12649194D01*
X7122976Y12501624D01*
X7190896Y12337652D01*
X7225520Y12163581D01*
X7225520Y11986099D01*
X7190896Y11812028D01*
X7122976Y11648056D01*
X7024373Y11500486D01*
X6898874Y11374987D01*
X6751304Y11276384D01*
X6587332Y11208464D01*
X6438032Y11178767D01*
X6413262Y11173840D01*
X6235778Y11173840D01*
X6211008Y11178767D01*
X6061708Y11208464D01*
X5897736Y11276384D01*
X5750166Y11374987D01*
X5624667Y11500486D01*
X5526064Y11648056D01*
X5458144Y11812028D01*
X5423520Y11986099D01*
X5423520Y12163581D01*
X5458144Y12337652D01*
X5526064Y12501624D01*
X5624667Y12649194D01*
X5750166Y12774693D01*
X5897736Y12873296D01*
X6061708Y12941216D01*
X6211008Y12970913D01*
X6235778Y12975840D01*
X6413262Y12975840D01*
X6438032Y12970913D01*
G37*
G36*
X3898032Y12970913D02*
G01*
X4047332Y12941216D01*
X4211304Y12873296D01*
X4358874Y12774693D01*
X4484373Y12649194D01*
X4582976Y12501624D01*
X4650896Y12337652D01*
X4685520Y12163581D01*
X4685520Y11986099D01*
X4650896Y11812028D01*
X4582976Y11648056D01*
X4484373Y11500486D01*
X4358874Y11374987D01*
X4211304Y11276384D01*
X4047332Y11208464D01*
X3898032Y11178767D01*
X3873262Y11173840D01*
X3695778Y11173840D01*
X3671008Y11178767D01*
X3521708Y11208464D01*
X3357736Y11276384D01*
X3210166Y11374987D01*
X3084667Y11500486D01*
X2986064Y11648056D01*
X2918144Y11812028D01*
X2883520Y11986099D01*
X2883520Y12163581D01*
X2918144Y12337652D01*
X2986064Y12501624D01*
X3084667Y12649194D01*
X3210166Y12774693D01*
X3357736Y12873296D01*
X3521708Y12941216D01*
X3671008Y12970913D01*
X3695778Y12975840D01*
X3873262Y12975840D01*
X3898032Y12970913D01*
G37*
G36*
X26783512Y15501073D02*
G01*
X26932812Y15471376D01*
X27096784Y15403456D01*
X27244354Y15304853D01*
X27369853Y15179354D01*
X27468456Y15031784D01*
X27536376Y14867812D01*
X27571000Y14693741D01*
X27571000Y14516259D01*
X27536376Y14342188D01*
X27468456Y14178216D01*
X27369853Y14030646D01*
X27244354Y13905147D01*
X27096784Y13806544D01*
X26932812Y13738624D01*
X26783512Y13708927D01*
X26758742Y13704000D01*
X26581258Y13704000D01*
X26556488Y13708927D01*
X26407188Y13738624D01*
X26243216Y13806544D01*
X26095646Y13905147D01*
X25970147Y14030646D01*
X25871544Y14178216D01*
X25803624Y14342188D01*
X25769000Y14516259D01*
X25769000Y14693741D01*
X25803624Y14867812D01*
X25871544Y15031784D01*
X25970147Y15179354D01*
X26095646Y15304853D01*
X26243216Y15403456D01*
X26407188Y15471376D01*
X26556488Y15501073D01*
X26581258Y15506000D01*
X26758742Y15506000D01*
X26783512Y15501073D01*
G37*
G36*
X6438032Y15510913D02*
G01*
X6587332Y15481216D01*
X6751304Y15413296D01*
X6898874Y15314693D01*
X7024373Y15189194D01*
X7122976Y15041624D01*
X7190896Y14877652D01*
X7225520Y14703581D01*
X7225520Y14526099D01*
X7190896Y14352028D01*
X7122976Y14188056D01*
X7024373Y14040486D01*
X6898874Y13914987D01*
X6751304Y13816384D01*
X6587332Y13748464D01*
X6438032Y13718767D01*
X6413262Y13713840D01*
X6235778Y13713840D01*
X6211008Y13718767D01*
X6061708Y13748464D01*
X5897736Y13816384D01*
X5750166Y13914987D01*
X5624667Y14040486D01*
X5526064Y14188056D01*
X5458144Y14352028D01*
X5423520Y14526099D01*
X5423520Y14703581D01*
X5458144Y14877652D01*
X5526064Y15041624D01*
X5624667Y15189194D01*
X5750166Y15314693D01*
X5897736Y15413296D01*
X6061708Y15481216D01*
X6211008Y15510913D01*
X6235778Y15515840D01*
X6413262Y15515840D01*
X6438032Y15510913D01*
G37*
G36*
X3898032Y15510913D02*
G01*
X4047332Y15481216D01*
X4211304Y15413296D01*
X4358874Y15314693D01*
X4484373Y15189194D01*
X4582976Y15041624D01*
X4650896Y14877652D01*
X4685520Y14703581D01*
X4685520Y14526099D01*
X4650896Y14352028D01*
X4582976Y14188056D01*
X4484373Y14040486D01*
X4358874Y13914987D01*
X4211304Y13816384D01*
X4047332Y13748464D01*
X3898032Y13718767D01*
X3873262Y13713840D01*
X3695778Y13713840D01*
X3671008Y13718767D01*
X3521708Y13748464D01*
X3357736Y13816384D01*
X3210166Y13914987D01*
X3084667Y14040486D01*
X2986064Y14188056D01*
X2918144Y14352028D01*
X2883520Y14526099D01*
X2883520Y14703581D01*
X2918144Y14877652D01*
X2986064Y15041624D01*
X3084667Y15189194D01*
X3210166Y15314693D01*
X3357736Y15413296D01*
X3521708Y15481216D01*
X3671008Y15510913D01*
X3695778Y15515840D01*
X3873262Y15515840D01*
X3898032Y15510913D01*
G37*
G36*
X35300256Y18118702D02*
G01*
X35406579Y18097553D01*
X35707042Y17973097D01*
X35977451Y17792415D01*
X36207415Y17562451D01*
X36388097Y17292042D01*
X36485762Y17056259D01*
X36512553Y16991578D01*
X36576000Y16672611D01*
X36576000Y16347389D01*
X36557392Y16253840D01*
X36512553Y16028421D01*
X36388097Y15727958D01*
X36207415Y15457549D01*
X35977451Y15227585D01*
X35707042Y15046903D01*
X35707041Y15046902D01*
X35707040Y15046902D01*
X35694293Y15041622D01*
X35406579Y14922447D01*
X35300256Y14901298D01*
X35087611Y14859000D01*
X34762389Y14859000D01*
X34549744Y14901298D01*
X34443421Y14922447D01*
X34155707Y15041622D01*
X34142960Y15046902D01*
X34142959Y15046902D01*
X34142958Y15046903D01*
X33872549Y15227585D01*
X33642585Y15457549D01*
X33461903Y15727958D01*
X33337447Y16028421D01*
X33292608Y16253840D01*
X33274000Y16347389D01*
X33274000Y16672611D01*
X33337447Y16991578D01*
X33364239Y17056259D01*
X33461903Y17292042D01*
X33642585Y17562451D01*
X33872549Y17792415D01*
X34142958Y17973097D01*
X34443421Y18097553D01*
X34549744Y18118702D01*
X34762389Y18161000D01*
X35087611Y18161000D01*
X35300256Y18118702D01*
G37*
G36*
X26783512Y18041073D02*
G01*
X26932812Y18011376D01*
X27096784Y17943456D01*
X27244354Y17844853D01*
X27369853Y17719354D01*
X27468456Y17571784D01*
X27536376Y17407812D01*
X27571000Y17233741D01*
X27571000Y17056259D01*
X27536376Y16882188D01*
X27468456Y16718216D01*
X27369853Y16570646D01*
X27244354Y16445147D01*
X27096784Y16346544D01*
X26932812Y16278624D01*
X26783512Y16248927D01*
X26758742Y16244000D01*
X26581258Y16244000D01*
X26556488Y16248927D01*
X26407188Y16278624D01*
X26243216Y16346544D01*
X26095646Y16445147D01*
X25970147Y16570646D01*
X25871544Y16718216D01*
X25803624Y16882188D01*
X25769000Y17056259D01*
X25769000Y17233741D01*
X25803624Y17407812D01*
X25871544Y17571784D01*
X25970147Y17719354D01*
X26095646Y17844853D01*
X26243216Y17943456D01*
X26407188Y18011376D01*
X26556488Y18041073D01*
X26581258Y18046000D01*
X26758742Y18046000D01*
X26783512Y18041073D01*
G37*
G36*
X3898032Y18050913D02*
G01*
X4047332Y18021216D01*
X4211304Y17953296D01*
X4358874Y17854693D01*
X4484373Y17729194D01*
X4582976Y17581624D01*
X4650896Y17417652D01*
X4685520Y17243581D01*
X4685520Y17066099D01*
X4650896Y16892028D01*
X4582976Y16728056D01*
X4484373Y16580486D01*
X4358874Y16454987D01*
X4211304Y16356384D01*
X4047332Y16288464D01*
X3898032Y16258767D01*
X3873262Y16253840D01*
X3695778Y16253840D01*
X3671008Y16258767D01*
X3521708Y16288464D01*
X3357736Y16356384D01*
X3210166Y16454987D01*
X3084667Y16580486D01*
X2986064Y16728056D01*
X2918144Y16892028D01*
X2883520Y17066099D01*
X2883520Y17243581D01*
X2918144Y17417652D01*
X2986064Y17581624D01*
X3084667Y17729194D01*
X3210166Y17854693D01*
X3357736Y17953296D01*
X3521708Y18021216D01*
X3671008Y18050913D01*
X3695778Y18055840D01*
X3873262Y18055840D01*
X3898032Y18050913D01*
G37*
G36*
X6438032Y18050913D02*
G01*
X6587332Y18021216D01*
X6751304Y17953296D01*
X6898874Y17854693D01*
X7024373Y17729194D01*
X7122976Y17581624D01*
X7190896Y17417652D01*
X7225520Y17243581D01*
X7225520Y17066099D01*
X7190896Y16892028D01*
X7122976Y16728056D01*
X7024373Y16580486D01*
X6898874Y16454987D01*
X6751304Y16356384D01*
X6587332Y16288464D01*
X6438032Y16258767D01*
X6413262Y16253840D01*
X6235778Y16253840D01*
X6211008Y16258767D01*
X6061708Y16288464D01*
X5897736Y16356384D01*
X5750166Y16454987D01*
X5624667Y16580486D01*
X5526064Y16728056D01*
X5458144Y16892028D01*
X5423520Y17066099D01*
X5423520Y17243581D01*
X5458144Y17417652D01*
X5526064Y17581624D01*
X5624667Y17729194D01*
X5750166Y17854693D01*
X5897736Y17953296D01*
X6061708Y18021216D01*
X6211008Y18050913D01*
X6235778Y18055840D01*
X6413262Y18055840D01*
X6438032Y18050913D01*
G37*
G36*
X26783512Y20581073D02*
G01*
X26932812Y20551376D01*
X27096784Y20483456D01*
X27244354Y20384853D01*
X27369853Y20259354D01*
X27468456Y20111784D01*
X27536376Y19947812D01*
X27571000Y19773741D01*
X27571000Y19596259D01*
X27536376Y19422188D01*
X27468456Y19258216D01*
X27369853Y19110646D01*
X27244354Y18985147D01*
X27096784Y18886544D01*
X26932812Y18818624D01*
X26783512Y18788927D01*
X26758742Y18784000D01*
X26581258Y18784000D01*
X26556488Y18788927D01*
X26407188Y18818624D01*
X26243216Y18886544D01*
X26095646Y18985147D01*
X25970147Y19110646D01*
X25871544Y19258216D01*
X25803624Y19422188D01*
X25769000Y19596259D01*
X25769000Y19773741D01*
X25803624Y19947812D01*
X25871544Y20111784D01*
X25970147Y20259354D01*
X26095646Y20384853D01*
X26243216Y20483456D01*
X26407188Y20551376D01*
X26556488Y20581073D01*
X26581258Y20586000D01*
X26758742Y20586000D01*
X26783512Y20581073D01*
G37*
G36*
X6438032Y20590913D02*
G01*
X6587332Y20561216D01*
X6751304Y20493296D01*
X6898874Y20394693D01*
X7024373Y20269194D01*
X7122976Y20121624D01*
X7190896Y19957652D01*
X7225520Y19783581D01*
X7225520Y19606099D01*
X7190896Y19432028D01*
X7122976Y19268056D01*
X7024373Y19120486D01*
X6898874Y18994987D01*
X6751304Y18896384D01*
X6587332Y18828464D01*
X6438032Y18798767D01*
X6413262Y18793840D01*
X6235778Y18793840D01*
X6211008Y18798767D01*
X6061708Y18828464D01*
X5897736Y18896384D01*
X5750166Y18994987D01*
X5624667Y19120486D01*
X5526064Y19268056D01*
X5458144Y19432028D01*
X5423520Y19606099D01*
X5423520Y19783581D01*
X5458144Y19957652D01*
X5526064Y20121624D01*
X5624667Y20269194D01*
X5750166Y20394693D01*
X5897736Y20493296D01*
X6061708Y20561216D01*
X6211008Y20590913D01*
X6235778Y20595840D01*
X6413262Y20595840D01*
X6438032Y20590913D01*
G37*
G36*
X4685520Y18793840D02*
G01*
X2883520Y18793840D01*
X2883520Y20595840D01*
X4685520Y20595840D01*
X4685520Y18793840D01*
G37*
G36*
X35300256Y24468702D02*
G01*
X35406579Y24447553D01*
X35707042Y24323097D01*
X35977451Y24142415D01*
X36207415Y23912451D01*
X36207416Y23912449D01*
X36388098Y23642040D01*
X36512553Y23341578D01*
X36576000Y23022611D01*
X36576000Y22697389D01*
X36566928Y22651782D01*
X36512553Y22378421D01*
X36388097Y22077958D01*
X36207415Y21807549D01*
X35977451Y21577585D01*
X35707042Y21396903D01*
X35406579Y21272447D01*
X35300256Y21251298D01*
X35087611Y21209000D01*
X34762389Y21209000D01*
X34549744Y21251298D01*
X34443421Y21272447D01*
X34142958Y21396903D01*
X33872549Y21577585D01*
X33642585Y21807549D01*
X33461903Y22077958D01*
X33337447Y22378421D01*
X33283072Y22651782D01*
X33274000Y22697389D01*
X33274000Y23022611D01*
X33337447Y23341578D01*
X33461902Y23642040D01*
X33642584Y23912449D01*
X33642585Y23912451D01*
X33872549Y24142415D01*
X34142958Y24323097D01*
X34443421Y24447553D01*
X34549744Y24468702D01*
X34762389Y24511000D01*
X35087611Y24511000D01*
X35300256Y24468702D01*
G37*
G36*
X26783512Y23121073D02*
G01*
X26932812Y23091376D01*
X27096784Y23023456D01*
X27244354Y22924853D01*
X27369853Y22799354D01*
X27468456Y22651784D01*
X27536376Y22487812D01*
X27571000Y22313741D01*
X27571000Y22136259D01*
X27536376Y21962188D01*
X27468456Y21798216D01*
X27369853Y21650646D01*
X27244354Y21525147D01*
X27096784Y21426544D01*
X26932812Y21358624D01*
X26783512Y21328927D01*
X26758742Y21324000D01*
X26581258Y21324000D01*
X26556488Y21328927D01*
X26407188Y21358624D01*
X26243216Y21426544D01*
X26095646Y21525147D01*
X25970147Y21650646D01*
X25871544Y21798216D01*
X25803624Y21962188D01*
X25769000Y22136259D01*
X25769000Y22313741D01*
X25803624Y22487812D01*
X25871544Y22651784D01*
X25970147Y22799354D01*
X26095646Y22924853D01*
X26243216Y23023456D01*
X26407188Y23091376D01*
X26556488Y23121073D01*
X26581258Y23126000D01*
X26758742Y23126000D01*
X26783512Y23121073D01*
G37*
G36*
X27571000Y23864000D02*
G01*
X25769000Y23864000D01*
X25769000Y25666000D01*
X27571000Y25666000D01*
X27571000Y23864000D01*
G37*
M02*
