G04 #@! TF.GenerationSoftware,KiCad,Pcbnew,5.1.5-52549c5~86~ubuntu19.10.1*
G04 #@! TF.CreationDate,2020-05-04T22:04:25+01:00*
G04 #@! TF.ProjectId,pmod-dualrs422,706d6f64-2d64-4756-916c-72733432322e,rev?*
G04 #@! TF.SameCoordinates,PXccb7580PY7aec778*
G04 #@! TF.FileFunction,Copper,L1,Top*
G04 #@! TF.FilePolarity,Positive*
%FSLAX46Y46*%
G04 Gerber Fmt 4.6, Leading zero omitted, Abs format (unit mm)*
G04 Created by KiCad (PCBNEW 5.1.5-52549c5~86~ubuntu19.10.1) date 2020-05-04 22:04:25*
%MOMM*%
%LPD*%
G04 APERTURE LIST*
%ADD10O,1.700000X1.700000*%
%ADD11R,1.700000X1.700000*%
%ADD12C,0.100000*%
%ADD13C,0.800000*%
%ADD14C,0.400000*%
%ADD15C,0.200000*%
G04 APERTURE END LIST*
D10*
X26670000Y1905000D03*
X26670000Y4445000D03*
X26670000Y6985000D03*
X26670000Y9525000D03*
X26670000Y12065000D03*
X26670000Y14605000D03*
X26670000Y17145000D03*
X26670000Y19685000D03*
X26670000Y22225000D03*
D11*
X26670000Y24765000D03*
G04 #@! TA.AperFunction,SMDPad,CuDef*
D12*
G36*
X17189662Y22393666D02*
G01*
X17213323Y22390156D01*
X17236527Y22384344D01*
X17259049Y22376286D01*
X17280673Y22366058D01*
X17301190Y22353761D01*
X17320403Y22339511D01*
X17338127Y22323447D01*
X17354191Y22305723D01*
X17368441Y22286510D01*
X17380738Y22265993D01*
X17390966Y22244369D01*
X17399024Y22221847D01*
X17404836Y22198643D01*
X17408346Y22174982D01*
X17409520Y22151090D01*
X17409520Y21238590D01*
X17408346Y21214698D01*
X17404836Y21191037D01*
X17399024Y21167833D01*
X17390966Y21145311D01*
X17380738Y21123687D01*
X17368441Y21103170D01*
X17354191Y21083957D01*
X17338127Y21066233D01*
X17320403Y21050169D01*
X17301190Y21035919D01*
X17280673Y21023622D01*
X17259049Y21013394D01*
X17236527Y21005336D01*
X17213323Y20999524D01*
X17189662Y20996014D01*
X17165770Y20994840D01*
X16678270Y20994840D01*
X16654378Y20996014D01*
X16630717Y20999524D01*
X16607513Y21005336D01*
X16584991Y21013394D01*
X16563367Y21023622D01*
X16542850Y21035919D01*
X16523637Y21050169D01*
X16505913Y21066233D01*
X16489849Y21083957D01*
X16475599Y21103170D01*
X16463302Y21123687D01*
X16453074Y21145311D01*
X16445016Y21167833D01*
X16439204Y21191037D01*
X16435694Y21214698D01*
X16434520Y21238590D01*
X16434520Y22151090D01*
X16435694Y22174982D01*
X16439204Y22198643D01*
X16445016Y22221847D01*
X16453074Y22244369D01*
X16463302Y22265993D01*
X16475599Y22286510D01*
X16489849Y22305723D01*
X16505913Y22323447D01*
X16523637Y22339511D01*
X16542850Y22353761D01*
X16563367Y22366058D01*
X16584991Y22376286D01*
X16607513Y22384344D01*
X16630717Y22390156D01*
X16654378Y22393666D01*
X16678270Y22394840D01*
X17165770Y22394840D01*
X17189662Y22393666D01*
G37*
G04 #@! TD.AperFunction*
G04 #@! TA.AperFunction,SMDPad,CuDef*
G36*
X15314662Y22393666D02*
G01*
X15338323Y22390156D01*
X15361527Y22384344D01*
X15384049Y22376286D01*
X15405673Y22366058D01*
X15426190Y22353761D01*
X15445403Y22339511D01*
X15463127Y22323447D01*
X15479191Y22305723D01*
X15493441Y22286510D01*
X15505738Y22265993D01*
X15515966Y22244369D01*
X15524024Y22221847D01*
X15529836Y22198643D01*
X15533346Y22174982D01*
X15534520Y22151090D01*
X15534520Y21238590D01*
X15533346Y21214698D01*
X15529836Y21191037D01*
X15524024Y21167833D01*
X15515966Y21145311D01*
X15505738Y21123687D01*
X15493441Y21103170D01*
X15479191Y21083957D01*
X15463127Y21066233D01*
X15445403Y21050169D01*
X15426190Y21035919D01*
X15405673Y21023622D01*
X15384049Y21013394D01*
X15361527Y21005336D01*
X15338323Y20999524D01*
X15314662Y20996014D01*
X15290770Y20994840D01*
X14803270Y20994840D01*
X14779378Y20996014D01*
X14755717Y20999524D01*
X14732513Y21005336D01*
X14709991Y21013394D01*
X14688367Y21023622D01*
X14667850Y21035919D01*
X14648637Y21050169D01*
X14630913Y21066233D01*
X14614849Y21083957D01*
X14600599Y21103170D01*
X14588302Y21123687D01*
X14578074Y21145311D01*
X14570016Y21167833D01*
X14564204Y21191037D01*
X14560694Y21214698D01*
X14559520Y21238590D01*
X14559520Y22151090D01*
X14560694Y22174982D01*
X14564204Y22198643D01*
X14570016Y22221847D01*
X14578074Y22244369D01*
X14588302Y22265993D01*
X14600599Y22286510D01*
X14614849Y22305723D01*
X14630913Y22323447D01*
X14648637Y22339511D01*
X14667850Y22353761D01*
X14688367Y22366058D01*
X14709991Y22376286D01*
X14732513Y22384344D01*
X14755717Y22390156D01*
X14779378Y22393666D01*
X14803270Y22394840D01*
X15290770Y22394840D01*
X15314662Y22393666D01*
G37*
G04 #@! TD.AperFunction*
G04 #@! TA.AperFunction,SMDPad,CuDef*
G36*
X9314662Y7393666D02*
G01*
X9338323Y7390156D01*
X9361527Y7384344D01*
X9384049Y7376286D01*
X9405673Y7366058D01*
X9426190Y7353761D01*
X9445403Y7339511D01*
X9463127Y7323447D01*
X9479191Y7305723D01*
X9493441Y7286510D01*
X9505738Y7265993D01*
X9515966Y7244369D01*
X9524024Y7221847D01*
X9529836Y7198643D01*
X9533346Y7174982D01*
X9534520Y7151090D01*
X9534520Y6238590D01*
X9533346Y6214698D01*
X9529836Y6191037D01*
X9524024Y6167833D01*
X9515966Y6145311D01*
X9505738Y6123687D01*
X9493441Y6103170D01*
X9479191Y6083957D01*
X9463127Y6066233D01*
X9445403Y6050169D01*
X9426190Y6035919D01*
X9405673Y6023622D01*
X9384049Y6013394D01*
X9361527Y6005336D01*
X9338323Y5999524D01*
X9314662Y5996014D01*
X9290770Y5994840D01*
X8803270Y5994840D01*
X8779378Y5996014D01*
X8755717Y5999524D01*
X8732513Y6005336D01*
X8709991Y6013394D01*
X8688367Y6023622D01*
X8667850Y6035919D01*
X8648637Y6050169D01*
X8630913Y6066233D01*
X8614849Y6083957D01*
X8600599Y6103170D01*
X8588302Y6123687D01*
X8578074Y6145311D01*
X8570016Y6167833D01*
X8564204Y6191037D01*
X8560694Y6214698D01*
X8559520Y6238590D01*
X8559520Y7151090D01*
X8560694Y7174982D01*
X8564204Y7198643D01*
X8570016Y7221847D01*
X8578074Y7244369D01*
X8588302Y7265993D01*
X8600599Y7286510D01*
X8614849Y7305723D01*
X8630913Y7323447D01*
X8648637Y7339511D01*
X8667850Y7353761D01*
X8688367Y7366058D01*
X8709991Y7376286D01*
X8732513Y7384344D01*
X8755717Y7390156D01*
X8779378Y7393666D01*
X8803270Y7394840D01*
X9290770Y7394840D01*
X9314662Y7393666D01*
G37*
G04 #@! TD.AperFunction*
G04 #@! TA.AperFunction,SMDPad,CuDef*
G36*
X11189662Y7393666D02*
G01*
X11213323Y7390156D01*
X11236527Y7384344D01*
X11259049Y7376286D01*
X11280673Y7366058D01*
X11301190Y7353761D01*
X11320403Y7339511D01*
X11338127Y7323447D01*
X11354191Y7305723D01*
X11368441Y7286510D01*
X11380738Y7265993D01*
X11390966Y7244369D01*
X11399024Y7221847D01*
X11404836Y7198643D01*
X11408346Y7174982D01*
X11409520Y7151090D01*
X11409520Y6238590D01*
X11408346Y6214698D01*
X11404836Y6191037D01*
X11399024Y6167833D01*
X11390966Y6145311D01*
X11380738Y6123687D01*
X11368441Y6103170D01*
X11354191Y6083957D01*
X11338127Y6066233D01*
X11320403Y6050169D01*
X11301190Y6035919D01*
X11280673Y6023622D01*
X11259049Y6013394D01*
X11236527Y6005336D01*
X11213323Y5999524D01*
X11189662Y5996014D01*
X11165770Y5994840D01*
X10678270Y5994840D01*
X10654378Y5996014D01*
X10630717Y5999524D01*
X10607513Y6005336D01*
X10584991Y6013394D01*
X10563367Y6023622D01*
X10542850Y6035919D01*
X10523637Y6050169D01*
X10505913Y6066233D01*
X10489849Y6083957D01*
X10475599Y6103170D01*
X10463302Y6123687D01*
X10453074Y6145311D01*
X10445016Y6167833D01*
X10439204Y6191037D01*
X10435694Y6214698D01*
X10434520Y6238590D01*
X10434520Y7151090D01*
X10435694Y7174982D01*
X10439204Y7198643D01*
X10445016Y7221847D01*
X10453074Y7244369D01*
X10463302Y7265993D01*
X10475599Y7286510D01*
X10489849Y7305723D01*
X10505913Y7323447D01*
X10523637Y7339511D01*
X10542850Y7353761D01*
X10563367Y7366058D01*
X10584991Y7376286D01*
X10607513Y7384344D01*
X10630717Y7390156D01*
X10654378Y7393666D01*
X10678270Y7394840D01*
X11165770Y7394840D01*
X11189662Y7393666D01*
G37*
G04 #@! TD.AperFunction*
G04 #@! TA.AperFunction,SMDPad,CuDef*
G36*
X9314662Y9593666D02*
G01*
X9338323Y9590156D01*
X9361527Y9584344D01*
X9384049Y9576286D01*
X9405673Y9566058D01*
X9426190Y9553761D01*
X9445403Y9539511D01*
X9463127Y9523447D01*
X9479191Y9505723D01*
X9493441Y9486510D01*
X9505738Y9465993D01*
X9515966Y9444369D01*
X9524024Y9421847D01*
X9529836Y9398643D01*
X9533346Y9374982D01*
X9534520Y9351090D01*
X9534520Y8438590D01*
X9533346Y8414698D01*
X9529836Y8391037D01*
X9524024Y8367833D01*
X9515966Y8345311D01*
X9505738Y8323687D01*
X9493441Y8303170D01*
X9479191Y8283957D01*
X9463127Y8266233D01*
X9445403Y8250169D01*
X9426190Y8235919D01*
X9405673Y8223622D01*
X9384049Y8213394D01*
X9361527Y8205336D01*
X9338323Y8199524D01*
X9314662Y8196014D01*
X9290770Y8194840D01*
X8803270Y8194840D01*
X8779378Y8196014D01*
X8755717Y8199524D01*
X8732513Y8205336D01*
X8709991Y8213394D01*
X8688367Y8223622D01*
X8667850Y8235919D01*
X8648637Y8250169D01*
X8630913Y8266233D01*
X8614849Y8283957D01*
X8600599Y8303170D01*
X8588302Y8323687D01*
X8578074Y8345311D01*
X8570016Y8367833D01*
X8564204Y8391037D01*
X8560694Y8414698D01*
X8559520Y8438590D01*
X8559520Y9351090D01*
X8560694Y9374982D01*
X8564204Y9398643D01*
X8570016Y9421847D01*
X8578074Y9444369D01*
X8588302Y9465993D01*
X8600599Y9486510D01*
X8614849Y9505723D01*
X8630913Y9523447D01*
X8648637Y9539511D01*
X8667850Y9553761D01*
X8688367Y9566058D01*
X8709991Y9576286D01*
X8732513Y9584344D01*
X8755717Y9590156D01*
X8779378Y9593666D01*
X8803270Y9594840D01*
X9290770Y9594840D01*
X9314662Y9593666D01*
G37*
G04 #@! TD.AperFunction*
G04 #@! TA.AperFunction,SMDPad,CuDef*
G36*
X11189662Y9593666D02*
G01*
X11213323Y9590156D01*
X11236527Y9584344D01*
X11259049Y9576286D01*
X11280673Y9566058D01*
X11301190Y9553761D01*
X11320403Y9539511D01*
X11338127Y9523447D01*
X11354191Y9505723D01*
X11368441Y9486510D01*
X11380738Y9465993D01*
X11390966Y9444369D01*
X11399024Y9421847D01*
X11404836Y9398643D01*
X11408346Y9374982D01*
X11409520Y9351090D01*
X11409520Y8438590D01*
X11408346Y8414698D01*
X11404836Y8391037D01*
X11399024Y8367833D01*
X11390966Y8345311D01*
X11380738Y8323687D01*
X11368441Y8303170D01*
X11354191Y8283957D01*
X11338127Y8266233D01*
X11320403Y8250169D01*
X11301190Y8235919D01*
X11280673Y8223622D01*
X11259049Y8213394D01*
X11236527Y8205336D01*
X11213323Y8199524D01*
X11189662Y8196014D01*
X11165770Y8194840D01*
X10678270Y8194840D01*
X10654378Y8196014D01*
X10630717Y8199524D01*
X10607513Y8205336D01*
X10584991Y8213394D01*
X10563367Y8223622D01*
X10542850Y8235919D01*
X10523637Y8250169D01*
X10505913Y8266233D01*
X10489849Y8283957D01*
X10475599Y8303170D01*
X10463302Y8323687D01*
X10453074Y8345311D01*
X10445016Y8367833D01*
X10439204Y8391037D01*
X10435694Y8414698D01*
X10434520Y8438590D01*
X10434520Y9351090D01*
X10435694Y9374982D01*
X10439204Y9398643D01*
X10445016Y9421847D01*
X10453074Y9444369D01*
X10463302Y9465993D01*
X10475599Y9486510D01*
X10489849Y9505723D01*
X10505913Y9523447D01*
X10523637Y9539511D01*
X10542850Y9553761D01*
X10563367Y9566058D01*
X10584991Y9576286D01*
X10607513Y9584344D01*
X10630717Y9590156D01*
X10654378Y9593666D01*
X10678270Y9594840D01*
X11165770Y9594840D01*
X11189662Y9593666D01*
G37*
G04 #@! TD.AperFunction*
G04 #@! TA.AperFunction,SMDPad,CuDef*
G36*
X9314662Y17593666D02*
G01*
X9338323Y17590156D01*
X9361527Y17584344D01*
X9384049Y17576286D01*
X9405673Y17566058D01*
X9426190Y17553761D01*
X9445403Y17539511D01*
X9463127Y17523447D01*
X9479191Y17505723D01*
X9493441Y17486510D01*
X9505738Y17465993D01*
X9515966Y17444369D01*
X9524024Y17421847D01*
X9529836Y17398643D01*
X9533346Y17374982D01*
X9534520Y17351090D01*
X9534520Y16438590D01*
X9533346Y16414698D01*
X9529836Y16391037D01*
X9524024Y16367833D01*
X9515966Y16345311D01*
X9505738Y16323687D01*
X9493441Y16303170D01*
X9479191Y16283957D01*
X9463127Y16266233D01*
X9445403Y16250169D01*
X9426190Y16235919D01*
X9405673Y16223622D01*
X9384049Y16213394D01*
X9361527Y16205336D01*
X9338323Y16199524D01*
X9314662Y16196014D01*
X9290770Y16194840D01*
X8803270Y16194840D01*
X8779378Y16196014D01*
X8755717Y16199524D01*
X8732513Y16205336D01*
X8709991Y16213394D01*
X8688367Y16223622D01*
X8667850Y16235919D01*
X8648637Y16250169D01*
X8630913Y16266233D01*
X8614849Y16283957D01*
X8600599Y16303170D01*
X8588302Y16323687D01*
X8578074Y16345311D01*
X8570016Y16367833D01*
X8564204Y16391037D01*
X8560694Y16414698D01*
X8559520Y16438590D01*
X8559520Y17351090D01*
X8560694Y17374982D01*
X8564204Y17398643D01*
X8570016Y17421847D01*
X8578074Y17444369D01*
X8588302Y17465993D01*
X8600599Y17486510D01*
X8614849Y17505723D01*
X8630913Y17523447D01*
X8648637Y17539511D01*
X8667850Y17553761D01*
X8688367Y17566058D01*
X8709991Y17576286D01*
X8732513Y17584344D01*
X8755717Y17590156D01*
X8779378Y17593666D01*
X8803270Y17594840D01*
X9290770Y17594840D01*
X9314662Y17593666D01*
G37*
G04 #@! TD.AperFunction*
G04 #@! TA.AperFunction,SMDPad,CuDef*
G36*
X11189662Y17593666D02*
G01*
X11213323Y17590156D01*
X11236527Y17584344D01*
X11259049Y17576286D01*
X11280673Y17566058D01*
X11301190Y17553761D01*
X11320403Y17539511D01*
X11338127Y17523447D01*
X11354191Y17505723D01*
X11368441Y17486510D01*
X11380738Y17465993D01*
X11390966Y17444369D01*
X11399024Y17421847D01*
X11404836Y17398643D01*
X11408346Y17374982D01*
X11409520Y17351090D01*
X11409520Y16438590D01*
X11408346Y16414698D01*
X11404836Y16391037D01*
X11399024Y16367833D01*
X11390966Y16345311D01*
X11380738Y16323687D01*
X11368441Y16303170D01*
X11354191Y16283957D01*
X11338127Y16266233D01*
X11320403Y16250169D01*
X11301190Y16235919D01*
X11280673Y16223622D01*
X11259049Y16213394D01*
X11236527Y16205336D01*
X11213323Y16199524D01*
X11189662Y16196014D01*
X11165770Y16194840D01*
X10678270Y16194840D01*
X10654378Y16196014D01*
X10630717Y16199524D01*
X10607513Y16205336D01*
X10584991Y16213394D01*
X10563367Y16223622D01*
X10542850Y16235919D01*
X10523637Y16250169D01*
X10505913Y16266233D01*
X10489849Y16283957D01*
X10475599Y16303170D01*
X10463302Y16323687D01*
X10453074Y16345311D01*
X10445016Y16367833D01*
X10439204Y16391037D01*
X10435694Y16414698D01*
X10434520Y16438590D01*
X10434520Y17351090D01*
X10435694Y17374982D01*
X10439204Y17398643D01*
X10445016Y17421847D01*
X10453074Y17444369D01*
X10463302Y17465993D01*
X10475599Y17486510D01*
X10489849Y17505723D01*
X10505913Y17523447D01*
X10523637Y17539511D01*
X10542850Y17553761D01*
X10563367Y17566058D01*
X10584991Y17576286D01*
X10607513Y17584344D01*
X10630717Y17590156D01*
X10654378Y17593666D01*
X10678270Y17594840D01*
X11165770Y17594840D01*
X11189662Y17593666D01*
G37*
G04 #@! TD.AperFunction*
G04 #@! TA.AperFunction,SMDPad,CuDef*
G36*
X9314662Y19793666D02*
G01*
X9338323Y19790156D01*
X9361527Y19784344D01*
X9384049Y19776286D01*
X9405673Y19766058D01*
X9426190Y19753761D01*
X9445403Y19739511D01*
X9463127Y19723447D01*
X9479191Y19705723D01*
X9493441Y19686510D01*
X9505738Y19665993D01*
X9515966Y19644369D01*
X9524024Y19621847D01*
X9529836Y19598643D01*
X9533346Y19574982D01*
X9534520Y19551090D01*
X9534520Y18638590D01*
X9533346Y18614698D01*
X9529836Y18591037D01*
X9524024Y18567833D01*
X9515966Y18545311D01*
X9505738Y18523687D01*
X9493441Y18503170D01*
X9479191Y18483957D01*
X9463127Y18466233D01*
X9445403Y18450169D01*
X9426190Y18435919D01*
X9405673Y18423622D01*
X9384049Y18413394D01*
X9361527Y18405336D01*
X9338323Y18399524D01*
X9314662Y18396014D01*
X9290770Y18394840D01*
X8803270Y18394840D01*
X8779378Y18396014D01*
X8755717Y18399524D01*
X8732513Y18405336D01*
X8709991Y18413394D01*
X8688367Y18423622D01*
X8667850Y18435919D01*
X8648637Y18450169D01*
X8630913Y18466233D01*
X8614849Y18483957D01*
X8600599Y18503170D01*
X8588302Y18523687D01*
X8578074Y18545311D01*
X8570016Y18567833D01*
X8564204Y18591037D01*
X8560694Y18614698D01*
X8559520Y18638590D01*
X8559520Y19551090D01*
X8560694Y19574982D01*
X8564204Y19598643D01*
X8570016Y19621847D01*
X8578074Y19644369D01*
X8588302Y19665993D01*
X8600599Y19686510D01*
X8614849Y19705723D01*
X8630913Y19723447D01*
X8648637Y19739511D01*
X8667850Y19753761D01*
X8688367Y19766058D01*
X8709991Y19776286D01*
X8732513Y19784344D01*
X8755717Y19790156D01*
X8779378Y19793666D01*
X8803270Y19794840D01*
X9290770Y19794840D01*
X9314662Y19793666D01*
G37*
G04 #@! TD.AperFunction*
G04 #@! TA.AperFunction,SMDPad,CuDef*
G36*
X11189662Y19793666D02*
G01*
X11213323Y19790156D01*
X11236527Y19784344D01*
X11259049Y19776286D01*
X11280673Y19766058D01*
X11301190Y19753761D01*
X11320403Y19739511D01*
X11338127Y19723447D01*
X11354191Y19705723D01*
X11368441Y19686510D01*
X11380738Y19665993D01*
X11390966Y19644369D01*
X11399024Y19621847D01*
X11404836Y19598643D01*
X11408346Y19574982D01*
X11409520Y19551090D01*
X11409520Y18638590D01*
X11408346Y18614698D01*
X11404836Y18591037D01*
X11399024Y18567833D01*
X11390966Y18545311D01*
X11380738Y18523687D01*
X11368441Y18503170D01*
X11354191Y18483957D01*
X11338127Y18466233D01*
X11320403Y18450169D01*
X11301190Y18435919D01*
X11280673Y18423622D01*
X11259049Y18413394D01*
X11236527Y18405336D01*
X11213323Y18399524D01*
X11189662Y18396014D01*
X11165770Y18394840D01*
X10678270Y18394840D01*
X10654378Y18396014D01*
X10630717Y18399524D01*
X10607513Y18405336D01*
X10584991Y18413394D01*
X10563367Y18423622D01*
X10542850Y18435919D01*
X10523637Y18450169D01*
X10505913Y18466233D01*
X10489849Y18483957D01*
X10475599Y18503170D01*
X10463302Y18523687D01*
X10453074Y18545311D01*
X10445016Y18567833D01*
X10439204Y18591037D01*
X10435694Y18614698D01*
X10434520Y18638590D01*
X10434520Y19551090D01*
X10435694Y19574982D01*
X10439204Y19598643D01*
X10445016Y19621847D01*
X10453074Y19644369D01*
X10463302Y19665993D01*
X10475599Y19686510D01*
X10489849Y19705723D01*
X10505913Y19723447D01*
X10523637Y19739511D01*
X10542850Y19753761D01*
X10563367Y19766058D01*
X10584991Y19776286D01*
X10607513Y19784344D01*
X10630717Y19790156D01*
X10654378Y19793666D01*
X10678270Y19794840D01*
X11165770Y19794840D01*
X11189662Y19793666D01*
G37*
G04 #@! TD.AperFunction*
D10*
X6324520Y6994840D03*
X3784520Y6994840D03*
X6324520Y9534840D03*
X3784520Y9534840D03*
X6324520Y12074840D03*
X3784520Y12074840D03*
X6324520Y14614840D03*
X3784520Y14614840D03*
X6324520Y17154840D03*
X3784520Y17154840D03*
X6324520Y19694840D03*
D11*
X3784520Y19694840D03*
G04 #@! TA.AperFunction,SMDPad,CuDef*
D12*
G36*
X19299223Y9549118D02*
G01*
X19313784Y9546958D01*
X19328063Y9543381D01*
X19341923Y9538422D01*
X19355230Y9532128D01*
X19367856Y9524560D01*
X19379679Y9515792D01*
X19390586Y9505906D01*
X19400472Y9494999D01*
X19409240Y9483176D01*
X19416808Y9470550D01*
X19423102Y9457243D01*
X19428061Y9443383D01*
X19431638Y9429104D01*
X19433798Y9414543D01*
X19434520Y9399840D01*
X19434520Y9099840D01*
X19433798Y9085137D01*
X19431638Y9070576D01*
X19428061Y9056297D01*
X19423102Y9042437D01*
X19416808Y9029130D01*
X19409240Y9016504D01*
X19400472Y9004681D01*
X19390586Y8993774D01*
X19379679Y8983888D01*
X19367856Y8975120D01*
X19355230Y8967552D01*
X19341923Y8961258D01*
X19328063Y8956299D01*
X19313784Y8952722D01*
X19299223Y8950562D01*
X19284520Y8949840D01*
X17634520Y8949840D01*
X17619817Y8950562D01*
X17605256Y8952722D01*
X17590977Y8956299D01*
X17577117Y8961258D01*
X17563810Y8967552D01*
X17551184Y8975120D01*
X17539361Y8983888D01*
X17528454Y8993774D01*
X17518568Y9004681D01*
X17509800Y9016504D01*
X17502232Y9029130D01*
X17495938Y9042437D01*
X17490979Y9056297D01*
X17487402Y9070576D01*
X17485242Y9085137D01*
X17484520Y9099840D01*
X17484520Y9399840D01*
X17485242Y9414543D01*
X17487402Y9429104D01*
X17490979Y9443383D01*
X17495938Y9457243D01*
X17502232Y9470550D01*
X17509800Y9483176D01*
X17518568Y9494999D01*
X17528454Y9505906D01*
X17539361Y9515792D01*
X17551184Y9524560D01*
X17563810Y9532128D01*
X17577117Y9538422D01*
X17590977Y9543381D01*
X17605256Y9546958D01*
X17619817Y9549118D01*
X17634520Y9549840D01*
X19284520Y9549840D01*
X19299223Y9549118D01*
G37*
G04 #@! TD.AperFunction*
G04 #@! TA.AperFunction,SMDPad,CuDef*
G36*
X19299223Y8279118D02*
G01*
X19313784Y8276958D01*
X19328063Y8273381D01*
X19341923Y8268422D01*
X19355230Y8262128D01*
X19367856Y8254560D01*
X19379679Y8245792D01*
X19390586Y8235906D01*
X19400472Y8224999D01*
X19409240Y8213176D01*
X19416808Y8200550D01*
X19423102Y8187243D01*
X19428061Y8173383D01*
X19431638Y8159104D01*
X19433798Y8144543D01*
X19434520Y8129840D01*
X19434520Y7829840D01*
X19433798Y7815137D01*
X19431638Y7800576D01*
X19428061Y7786297D01*
X19423102Y7772437D01*
X19416808Y7759130D01*
X19409240Y7746504D01*
X19400472Y7734681D01*
X19390586Y7723774D01*
X19379679Y7713888D01*
X19367856Y7705120D01*
X19355230Y7697552D01*
X19341923Y7691258D01*
X19328063Y7686299D01*
X19313784Y7682722D01*
X19299223Y7680562D01*
X19284520Y7679840D01*
X17634520Y7679840D01*
X17619817Y7680562D01*
X17605256Y7682722D01*
X17590977Y7686299D01*
X17577117Y7691258D01*
X17563810Y7697552D01*
X17551184Y7705120D01*
X17539361Y7713888D01*
X17528454Y7723774D01*
X17518568Y7734681D01*
X17509800Y7746504D01*
X17502232Y7759130D01*
X17495938Y7772437D01*
X17490979Y7786297D01*
X17487402Y7800576D01*
X17485242Y7815137D01*
X17484520Y7829840D01*
X17484520Y8129840D01*
X17485242Y8144543D01*
X17487402Y8159104D01*
X17490979Y8173383D01*
X17495938Y8187243D01*
X17502232Y8200550D01*
X17509800Y8213176D01*
X17518568Y8224999D01*
X17528454Y8235906D01*
X17539361Y8245792D01*
X17551184Y8254560D01*
X17563810Y8262128D01*
X17577117Y8268422D01*
X17590977Y8273381D01*
X17605256Y8276958D01*
X17619817Y8279118D01*
X17634520Y8279840D01*
X19284520Y8279840D01*
X19299223Y8279118D01*
G37*
G04 #@! TD.AperFunction*
G04 #@! TA.AperFunction,SMDPad,CuDef*
G36*
X19299223Y7009118D02*
G01*
X19313784Y7006958D01*
X19328063Y7003381D01*
X19341923Y6998422D01*
X19355230Y6992128D01*
X19367856Y6984560D01*
X19379679Y6975792D01*
X19390586Y6965906D01*
X19400472Y6954999D01*
X19409240Y6943176D01*
X19416808Y6930550D01*
X19423102Y6917243D01*
X19428061Y6903383D01*
X19431638Y6889104D01*
X19433798Y6874543D01*
X19434520Y6859840D01*
X19434520Y6559840D01*
X19433798Y6545137D01*
X19431638Y6530576D01*
X19428061Y6516297D01*
X19423102Y6502437D01*
X19416808Y6489130D01*
X19409240Y6476504D01*
X19400472Y6464681D01*
X19390586Y6453774D01*
X19379679Y6443888D01*
X19367856Y6435120D01*
X19355230Y6427552D01*
X19341923Y6421258D01*
X19328063Y6416299D01*
X19313784Y6412722D01*
X19299223Y6410562D01*
X19284520Y6409840D01*
X17634520Y6409840D01*
X17619817Y6410562D01*
X17605256Y6412722D01*
X17590977Y6416299D01*
X17577117Y6421258D01*
X17563810Y6427552D01*
X17551184Y6435120D01*
X17539361Y6443888D01*
X17528454Y6453774D01*
X17518568Y6464681D01*
X17509800Y6476504D01*
X17502232Y6489130D01*
X17495938Y6502437D01*
X17490979Y6516297D01*
X17487402Y6530576D01*
X17485242Y6545137D01*
X17484520Y6559840D01*
X17484520Y6859840D01*
X17485242Y6874543D01*
X17487402Y6889104D01*
X17490979Y6903383D01*
X17495938Y6917243D01*
X17502232Y6930550D01*
X17509800Y6943176D01*
X17518568Y6954999D01*
X17528454Y6965906D01*
X17539361Y6975792D01*
X17551184Y6984560D01*
X17563810Y6992128D01*
X17577117Y6998422D01*
X17590977Y7003381D01*
X17605256Y7006958D01*
X17619817Y7009118D01*
X17634520Y7009840D01*
X19284520Y7009840D01*
X19299223Y7009118D01*
G37*
G04 #@! TD.AperFunction*
G04 #@! TA.AperFunction,SMDPad,CuDef*
G36*
X19299223Y5739118D02*
G01*
X19313784Y5736958D01*
X19328063Y5733381D01*
X19341923Y5728422D01*
X19355230Y5722128D01*
X19367856Y5714560D01*
X19379679Y5705792D01*
X19390586Y5695906D01*
X19400472Y5684999D01*
X19409240Y5673176D01*
X19416808Y5660550D01*
X19423102Y5647243D01*
X19428061Y5633383D01*
X19431638Y5619104D01*
X19433798Y5604543D01*
X19434520Y5589840D01*
X19434520Y5289840D01*
X19433798Y5275137D01*
X19431638Y5260576D01*
X19428061Y5246297D01*
X19423102Y5232437D01*
X19416808Y5219130D01*
X19409240Y5206504D01*
X19400472Y5194681D01*
X19390586Y5183774D01*
X19379679Y5173888D01*
X19367856Y5165120D01*
X19355230Y5157552D01*
X19341923Y5151258D01*
X19328063Y5146299D01*
X19313784Y5142722D01*
X19299223Y5140562D01*
X19284520Y5139840D01*
X17634520Y5139840D01*
X17619817Y5140562D01*
X17605256Y5142722D01*
X17590977Y5146299D01*
X17577117Y5151258D01*
X17563810Y5157552D01*
X17551184Y5165120D01*
X17539361Y5173888D01*
X17528454Y5183774D01*
X17518568Y5194681D01*
X17509800Y5206504D01*
X17502232Y5219130D01*
X17495938Y5232437D01*
X17490979Y5246297D01*
X17487402Y5260576D01*
X17485242Y5275137D01*
X17484520Y5289840D01*
X17484520Y5589840D01*
X17485242Y5604543D01*
X17487402Y5619104D01*
X17490979Y5633383D01*
X17495938Y5647243D01*
X17502232Y5660550D01*
X17509800Y5673176D01*
X17518568Y5684999D01*
X17528454Y5695906D01*
X17539361Y5705792D01*
X17551184Y5714560D01*
X17563810Y5722128D01*
X17577117Y5728422D01*
X17590977Y5733381D01*
X17605256Y5736958D01*
X17619817Y5739118D01*
X17634520Y5739840D01*
X19284520Y5739840D01*
X19299223Y5739118D01*
G37*
G04 #@! TD.AperFunction*
G04 #@! TA.AperFunction,SMDPad,CuDef*
G36*
X14349223Y5739118D02*
G01*
X14363784Y5736958D01*
X14378063Y5733381D01*
X14391923Y5728422D01*
X14405230Y5722128D01*
X14417856Y5714560D01*
X14429679Y5705792D01*
X14440586Y5695906D01*
X14450472Y5684999D01*
X14459240Y5673176D01*
X14466808Y5660550D01*
X14473102Y5647243D01*
X14478061Y5633383D01*
X14481638Y5619104D01*
X14483798Y5604543D01*
X14484520Y5589840D01*
X14484520Y5289840D01*
X14483798Y5275137D01*
X14481638Y5260576D01*
X14478061Y5246297D01*
X14473102Y5232437D01*
X14466808Y5219130D01*
X14459240Y5206504D01*
X14450472Y5194681D01*
X14440586Y5183774D01*
X14429679Y5173888D01*
X14417856Y5165120D01*
X14405230Y5157552D01*
X14391923Y5151258D01*
X14378063Y5146299D01*
X14363784Y5142722D01*
X14349223Y5140562D01*
X14334520Y5139840D01*
X12684520Y5139840D01*
X12669817Y5140562D01*
X12655256Y5142722D01*
X12640977Y5146299D01*
X12627117Y5151258D01*
X12613810Y5157552D01*
X12601184Y5165120D01*
X12589361Y5173888D01*
X12578454Y5183774D01*
X12568568Y5194681D01*
X12559800Y5206504D01*
X12552232Y5219130D01*
X12545938Y5232437D01*
X12540979Y5246297D01*
X12537402Y5260576D01*
X12535242Y5275137D01*
X12534520Y5289840D01*
X12534520Y5589840D01*
X12535242Y5604543D01*
X12537402Y5619104D01*
X12540979Y5633383D01*
X12545938Y5647243D01*
X12552232Y5660550D01*
X12559800Y5673176D01*
X12568568Y5684999D01*
X12578454Y5695906D01*
X12589361Y5705792D01*
X12601184Y5714560D01*
X12613810Y5722128D01*
X12627117Y5728422D01*
X12640977Y5733381D01*
X12655256Y5736958D01*
X12669817Y5739118D01*
X12684520Y5739840D01*
X14334520Y5739840D01*
X14349223Y5739118D01*
G37*
G04 #@! TD.AperFunction*
G04 #@! TA.AperFunction,SMDPad,CuDef*
G36*
X14349223Y7009118D02*
G01*
X14363784Y7006958D01*
X14378063Y7003381D01*
X14391923Y6998422D01*
X14405230Y6992128D01*
X14417856Y6984560D01*
X14429679Y6975792D01*
X14440586Y6965906D01*
X14450472Y6954999D01*
X14459240Y6943176D01*
X14466808Y6930550D01*
X14473102Y6917243D01*
X14478061Y6903383D01*
X14481638Y6889104D01*
X14483798Y6874543D01*
X14484520Y6859840D01*
X14484520Y6559840D01*
X14483798Y6545137D01*
X14481638Y6530576D01*
X14478061Y6516297D01*
X14473102Y6502437D01*
X14466808Y6489130D01*
X14459240Y6476504D01*
X14450472Y6464681D01*
X14440586Y6453774D01*
X14429679Y6443888D01*
X14417856Y6435120D01*
X14405230Y6427552D01*
X14391923Y6421258D01*
X14378063Y6416299D01*
X14363784Y6412722D01*
X14349223Y6410562D01*
X14334520Y6409840D01*
X12684520Y6409840D01*
X12669817Y6410562D01*
X12655256Y6412722D01*
X12640977Y6416299D01*
X12627117Y6421258D01*
X12613810Y6427552D01*
X12601184Y6435120D01*
X12589361Y6443888D01*
X12578454Y6453774D01*
X12568568Y6464681D01*
X12559800Y6476504D01*
X12552232Y6489130D01*
X12545938Y6502437D01*
X12540979Y6516297D01*
X12537402Y6530576D01*
X12535242Y6545137D01*
X12534520Y6559840D01*
X12534520Y6859840D01*
X12535242Y6874543D01*
X12537402Y6889104D01*
X12540979Y6903383D01*
X12545938Y6917243D01*
X12552232Y6930550D01*
X12559800Y6943176D01*
X12568568Y6954999D01*
X12578454Y6965906D01*
X12589361Y6975792D01*
X12601184Y6984560D01*
X12613810Y6992128D01*
X12627117Y6998422D01*
X12640977Y7003381D01*
X12655256Y7006958D01*
X12669817Y7009118D01*
X12684520Y7009840D01*
X14334520Y7009840D01*
X14349223Y7009118D01*
G37*
G04 #@! TD.AperFunction*
G04 #@! TA.AperFunction,SMDPad,CuDef*
G36*
X14349223Y8279118D02*
G01*
X14363784Y8276958D01*
X14378063Y8273381D01*
X14391923Y8268422D01*
X14405230Y8262128D01*
X14417856Y8254560D01*
X14429679Y8245792D01*
X14440586Y8235906D01*
X14450472Y8224999D01*
X14459240Y8213176D01*
X14466808Y8200550D01*
X14473102Y8187243D01*
X14478061Y8173383D01*
X14481638Y8159104D01*
X14483798Y8144543D01*
X14484520Y8129840D01*
X14484520Y7829840D01*
X14483798Y7815137D01*
X14481638Y7800576D01*
X14478061Y7786297D01*
X14473102Y7772437D01*
X14466808Y7759130D01*
X14459240Y7746504D01*
X14450472Y7734681D01*
X14440586Y7723774D01*
X14429679Y7713888D01*
X14417856Y7705120D01*
X14405230Y7697552D01*
X14391923Y7691258D01*
X14378063Y7686299D01*
X14363784Y7682722D01*
X14349223Y7680562D01*
X14334520Y7679840D01*
X12684520Y7679840D01*
X12669817Y7680562D01*
X12655256Y7682722D01*
X12640977Y7686299D01*
X12627117Y7691258D01*
X12613810Y7697552D01*
X12601184Y7705120D01*
X12589361Y7713888D01*
X12578454Y7723774D01*
X12568568Y7734681D01*
X12559800Y7746504D01*
X12552232Y7759130D01*
X12545938Y7772437D01*
X12540979Y7786297D01*
X12537402Y7800576D01*
X12535242Y7815137D01*
X12534520Y7829840D01*
X12534520Y8129840D01*
X12535242Y8144543D01*
X12537402Y8159104D01*
X12540979Y8173383D01*
X12545938Y8187243D01*
X12552232Y8200550D01*
X12559800Y8213176D01*
X12568568Y8224999D01*
X12578454Y8235906D01*
X12589361Y8245792D01*
X12601184Y8254560D01*
X12613810Y8262128D01*
X12627117Y8268422D01*
X12640977Y8273381D01*
X12655256Y8276958D01*
X12669817Y8279118D01*
X12684520Y8279840D01*
X14334520Y8279840D01*
X14349223Y8279118D01*
G37*
G04 #@! TD.AperFunction*
G04 #@! TA.AperFunction,SMDPad,CuDef*
G36*
X14349223Y9549118D02*
G01*
X14363784Y9546958D01*
X14378063Y9543381D01*
X14391923Y9538422D01*
X14405230Y9532128D01*
X14417856Y9524560D01*
X14429679Y9515792D01*
X14440586Y9505906D01*
X14450472Y9494999D01*
X14459240Y9483176D01*
X14466808Y9470550D01*
X14473102Y9457243D01*
X14478061Y9443383D01*
X14481638Y9429104D01*
X14483798Y9414543D01*
X14484520Y9399840D01*
X14484520Y9099840D01*
X14483798Y9085137D01*
X14481638Y9070576D01*
X14478061Y9056297D01*
X14473102Y9042437D01*
X14466808Y9029130D01*
X14459240Y9016504D01*
X14450472Y9004681D01*
X14440586Y8993774D01*
X14429679Y8983888D01*
X14417856Y8975120D01*
X14405230Y8967552D01*
X14391923Y8961258D01*
X14378063Y8956299D01*
X14363784Y8952722D01*
X14349223Y8950562D01*
X14334520Y8949840D01*
X12684520Y8949840D01*
X12669817Y8950562D01*
X12655256Y8952722D01*
X12640977Y8956299D01*
X12627117Y8961258D01*
X12613810Y8967552D01*
X12601184Y8975120D01*
X12589361Y8983888D01*
X12578454Y8993774D01*
X12568568Y9004681D01*
X12559800Y9016504D01*
X12552232Y9029130D01*
X12545938Y9042437D01*
X12540979Y9056297D01*
X12537402Y9070576D01*
X12535242Y9085137D01*
X12534520Y9099840D01*
X12534520Y9399840D01*
X12535242Y9414543D01*
X12537402Y9429104D01*
X12540979Y9443383D01*
X12545938Y9457243D01*
X12552232Y9470550D01*
X12559800Y9483176D01*
X12568568Y9494999D01*
X12578454Y9505906D01*
X12589361Y9515792D01*
X12601184Y9524560D01*
X12613810Y9532128D01*
X12627117Y9538422D01*
X12640977Y9543381D01*
X12655256Y9546958D01*
X12669817Y9549118D01*
X12684520Y9549840D01*
X14334520Y9549840D01*
X14349223Y9549118D01*
G37*
G04 #@! TD.AperFunction*
G04 #@! TA.AperFunction,SMDPad,CuDef*
G36*
X19299223Y19849118D02*
G01*
X19313784Y19846958D01*
X19328063Y19843381D01*
X19341923Y19838422D01*
X19355230Y19832128D01*
X19367856Y19824560D01*
X19379679Y19815792D01*
X19390586Y19805906D01*
X19400472Y19794999D01*
X19409240Y19783176D01*
X19416808Y19770550D01*
X19423102Y19757243D01*
X19428061Y19743383D01*
X19431638Y19729104D01*
X19433798Y19714543D01*
X19434520Y19699840D01*
X19434520Y19399840D01*
X19433798Y19385137D01*
X19431638Y19370576D01*
X19428061Y19356297D01*
X19423102Y19342437D01*
X19416808Y19329130D01*
X19409240Y19316504D01*
X19400472Y19304681D01*
X19390586Y19293774D01*
X19379679Y19283888D01*
X19367856Y19275120D01*
X19355230Y19267552D01*
X19341923Y19261258D01*
X19328063Y19256299D01*
X19313784Y19252722D01*
X19299223Y19250562D01*
X19284520Y19249840D01*
X17634520Y19249840D01*
X17619817Y19250562D01*
X17605256Y19252722D01*
X17590977Y19256299D01*
X17577117Y19261258D01*
X17563810Y19267552D01*
X17551184Y19275120D01*
X17539361Y19283888D01*
X17528454Y19293774D01*
X17518568Y19304681D01*
X17509800Y19316504D01*
X17502232Y19329130D01*
X17495938Y19342437D01*
X17490979Y19356297D01*
X17487402Y19370576D01*
X17485242Y19385137D01*
X17484520Y19399840D01*
X17484520Y19699840D01*
X17485242Y19714543D01*
X17487402Y19729104D01*
X17490979Y19743383D01*
X17495938Y19757243D01*
X17502232Y19770550D01*
X17509800Y19783176D01*
X17518568Y19794999D01*
X17528454Y19805906D01*
X17539361Y19815792D01*
X17551184Y19824560D01*
X17563810Y19832128D01*
X17577117Y19838422D01*
X17590977Y19843381D01*
X17605256Y19846958D01*
X17619817Y19849118D01*
X17634520Y19849840D01*
X19284520Y19849840D01*
X19299223Y19849118D01*
G37*
G04 #@! TD.AperFunction*
G04 #@! TA.AperFunction,SMDPad,CuDef*
G36*
X19299223Y18579118D02*
G01*
X19313784Y18576958D01*
X19328063Y18573381D01*
X19341923Y18568422D01*
X19355230Y18562128D01*
X19367856Y18554560D01*
X19379679Y18545792D01*
X19390586Y18535906D01*
X19400472Y18524999D01*
X19409240Y18513176D01*
X19416808Y18500550D01*
X19423102Y18487243D01*
X19428061Y18473383D01*
X19431638Y18459104D01*
X19433798Y18444543D01*
X19434520Y18429840D01*
X19434520Y18129840D01*
X19433798Y18115137D01*
X19431638Y18100576D01*
X19428061Y18086297D01*
X19423102Y18072437D01*
X19416808Y18059130D01*
X19409240Y18046504D01*
X19400472Y18034681D01*
X19390586Y18023774D01*
X19379679Y18013888D01*
X19367856Y18005120D01*
X19355230Y17997552D01*
X19341923Y17991258D01*
X19328063Y17986299D01*
X19313784Y17982722D01*
X19299223Y17980562D01*
X19284520Y17979840D01*
X17634520Y17979840D01*
X17619817Y17980562D01*
X17605256Y17982722D01*
X17590977Y17986299D01*
X17577117Y17991258D01*
X17563810Y17997552D01*
X17551184Y18005120D01*
X17539361Y18013888D01*
X17528454Y18023774D01*
X17518568Y18034681D01*
X17509800Y18046504D01*
X17502232Y18059130D01*
X17495938Y18072437D01*
X17490979Y18086297D01*
X17487402Y18100576D01*
X17485242Y18115137D01*
X17484520Y18129840D01*
X17484520Y18429840D01*
X17485242Y18444543D01*
X17487402Y18459104D01*
X17490979Y18473383D01*
X17495938Y18487243D01*
X17502232Y18500550D01*
X17509800Y18513176D01*
X17518568Y18524999D01*
X17528454Y18535906D01*
X17539361Y18545792D01*
X17551184Y18554560D01*
X17563810Y18562128D01*
X17577117Y18568422D01*
X17590977Y18573381D01*
X17605256Y18576958D01*
X17619817Y18579118D01*
X17634520Y18579840D01*
X19284520Y18579840D01*
X19299223Y18579118D01*
G37*
G04 #@! TD.AperFunction*
G04 #@! TA.AperFunction,SMDPad,CuDef*
G36*
X19299223Y17309118D02*
G01*
X19313784Y17306958D01*
X19328063Y17303381D01*
X19341923Y17298422D01*
X19355230Y17292128D01*
X19367856Y17284560D01*
X19379679Y17275792D01*
X19390586Y17265906D01*
X19400472Y17254999D01*
X19409240Y17243176D01*
X19416808Y17230550D01*
X19423102Y17217243D01*
X19428061Y17203383D01*
X19431638Y17189104D01*
X19433798Y17174543D01*
X19434520Y17159840D01*
X19434520Y16859840D01*
X19433798Y16845137D01*
X19431638Y16830576D01*
X19428061Y16816297D01*
X19423102Y16802437D01*
X19416808Y16789130D01*
X19409240Y16776504D01*
X19400472Y16764681D01*
X19390586Y16753774D01*
X19379679Y16743888D01*
X19367856Y16735120D01*
X19355230Y16727552D01*
X19341923Y16721258D01*
X19328063Y16716299D01*
X19313784Y16712722D01*
X19299223Y16710562D01*
X19284520Y16709840D01*
X17634520Y16709840D01*
X17619817Y16710562D01*
X17605256Y16712722D01*
X17590977Y16716299D01*
X17577117Y16721258D01*
X17563810Y16727552D01*
X17551184Y16735120D01*
X17539361Y16743888D01*
X17528454Y16753774D01*
X17518568Y16764681D01*
X17509800Y16776504D01*
X17502232Y16789130D01*
X17495938Y16802437D01*
X17490979Y16816297D01*
X17487402Y16830576D01*
X17485242Y16845137D01*
X17484520Y16859840D01*
X17484520Y17159840D01*
X17485242Y17174543D01*
X17487402Y17189104D01*
X17490979Y17203383D01*
X17495938Y17217243D01*
X17502232Y17230550D01*
X17509800Y17243176D01*
X17518568Y17254999D01*
X17528454Y17265906D01*
X17539361Y17275792D01*
X17551184Y17284560D01*
X17563810Y17292128D01*
X17577117Y17298422D01*
X17590977Y17303381D01*
X17605256Y17306958D01*
X17619817Y17309118D01*
X17634520Y17309840D01*
X19284520Y17309840D01*
X19299223Y17309118D01*
G37*
G04 #@! TD.AperFunction*
G04 #@! TA.AperFunction,SMDPad,CuDef*
G36*
X19299223Y16039118D02*
G01*
X19313784Y16036958D01*
X19328063Y16033381D01*
X19341923Y16028422D01*
X19355230Y16022128D01*
X19367856Y16014560D01*
X19379679Y16005792D01*
X19390586Y15995906D01*
X19400472Y15984999D01*
X19409240Y15973176D01*
X19416808Y15960550D01*
X19423102Y15947243D01*
X19428061Y15933383D01*
X19431638Y15919104D01*
X19433798Y15904543D01*
X19434520Y15889840D01*
X19434520Y15589840D01*
X19433798Y15575137D01*
X19431638Y15560576D01*
X19428061Y15546297D01*
X19423102Y15532437D01*
X19416808Y15519130D01*
X19409240Y15506504D01*
X19400472Y15494681D01*
X19390586Y15483774D01*
X19379679Y15473888D01*
X19367856Y15465120D01*
X19355230Y15457552D01*
X19341923Y15451258D01*
X19328063Y15446299D01*
X19313784Y15442722D01*
X19299223Y15440562D01*
X19284520Y15439840D01*
X17634520Y15439840D01*
X17619817Y15440562D01*
X17605256Y15442722D01*
X17590977Y15446299D01*
X17577117Y15451258D01*
X17563810Y15457552D01*
X17551184Y15465120D01*
X17539361Y15473888D01*
X17528454Y15483774D01*
X17518568Y15494681D01*
X17509800Y15506504D01*
X17502232Y15519130D01*
X17495938Y15532437D01*
X17490979Y15546297D01*
X17487402Y15560576D01*
X17485242Y15575137D01*
X17484520Y15589840D01*
X17484520Y15889840D01*
X17485242Y15904543D01*
X17487402Y15919104D01*
X17490979Y15933383D01*
X17495938Y15947243D01*
X17502232Y15960550D01*
X17509800Y15973176D01*
X17518568Y15984999D01*
X17528454Y15995906D01*
X17539361Y16005792D01*
X17551184Y16014560D01*
X17563810Y16022128D01*
X17577117Y16028422D01*
X17590977Y16033381D01*
X17605256Y16036958D01*
X17619817Y16039118D01*
X17634520Y16039840D01*
X19284520Y16039840D01*
X19299223Y16039118D01*
G37*
G04 #@! TD.AperFunction*
G04 #@! TA.AperFunction,SMDPad,CuDef*
G36*
X14349223Y16039118D02*
G01*
X14363784Y16036958D01*
X14378063Y16033381D01*
X14391923Y16028422D01*
X14405230Y16022128D01*
X14417856Y16014560D01*
X14429679Y16005792D01*
X14440586Y15995906D01*
X14450472Y15984999D01*
X14459240Y15973176D01*
X14466808Y15960550D01*
X14473102Y15947243D01*
X14478061Y15933383D01*
X14481638Y15919104D01*
X14483798Y15904543D01*
X14484520Y15889840D01*
X14484520Y15589840D01*
X14483798Y15575137D01*
X14481638Y15560576D01*
X14478061Y15546297D01*
X14473102Y15532437D01*
X14466808Y15519130D01*
X14459240Y15506504D01*
X14450472Y15494681D01*
X14440586Y15483774D01*
X14429679Y15473888D01*
X14417856Y15465120D01*
X14405230Y15457552D01*
X14391923Y15451258D01*
X14378063Y15446299D01*
X14363784Y15442722D01*
X14349223Y15440562D01*
X14334520Y15439840D01*
X12684520Y15439840D01*
X12669817Y15440562D01*
X12655256Y15442722D01*
X12640977Y15446299D01*
X12627117Y15451258D01*
X12613810Y15457552D01*
X12601184Y15465120D01*
X12589361Y15473888D01*
X12578454Y15483774D01*
X12568568Y15494681D01*
X12559800Y15506504D01*
X12552232Y15519130D01*
X12545938Y15532437D01*
X12540979Y15546297D01*
X12537402Y15560576D01*
X12535242Y15575137D01*
X12534520Y15589840D01*
X12534520Y15889840D01*
X12535242Y15904543D01*
X12537402Y15919104D01*
X12540979Y15933383D01*
X12545938Y15947243D01*
X12552232Y15960550D01*
X12559800Y15973176D01*
X12568568Y15984999D01*
X12578454Y15995906D01*
X12589361Y16005792D01*
X12601184Y16014560D01*
X12613810Y16022128D01*
X12627117Y16028422D01*
X12640977Y16033381D01*
X12655256Y16036958D01*
X12669817Y16039118D01*
X12684520Y16039840D01*
X14334520Y16039840D01*
X14349223Y16039118D01*
G37*
G04 #@! TD.AperFunction*
G04 #@! TA.AperFunction,SMDPad,CuDef*
G36*
X14349223Y17309118D02*
G01*
X14363784Y17306958D01*
X14378063Y17303381D01*
X14391923Y17298422D01*
X14405230Y17292128D01*
X14417856Y17284560D01*
X14429679Y17275792D01*
X14440586Y17265906D01*
X14450472Y17254999D01*
X14459240Y17243176D01*
X14466808Y17230550D01*
X14473102Y17217243D01*
X14478061Y17203383D01*
X14481638Y17189104D01*
X14483798Y17174543D01*
X14484520Y17159840D01*
X14484520Y16859840D01*
X14483798Y16845137D01*
X14481638Y16830576D01*
X14478061Y16816297D01*
X14473102Y16802437D01*
X14466808Y16789130D01*
X14459240Y16776504D01*
X14450472Y16764681D01*
X14440586Y16753774D01*
X14429679Y16743888D01*
X14417856Y16735120D01*
X14405230Y16727552D01*
X14391923Y16721258D01*
X14378063Y16716299D01*
X14363784Y16712722D01*
X14349223Y16710562D01*
X14334520Y16709840D01*
X12684520Y16709840D01*
X12669817Y16710562D01*
X12655256Y16712722D01*
X12640977Y16716299D01*
X12627117Y16721258D01*
X12613810Y16727552D01*
X12601184Y16735120D01*
X12589361Y16743888D01*
X12578454Y16753774D01*
X12568568Y16764681D01*
X12559800Y16776504D01*
X12552232Y16789130D01*
X12545938Y16802437D01*
X12540979Y16816297D01*
X12537402Y16830576D01*
X12535242Y16845137D01*
X12534520Y16859840D01*
X12534520Y17159840D01*
X12535242Y17174543D01*
X12537402Y17189104D01*
X12540979Y17203383D01*
X12545938Y17217243D01*
X12552232Y17230550D01*
X12559800Y17243176D01*
X12568568Y17254999D01*
X12578454Y17265906D01*
X12589361Y17275792D01*
X12601184Y17284560D01*
X12613810Y17292128D01*
X12627117Y17298422D01*
X12640977Y17303381D01*
X12655256Y17306958D01*
X12669817Y17309118D01*
X12684520Y17309840D01*
X14334520Y17309840D01*
X14349223Y17309118D01*
G37*
G04 #@! TD.AperFunction*
G04 #@! TA.AperFunction,SMDPad,CuDef*
G36*
X14349223Y18579118D02*
G01*
X14363784Y18576958D01*
X14378063Y18573381D01*
X14391923Y18568422D01*
X14405230Y18562128D01*
X14417856Y18554560D01*
X14429679Y18545792D01*
X14440586Y18535906D01*
X14450472Y18524999D01*
X14459240Y18513176D01*
X14466808Y18500550D01*
X14473102Y18487243D01*
X14478061Y18473383D01*
X14481638Y18459104D01*
X14483798Y18444543D01*
X14484520Y18429840D01*
X14484520Y18129840D01*
X14483798Y18115137D01*
X14481638Y18100576D01*
X14478061Y18086297D01*
X14473102Y18072437D01*
X14466808Y18059130D01*
X14459240Y18046504D01*
X14450472Y18034681D01*
X14440586Y18023774D01*
X14429679Y18013888D01*
X14417856Y18005120D01*
X14405230Y17997552D01*
X14391923Y17991258D01*
X14378063Y17986299D01*
X14363784Y17982722D01*
X14349223Y17980562D01*
X14334520Y17979840D01*
X12684520Y17979840D01*
X12669817Y17980562D01*
X12655256Y17982722D01*
X12640977Y17986299D01*
X12627117Y17991258D01*
X12613810Y17997552D01*
X12601184Y18005120D01*
X12589361Y18013888D01*
X12578454Y18023774D01*
X12568568Y18034681D01*
X12559800Y18046504D01*
X12552232Y18059130D01*
X12545938Y18072437D01*
X12540979Y18086297D01*
X12537402Y18100576D01*
X12535242Y18115137D01*
X12534520Y18129840D01*
X12534520Y18429840D01*
X12535242Y18444543D01*
X12537402Y18459104D01*
X12540979Y18473383D01*
X12545938Y18487243D01*
X12552232Y18500550D01*
X12559800Y18513176D01*
X12568568Y18524999D01*
X12578454Y18535906D01*
X12589361Y18545792D01*
X12601184Y18554560D01*
X12613810Y18562128D01*
X12627117Y18568422D01*
X12640977Y18573381D01*
X12655256Y18576958D01*
X12669817Y18579118D01*
X12684520Y18579840D01*
X14334520Y18579840D01*
X14349223Y18579118D01*
G37*
G04 #@! TD.AperFunction*
G04 #@! TA.AperFunction,SMDPad,CuDef*
G36*
X14349223Y19849118D02*
G01*
X14363784Y19846958D01*
X14378063Y19843381D01*
X14391923Y19838422D01*
X14405230Y19832128D01*
X14417856Y19824560D01*
X14429679Y19815792D01*
X14440586Y19805906D01*
X14450472Y19794999D01*
X14459240Y19783176D01*
X14466808Y19770550D01*
X14473102Y19757243D01*
X14478061Y19743383D01*
X14481638Y19729104D01*
X14483798Y19714543D01*
X14484520Y19699840D01*
X14484520Y19399840D01*
X14483798Y19385137D01*
X14481638Y19370576D01*
X14478061Y19356297D01*
X14473102Y19342437D01*
X14466808Y19329130D01*
X14459240Y19316504D01*
X14450472Y19304681D01*
X14440586Y19293774D01*
X14429679Y19283888D01*
X14417856Y19275120D01*
X14405230Y19267552D01*
X14391923Y19261258D01*
X14378063Y19256299D01*
X14363784Y19252722D01*
X14349223Y19250562D01*
X14334520Y19249840D01*
X12684520Y19249840D01*
X12669817Y19250562D01*
X12655256Y19252722D01*
X12640977Y19256299D01*
X12627117Y19261258D01*
X12613810Y19267552D01*
X12601184Y19275120D01*
X12589361Y19283888D01*
X12578454Y19293774D01*
X12568568Y19304681D01*
X12559800Y19316504D01*
X12552232Y19329130D01*
X12545938Y19342437D01*
X12540979Y19356297D01*
X12537402Y19370576D01*
X12535242Y19385137D01*
X12534520Y19399840D01*
X12534520Y19699840D01*
X12535242Y19714543D01*
X12537402Y19729104D01*
X12540979Y19743383D01*
X12545938Y19757243D01*
X12552232Y19770550D01*
X12559800Y19783176D01*
X12568568Y19794999D01*
X12578454Y19805906D01*
X12589361Y19815792D01*
X12601184Y19824560D01*
X12613810Y19832128D01*
X12627117Y19838422D01*
X12640977Y19843381D01*
X12655256Y19846958D01*
X12669817Y19849118D01*
X12684520Y19849840D01*
X14334520Y19849840D01*
X14349223Y19849118D01*
G37*
G04 #@! TD.AperFunction*
G04 #@! TA.AperFunction,SMDPad,CuDef*
G36*
X22039662Y9396166D02*
G01*
X22063323Y9392656D01*
X22086527Y9386844D01*
X22109049Y9378786D01*
X22130673Y9368558D01*
X22151190Y9356261D01*
X22170403Y9342011D01*
X22188127Y9325947D01*
X22204191Y9308223D01*
X22218441Y9289010D01*
X22230738Y9268493D01*
X22240966Y9246869D01*
X22249024Y9224347D01*
X22254836Y9201143D01*
X22258346Y9177482D01*
X22259520Y9153590D01*
X22259520Y8666090D01*
X22258346Y8642198D01*
X22254836Y8618537D01*
X22249024Y8595333D01*
X22240966Y8572811D01*
X22230738Y8551187D01*
X22218441Y8530670D01*
X22204191Y8511457D01*
X22188127Y8493733D01*
X22170403Y8477669D01*
X22151190Y8463419D01*
X22130673Y8451122D01*
X22109049Y8440894D01*
X22086527Y8432836D01*
X22063323Y8427024D01*
X22039662Y8423514D01*
X22015770Y8422340D01*
X21103270Y8422340D01*
X21079378Y8423514D01*
X21055717Y8427024D01*
X21032513Y8432836D01*
X21009991Y8440894D01*
X20988367Y8451122D01*
X20967850Y8463419D01*
X20948637Y8477669D01*
X20930913Y8493733D01*
X20914849Y8511457D01*
X20900599Y8530670D01*
X20888302Y8551187D01*
X20878074Y8572811D01*
X20870016Y8595333D01*
X20864204Y8618537D01*
X20860694Y8642198D01*
X20859520Y8666090D01*
X20859520Y9153590D01*
X20860694Y9177482D01*
X20864204Y9201143D01*
X20870016Y9224347D01*
X20878074Y9246869D01*
X20888302Y9268493D01*
X20900599Y9289010D01*
X20914849Y9308223D01*
X20930913Y9325947D01*
X20948637Y9342011D01*
X20967850Y9356261D01*
X20988367Y9368558D01*
X21009991Y9378786D01*
X21032513Y9386844D01*
X21055717Y9392656D01*
X21079378Y9396166D01*
X21103270Y9397340D01*
X22015770Y9397340D01*
X22039662Y9396166D01*
G37*
G04 #@! TD.AperFunction*
G04 #@! TA.AperFunction,SMDPad,CuDef*
G36*
X22039662Y11271166D02*
G01*
X22063323Y11267656D01*
X22086527Y11261844D01*
X22109049Y11253786D01*
X22130673Y11243558D01*
X22151190Y11231261D01*
X22170403Y11217011D01*
X22188127Y11200947D01*
X22204191Y11183223D01*
X22218441Y11164010D01*
X22230738Y11143493D01*
X22240966Y11121869D01*
X22249024Y11099347D01*
X22254836Y11076143D01*
X22258346Y11052482D01*
X22259520Y11028590D01*
X22259520Y10541090D01*
X22258346Y10517198D01*
X22254836Y10493537D01*
X22249024Y10470333D01*
X22240966Y10447811D01*
X22230738Y10426187D01*
X22218441Y10405670D01*
X22204191Y10386457D01*
X22188127Y10368733D01*
X22170403Y10352669D01*
X22151190Y10338419D01*
X22130673Y10326122D01*
X22109049Y10315894D01*
X22086527Y10307836D01*
X22063323Y10302024D01*
X22039662Y10298514D01*
X22015770Y10297340D01*
X21103270Y10297340D01*
X21079378Y10298514D01*
X21055717Y10302024D01*
X21032513Y10307836D01*
X21009991Y10315894D01*
X20988367Y10326122D01*
X20967850Y10338419D01*
X20948637Y10352669D01*
X20930913Y10368733D01*
X20914849Y10386457D01*
X20900599Y10405670D01*
X20888302Y10426187D01*
X20878074Y10447811D01*
X20870016Y10470333D01*
X20864204Y10493537D01*
X20860694Y10517198D01*
X20859520Y10541090D01*
X20859520Y11028590D01*
X20860694Y11052482D01*
X20864204Y11076143D01*
X20870016Y11099347D01*
X20878074Y11121869D01*
X20888302Y11143493D01*
X20900599Y11164010D01*
X20914849Y11183223D01*
X20930913Y11200947D01*
X20948637Y11217011D01*
X20967850Y11231261D01*
X20988367Y11243558D01*
X21009991Y11253786D01*
X21032513Y11261844D01*
X21055717Y11267656D01*
X21079378Y11271166D01*
X21103270Y11272340D01*
X22015770Y11272340D01*
X22039662Y11271166D01*
G37*
G04 #@! TD.AperFunction*
G04 #@! TA.AperFunction,SMDPad,CuDef*
G36*
X22039662Y19858666D02*
G01*
X22063323Y19855156D01*
X22086527Y19849344D01*
X22109049Y19841286D01*
X22130673Y19831058D01*
X22151190Y19818761D01*
X22170403Y19804511D01*
X22188127Y19788447D01*
X22204191Y19770723D01*
X22218441Y19751510D01*
X22230738Y19730993D01*
X22240966Y19709369D01*
X22249024Y19686847D01*
X22254836Y19663643D01*
X22258346Y19639982D01*
X22259520Y19616090D01*
X22259520Y19128590D01*
X22258346Y19104698D01*
X22254836Y19081037D01*
X22249024Y19057833D01*
X22240966Y19035311D01*
X22230738Y19013687D01*
X22218441Y18993170D01*
X22204191Y18973957D01*
X22188127Y18956233D01*
X22170403Y18940169D01*
X22151190Y18925919D01*
X22130673Y18913622D01*
X22109049Y18903394D01*
X22086527Y18895336D01*
X22063323Y18889524D01*
X22039662Y18886014D01*
X22015770Y18884840D01*
X21103270Y18884840D01*
X21079378Y18886014D01*
X21055717Y18889524D01*
X21032513Y18895336D01*
X21009991Y18903394D01*
X20988367Y18913622D01*
X20967850Y18925919D01*
X20948637Y18940169D01*
X20930913Y18956233D01*
X20914849Y18973957D01*
X20900599Y18993170D01*
X20888302Y19013687D01*
X20878074Y19035311D01*
X20870016Y19057833D01*
X20864204Y19081037D01*
X20860694Y19104698D01*
X20859520Y19128590D01*
X20859520Y19616090D01*
X20860694Y19639982D01*
X20864204Y19663643D01*
X20870016Y19686847D01*
X20878074Y19709369D01*
X20888302Y19730993D01*
X20900599Y19751510D01*
X20914849Y19770723D01*
X20930913Y19788447D01*
X20948637Y19804511D01*
X20967850Y19818761D01*
X20988367Y19831058D01*
X21009991Y19841286D01*
X21032513Y19849344D01*
X21055717Y19855156D01*
X21079378Y19858666D01*
X21103270Y19859840D01*
X22015770Y19859840D01*
X22039662Y19858666D01*
G37*
G04 #@! TD.AperFunction*
G04 #@! TA.AperFunction,SMDPad,CuDef*
G36*
X22039662Y21733666D02*
G01*
X22063323Y21730156D01*
X22086527Y21724344D01*
X22109049Y21716286D01*
X22130673Y21706058D01*
X22151190Y21693761D01*
X22170403Y21679511D01*
X22188127Y21663447D01*
X22204191Y21645723D01*
X22218441Y21626510D01*
X22230738Y21605993D01*
X22240966Y21584369D01*
X22249024Y21561847D01*
X22254836Y21538643D01*
X22258346Y21514982D01*
X22259520Y21491090D01*
X22259520Y21003590D01*
X22258346Y20979698D01*
X22254836Y20956037D01*
X22249024Y20932833D01*
X22240966Y20910311D01*
X22230738Y20888687D01*
X22218441Y20868170D01*
X22204191Y20848957D01*
X22188127Y20831233D01*
X22170403Y20815169D01*
X22151190Y20800919D01*
X22130673Y20788622D01*
X22109049Y20778394D01*
X22086527Y20770336D01*
X22063323Y20764524D01*
X22039662Y20761014D01*
X22015770Y20759840D01*
X21103270Y20759840D01*
X21079378Y20761014D01*
X21055717Y20764524D01*
X21032513Y20770336D01*
X21009991Y20778394D01*
X20988367Y20788622D01*
X20967850Y20800919D01*
X20948637Y20815169D01*
X20930913Y20831233D01*
X20914849Y20848957D01*
X20900599Y20868170D01*
X20888302Y20888687D01*
X20878074Y20910311D01*
X20870016Y20932833D01*
X20864204Y20956037D01*
X20860694Y20979698D01*
X20859520Y21003590D01*
X20859520Y21491090D01*
X20860694Y21514982D01*
X20864204Y21538643D01*
X20870016Y21561847D01*
X20878074Y21584369D01*
X20888302Y21605993D01*
X20900599Y21626510D01*
X20914849Y21645723D01*
X20930913Y21663447D01*
X20948637Y21679511D01*
X20967850Y21693761D01*
X20988367Y21706058D01*
X21009991Y21716286D01*
X21032513Y21724344D01*
X21055717Y21730156D01*
X21079378Y21733666D01*
X21103270Y21734840D01*
X22015770Y21734840D01*
X22039662Y21733666D01*
G37*
G04 #@! TD.AperFunction*
G04 #@! TA.AperFunction,SMDPad,CuDef*
G36*
X24299662Y8836166D02*
G01*
X24323323Y8832656D01*
X24346527Y8826844D01*
X24369049Y8818786D01*
X24390673Y8808558D01*
X24411190Y8796261D01*
X24430403Y8782011D01*
X24448127Y8765947D01*
X24464191Y8748223D01*
X24478441Y8729010D01*
X24490738Y8708493D01*
X24500966Y8686869D01*
X24509024Y8664347D01*
X24514836Y8641143D01*
X24518346Y8617482D01*
X24519520Y8593590D01*
X24519520Y8106090D01*
X24518346Y8082198D01*
X24514836Y8058537D01*
X24509024Y8035333D01*
X24500966Y8012811D01*
X24490738Y7991187D01*
X24478441Y7970670D01*
X24464191Y7951457D01*
X24448127Y7933733D01*
X24430403Y7917669D01*
X24411190Y7903419D01*
X24390673Y7891122D01*
X24369049Y7880894D01*
X24346527Y7872836D01*
X24323323Y7867024D01*
X24299662Y7863514D01*
X24275770Y7862340D01*
X23363270Y7862340D01*
X23339378Y7863514D01*
X23315717Y7867024D01*
X23292513Y7872836D01*
X23269991Y7880894D01*
X23248367Y7891122D01*
X23227850Y7903419D01*
X23208637Y7917669D01*
X23190913Y7933733D01*
X23174849Y7951457D01*
X23160599Y7970670D01*
X23148302Y7991187D01*
X23138074Y8012811D01*
X23130016Y8035333D01*
X23124204Y8058537D01*
X23120694Y8082198D01*
X23119520Y8106090D01*
X23119520Y8593590D01*
X23120694Y8617482D01*
X23124204Y8641143D01*
X23130016Y8664347D01*
X23138074Y8686869D01*
X23148302Y8708493D01*
X23160599Y8729010D01*
X23174849Y8748223D01*
X23190913Y8765947D01*
X23208637Y8782011D01*
X23227850Y8796261D01*
X23248367Y8808558D01*
X23269991Y8818786D01*
X23292513Y8826844D01*
X23315717Y8832656D01*
X23339378Y8836166D01*
X23363270Y8837340D01*
X24275770Y8837340D01*
X24299662Y8836166D01*
G37*
G04 #@! TD.AperFunction*
G04 #@! TA.AperFunction,SMDPad,CuDef*
G36*
X24299662Y10711166D02*
G01*
X24323323Y10707656D01*
X24346527Y10701844D01*
X24369049Y10693786D01*
X24390673Y10683558D01*
X24411190Y10671261D01*
X24430403Y10657011D01*
X24448127Y10640947D01*
X24464191Y10623223D01*
X24478441Y10604010D01*
X24490738Y10583493D01*
X24500966Y10561869D01*
X24509024Y10539347D01*
X24514836Y10516143D01*
X24518346Y10492482D01*
X24519520Y10468590D01*
X24519520Y9981090D01*
X24518346Y9957198D01*
X24514836Y9933537D01*
X24509024Y9910333D01*
X24500966Y9887811D01*
X24490738Y9866187D01*
X24478441Y9845670D01*
X24464191Y9826457D01*
X24448127Y9808733D01*
X24430403Y9792669D01*
X24411190Y9778419D01*
X24390673Y9766122D01*
X24369049Y9755894D01*
X24346527Y9747836D01*
X24323323Y9742024D01*
X24299662Y9738514D01*
X24275770Y9737340D01*
X23363270Y9737340D01*
X23339378Y9738514D01*
X23315717Y9742024D01*
X23292513Y9747836D01*
X23269991Y9755894D01*
X23248367Y9766122D01*
X23227850Y9778419D01*
X23208637Y9792669D01*
X23190913Y9808733D01*
X23174849Y9826457D01*
X23160599Y9845670D01*
X23148302Y9866187D01*
X23138074Y9887811D01*
X23130016Y9910333D01*
X23124204Y9933537D01*
X23120694Y9957198D01*
X23119520Y9981090D01*
X23119520Y10468590D01*
X23120694Y10492482D01*
X23124204Y10516143D01*
X23130016Y10539347D01*
X23138074Y10561869D01*
X23148302Y10583493D01*
X23160599Y10604010D01*
X23174849Y10623223D01*
X23190913Y10640947D01*
X23208637Y10657011D01*
X23227850Y10671261D01*
X23248367Y10683558D01*
X23269991Y10693786D01*
X23292513Y10701844D01*
X23315717Y10707656D01*
X23339378Y10711166D01*
X23363270Y10712340D01*
X24275770Y10712340D01*
X24299662Y10711166D01*
G37*
G04 #@! TD.AperFunction*
G04 #@! TA.AperFunction,SMDPad,CuDef*
G36*
X24199662Y19436166D02*
G01*
X24223323Y19432656D01*
X24246527Y19426844D01*
X24269049Y19418786D01*
X24290673Y19408558D01*
X24311190Y19396261D01*
X24330403Y19382011D01*
X24348127Y19365947D01*
X24364191Y19348223D01*
X24378441Y19329010D01*
X24390738Y19308493D01*
X24400966Y19286869D01*
X24409024Y19264347D01*
X24414836Y19241143D01*
X24418346Y19217482D01*
X24419520Y19193590D01*
X24419520Y18706090D01*
X24418346Y18682198D01*
X24414836Y18658537D01*
X24409024Y18635333D01*
X24400966Y18612811D01*
X24390738Y18591187D01*
X24378441Y18570670D01*
X24364191Y18551457D01*
X24348127Y18533733D01*
X24330403Y18517669D01*
X24311190Y18503419D01*
X24290673Y18491122D01*
X24269049Y18480894D01*
X24246527Y18472836D01*
X24223323Y18467024D01*
X24199662Y18463514D01*
X24175770Y18462340D01*
X23263270Y18462340D01*
X23239378Y18463514D01*
X23215717Y18467024D01*
X23192513Y18472836D01*
X23169991Y18480894D01*
X23148367Y18491122D01*
X23127850Y18503419D01*
X23108637Y18517669D01*
X23090913Y18533733D01*
X23074849Y18551457D01*
X23060599Y18570670D01*
X23048302Y18591187D01*
X23038074Y18612811D01*
X23030016Y18635333D01*
X23024204Y18658537D01*
X23020694Y18682198D01*
X23019520Y18706090D01*
X23019520Y19193590D01*
X23020694Y19217482D01*
X23024204Y19241143D01*
X23030016Y19264347D01*
X23038074Y19286869D01*
X23048302Y19308493D01*
X23060599Y19329010D01*
X23074849Y19348223D01*
X23090913Y19365947D01*
X23108637Y19382011D01*
X23127850Y19396261D01*
X23148367Y19408558D01*
X23169991Y19418786D01*
X23192513Y19426844D01*
X23215717Y19432656D01*
X23239378Y19436166D01*
X23263270Y19437340D01*
X24175770Y19437340D01*
X24199662Y19436166D01*
G37*
G04 #@! TD.AperFunction*
G04 #@! TA.AperFunction,SMDPad,CuDef*
G36*
X24199662Y21311166D02*
G01*
X24223323Y21307656D01*
X24246527Y21301844D01*
X24269049Y21293786D01*
X24290673Y21283558D01*
X24311190Y21271261D01*
X24330403Y21257011D01*
X24348127Y21240947D01*
X24364191Y21223223D01*
X24378441Y21204010D01*
X24390738Y21183493D01*
X24400966Y21161869D01*
X24409024Y21139347D01*
X24414836Y21116143D01*
X24418346Y21092482D01*
X24419520Y21068590D01*
X24419520Y20581090D01*
X24418346Y20557198D01*
X24414836Y20533537D01*
X24409024Y20510333D01*
X24400966Y20487811D01*
X24390738Y20466187D01*
X24378441Y20445670D01*
X24364191Y20426457D01*
X24348127Y20408733D01*
X24330403Y20392669D01*
X24311190Y20378419D01*
X24290673Y20366122D01*
X24269049Y20355894D01*
X24246527Y20347836D01*
X24223323Y20342024D01*
X24199662Y20338514D01*
X24175770Y20337340D01*
X23263270Y20337340D01*
X23239378Y20338514D01*
X23215717Y20342024D01*
X23192513Y20347836D01*
X23169991Y20355894D01*
X23148367Y20366122D01*
X23127850Y20378419D01*
X23108637Y20392669D01*
X23090913Y20408733D01*
X23074849Y20426457D01*
X23060599Y20445670D01*
X23048302Y20466187D01*
X23038074Y20487811D01*
X23030016Y20510333D01*
X23024204Y20533537D01*
X23020694Y20557198D01*
X23019520Y20581090D01*
X23019520Y21068590D01*
X23020694Y21092482D01*
X23024204Y21116143D01*
X23030016Y21139347D01*
X23038074Y21161869D01*
X23048302Y21183493D01*
X23060599Y21204010D01*
X23074849Y21223223D01*
X23090913Y21240947D01*
X23108637Y21257011D01*
X23127850Y21271261D01*
X23148367Y21283558D01*
X23169991Y21293786D01*
X23192513Y21301844D01*
X23215717Y21307656D01*
X23239378Y21311166D01*
X23263270Y21312340D01*
X24175770Y21312340D01*
X24199662Y21311166D01*
G37*
G04 #@! TD.AperFunction*
G04 #@! TA.AperFunction,SMDPad,CuDef*
G36*
X17189662Y11793666D02*
G01*
X17213323Y11790156D01*
X17236527Y11784344D01*
X17259049Y11776286D01*
X17280673Y11766058D01*
X17301190Y11753761D01*
X17320403Y11739511D01*
X17338127Y11723447D01*
X17354191Y11705723D01*
X17368441Y11686510D01*
X17380738Y11665993D01*
X17390966Y11644369D01*
X17399024Y11621847D01*
X17404836Y11598643D01*
X17408346Y11574982D01*
X17409520Y11551090D01*
X17409520Y10638590D01*
X17408346Y10614698D01*
X17404836Y10591037D01*
X17399024Y10567833D01*
X17390966Y10545311D01*
X17380738Y10523687D01*
X17368441Y10503170D01*
X17354191Y10483957D01*
X17338127Y10466233D01*
X17320403Y10450169D01*
X17301190Y10435919D01*
X17280673Y10423622D01*
X17259049Y10413394D01*
X17236527Y10405336D01*
X17213323Y10399524D01*
X17189662Y10396014D01*
X17165770Y10394840D01*
X16678270Y10394840D01*
X16654378Y10396014D01*
X16630717Y10399524D01*
X16607513Y10405336D01*
X16584991Y10413394D01*
X16563367Y10423622D01*
X16542850Y10435919D01*
X16523637Y10450169D01*
X16505913Y10466233D01*
X16489849Y10483957D01*
X16475599Y10503170D01*
X16463302Y10523687D01*
X16453074Y10545311D01*
X16445016Y10567833D01*
X16439204Y10591037D01*
X16435694Y10614698D01*
X16434520Y10638590D01*
X16434520Y11551090D01*
X16435694Y11574982D01*
X16439204Y11598643D01*
X16445016Y11621847D01*
X16453074Y11644369D01*
X16463302Y11665993D01*
X16475599Y11686510D01*
X16489849Y11705723D01*
X16505913Y11723447D01*
X16523637Y11739511D01*
X16542850Y11753761D01*
X16563367Y11766058D01*
X16584991Y11776286D01*
X16607513Y11784344D01*
X16630717Y11790156D01*
X16654378Y11793666D01*
X16678270Y11794840D01*
X17165770Y11794840D01*
X17189662Y11793666D01*
G37*
G04 #@! TD.AperFunction*
G04 #@! TA.AperFunction,SMDPad,CuDef*
G36*
X15314662Y11793666D02*
G01*
X15338323Y11790156D01*
X15361527Y11784344D01*
X15384049Y11776286D01*
X15405673Y11766058D01*
X15426190Y11753761D01*
X15445403Y11739511D01*
X15463127Y11723447D01*
X15479191Y11705723D01*
X15493441Y11686510D01*
X15505738Y11665993D01*
X15515966Y11644369D01*
X15524024Y11621847D01*
X15529836Y11598643D01*
X15533346Y11574982D01*
X15534520Y11551090D01*
X15534520Y10638590D01*
X15533346Y10614698D01*
X15529836Y10591037D01*
X15524024Y10567833D01*
X15515966Y10545311D01*
X15505738Y10523687D01*
X15493441Y10503170D01*
X15479191Y10483957D01*
X15463127Y10466233D01*
X15445403Y10450169D01*
X15426190Y10435919D01*
X15405673Y10423622D01*
X15384049Y10413394D01*
X15361527Y10405336D01*
X15338323Y10399524D01*
X15314662Y10396014D01*
X15290770Y10394840D01*
X14803270Y10394840D01*
X14779378Y10396014D01*
X14755717Y10399524D01*
X14732513Y10405336D01*
X14709991Y10413394D01*
X14688367Y10423622D01*
X14667850Y10435919D01*
X14648637Y10450169D01*
X14630913Y10466233D01*
X14614849Y10483957D01*
X14600599Y10503170D01*
X14588302Y10523687D01*
X14578074Y10545311D01*
X14570016Y10567833D01*
X14564204Y10591037D01*
X14560694Y10614698D01*
X14559520Y10638590D01*
X14559520Y11551090D01*
X14560694Y11574982D01*
X14564204Y11598643D01*
X14570016Y11621847D01*
X14578074Y11644369D01*
X14588302Y11665993D01*
X14600599Y11686510D01*
X14614849Y11705723D01*
X14630913Y11723447D01*
X14648637Y11739511D01*
X14667850Y11753761D01*
X14688367Y11766058D01*
X14709991Y11776286D01*
X14732513Y11784344D01*
X14755717Y11790156D01*
X14779378Y11793666D01*
X14803270Y11794840D01*
X15290770Y11794840D01*
X15314662Y11793666D01*
G37*
G04 #@! TD.AperFunction*
D13*
X18384520Y11094840D03*
X15384520Y15694840D03*
X18384520Y21694840D03*
X11784520Y4894840D03*
D14*
X16922020Y11094840D02*
X18384520Y11094840D01*
X13509520Y15739840D02*
X13939520Y15739840D01*
X13939520Y15739840D02*
X13984520Y15694840D01*
X13984520Y15694840D02*
X14784520Y15694840D01*
X14784520Y15694840D02*
X15384520Y15694840D01*
X16922020Y21694840D02*
X18384520Y21694840D01*
X13509520Y5439840D02*
X13039520Y5439840D01*
X13039520Y5439840D02*
X12984520Y5494840D01*
X12984520Y5494840D02*
X12384520Y5494840D01*
X12384520Y5494840D02*
X11784520Y4894840D01*
X13509520Y9249840D02*
X13939520Y9249840D01*
X13939520Y9249840D02*
X13984520Y9294840D01*
X13984520Y9294840D02*
X14584520Y9294840D01*
X15047020Y9757340D02*
X15047020Y11094840D01*
X14584520Y9294840D02*
X15047020Y9757340D01*
X15047020Y21694840D02*
X15047020Y19957340D01*
X14639520Y19549840D02*
X13509520Y19549840D01*
X15047020Y9757340D02*
X15122020Y9757340D01*
X15122020Y9757340D02*
X15584520Y9294840D01*
X15584520Y9294840D02*
X15584520Y4494840D01*
X15584520Y4494840D02*
X14784520Y3694840D01*
X9624520Y3694840D02*
X6324520Y6994840D01*
X14784520Y3694840D02*
X9624520Y3694840D01*
X3784520Y6994840D02*
X6324520Y6994840D01*
X15047020Y11794840D02*
X15184520Y11932340D01*
X15047020Y11094840D02*
X15047020Y11794840D01*
X15184520Y11932340D02*
X15184520Y13094840D01*
X15184520Y13094840D02*
X16384520Y14294840D01*
X16384520Y14294840D02*
X16384520Y18494840D01*
X15047020Y19957340D02*
X14984520Y19894840D01*
X16384520Y18494840D02*
X14984520Y19894840D01*
X14984520Y19894840D02*
X14639520Y19549840D01*
D15*
X24444520Y19674840D02*
X23719520Y18949840D01*
X26639520Y19674840D02*
X24444520Y19674840D01*
X23719520Y18462340D02*
X23344520Y18087340D01*
X23719520Y18949840D02*
X23719520Y18462340D01*
X23344520Y18087340D02*
X18619520Y18087340D01*
X18619520Y18087340D02*
X18302020Y18404840D01*
X23012020Y20824840D02*
X23719520Y20824840D01*
X21559520Y19372340D02*
X23012020Y20824840D01*
X26639520Y9514840D02*
X25947020Y9514840D01*
X24782020Y8349840D02*
X23819520Y8349840D01*
X25947020Y9514840D02*
X24782020Y8349840D01*
X23819520Y8349840D02*
X23333993Y7864313D01*
X23333993Y7864313D02*
X18842547Y7864313D01*
X22504520Y8909840D02*
X21559520Y8909840D01*
X23819520Y10224840D02*
X22504520Y8909840D01*
X4934521Y10924839D02*
X4634519Y11224841D01*
X6636523Y10924839D02*
X4934521Y10924839D01*
X8666522Y8894840D02*
X6636523Y10924839D01*
X4634519Y11224841D02*
X3784520Y12074840D01*
X9047020Y8894840D02*
X8666522Y8894840D01*
X2934521Y13764841D02*
X3784520Y14614840D01*
X2634519Y13464839D02*
X2934521Y13764841D01*
X4984520Y10276840D02*
X4336521Y10924839D01*
X4984520Y8932840D02*
X4984520Y10276840D01*
X5532521Y8384839D02*
X4984520Y8932840D01*
X3232519Y10924839D02*
X2634519Y11522839D01*
X6869521Y8384839D02*
X5532521Y8384839D01*
X4336521Y10924839D02*
X3232519Y10924839D01*
X8559520Y6694840D02*
X6869521Y8384839D01*
X2634519Y11522839D02*
X2634519Y13464839D01*
X9047020Y6694840D02*
X8559520Y6694840D01*
X2634519Y18304841D02*
X2934521Y18004839D01*
X2934521Y18004839D02*
X3784520Y17154840D01*
X3544528Y21694850D02*
X2634519Y20784841D01*
X2634519Y20784841D02*
X2634519Y18304841D01*
X7350209Y21694850D02*
X3544528Y21694850D01*
X9047020Y19998038D02*
X7350209Y21694850D01*
X9047020Y19094840D02*
X9047020Y19998038D01*
X8559520Y16894840D02*
X7984520Y17469840D01*
X9047020Y16894840D02*
X8559520Y16894840D01*
X7984520Y17469840D02*
X7984520Y20494840D01*
X7984520Y20494840D02*
X7184520Y21294840D01*
X3784520Y20744840D02*
X3784520Y19694840D01*
X4334520Y21294840D02*
X3784520Y20744840D01*
X7184520Y21294840D02*
X4334520Y21294840D01*
X26639520Y6974840D02*
X25064520Y6974840D01*
X24799520Y6709840D02*
X18459520Y6709840D01*
X25064520Y6974840D02*
X24799520Y6709840D01*
X25494520Y15739840D02*
X26639520Y14594840D01*
X18459520Y15739840D02*
X25494520Y15739840D01*
X26639520Y17134840D02*
X25437439Y17134840D01*
X25312439Y17009840D02*
X18459520Y17009840D01*
X25437439Y17134840D02*
X25312439Y17009840D01*
X11722020Y18294840D02*
X10922020Y19094840D01*
X12784520Y18294840D02*
X11722020Y18294840D01*
X13509520Y18279840D02*
X12799520Y18279840D01*
X12799520Y18279840D02*
X12784520Y18294840D01*
X13394520Y16894840D02*
X13509520Y17009840D01*
X10922020Y16894840D02*
X13394520Y16894840D01*
X12534520Y7979840D02*
X13509520Y7979840D01*
X12324520Y7979840D02*
X12534520Y7979840D01*
X11409520Y8894840D02*
X12324520Y7979840D01*
X10922020Y8894840D02*
X11409520Y8894840D01*
X13494520Y6694840D02*
X13509520Y6709840D01*
X10922020Y6694840D02*
X13494520Y6694840D01*
X23439520Y5439840D02*
X18459520Y5439840D01*
X26639520Y4434840D02*
X24444520Y4434840D01*
X24444520Y4434840D02*
X23439520Y5439840D01*
X22829520Y12054840D02*
X26639520Y12054840D01*
X21559520Y10784840D02*
X22829520Y12054840D01*
X20069520Y9294840D02*
X21559520Y10784840D01*
X18459520Y9249840D02*
X18939520Y9249840D01*
X18984520Y9294840D02*
X20069520Y9294840D01*
X18939520Y9249840D02*
X18984520Y9294840D01*
X22527020Y22214840D02*
X26639520Y22214840D01*
X21559520Y21247340D02*
X22527020Y22214840D01*
X19639520Y19549840D02*
X18459520Y19549840D01*
X21559520Y21247340D02*
X21337020Y21247340D01*
X21337020Y21247340D02*
X19639520Y19549840D01*
M02*
