G04 #@! TF.GenerationSoftware,KiCad,Pcbnew,5.1.5-52549c5~86~ubuntu19.10.1*
G04 #@! TF.CreationDate,2020-05-04T22:04:25+01:00*
G04 #@! TF.ProjectId,pmod-dualrs422,706d6f64-2d64-4756-916c-72733432322e,rev?*
G04 #@! TF.SameCoordinates,PXccb7580PY7aec778*
G04 #@! TF.FileFunction,Legend,Bot*
G04 #@! TF.FilePolarity,Positive*
%FSLAX46Y46*%
G04 Gerber Fmt 4.6, Leading zero omitted, Abs format (unit mm)*
G04 Created by KiCad (PCBNEW 5.1.5-52549c5~86~ubuntu19.10.1) date 2020-05-04 22:04:25*
%MOMM*%
%LPD*%
G04 APERTURE LIST*
%ADD10C,0.150000*%
%ADD11C,0.300000*%
G04 APERTURE END LIST*
D10*
X29202095Y25201500D02*
X29297333Y25249120D01*
X29440190Y25249120D01*
X29583047Y25201500D01*
X29678285Y25106262D01*
X29725904Y25011024D01*
X29773523Y24820548D01*
X29773523Y24677691D01*
X29725904Y24487215D01*
X29678285Y24391977D01*
X29583047Y24296739D01*
X29440190Y24249120D01*
X29344952Y24249120D01*
X29202095Y24296739D01*
X29154476Y24344358D01*
X29154476Y24677691D01*
X29344952Y24677691D01*
X29202095Y2278000D02*
X29297333Y2325620D01*
X29440190Y2325620D01*
X29583047Y2278000D01*
X29678285Y2182762D01*
X29725904Y2087524D01*
X29773523Y1897048D01*
X29773523Y1754191D01*
X29725904Y1563715D01*
X29678285Y1468477D01*
X29583047Y1373239D01*
X29440190Y1325620D01*
X29344952Y1325620D01*
X29202095Y1373239D01*
X29154476Y1420858D01*
X29154476Y1754191D01*
X29344952Y1754191D01*
X8628095Y10025000D02*
X8723333Y10072620D01*
X8866190Y10072620D01*
X9009047Y10025000D01*
X9104285Y9929762D01*
X9151904Y9834524D01*
X9199523Y9644048D01*
X9199523Y9501191D01*
X9151904Y9310715D01*
X9104285Y9215477D01*
X9009047Y9120239D01*
X8866190Y9072620D01*
X8770952Y9072620D01*
X8628095Y9120239D01*
X8580476Y9167858D01*
X8580476Y9501191D01*
X8770952Y9501191D01*
X10286904Y7532620D02*
X9667857Y7532620D01*
X10001190Y7151667D01*
X9858333Y7151667D01*
X9763095Y7104048D01*
X9715476Y7056429D01*
X9667857Y6961191D01*
X9667857Y6723096D01*
X9715476Y6627858D01*
X9763095Y6580239D01*
X9858333Y6532620D01*
X10144047Y6532620D01*
X10239285Y6580239D01*
X10286904Y6627858D01*
X9382142Y7532620D02*
X9048809Y6532620D01*
X8715476Y7532620D01*
X2031904Y7532620D02*
X1412857Y7532620D01*
X1746190Y7151667D01*
X1603333Y7151667D01*
X1508095Y7104048D01*
X1460476Y7056429D01*
X1412857Y6961191D01*
X1412857Y6723096D01*
X1460476Y6627858D01*
X1508095Y6580239D01*
X1603333Y6532620D01*
X1889047Y6532620D01*
X1984285Y6580239D01*
X2031904Y6627858D01*
X1127142Y7532620D02*
X793809Y6532620D01*
X460476Y7532620D01*
X1643095Y10025000D02*
X1738333Y10072620D01*
X1881190Y10072620D01*
X2024047Y10025000D01*
X2119285Y9929762D01*
X2166904Y9834524D01*
X2214523Y9644048D01*
X2214523Y9501191D01*
X2166904Y9310715D01*
X2119285Y9215477D01*
X2024047Y9120239D01*
X1881190Y9072620D01*
X1785952Y9072620D01*
X1643095Y9120239D01*
X1595476Y9167858D01*
X1595476Y9501191D01*
X1785952Y9501191D01*
X2031904Y20232620D02*
X1460476Y20232620D01*
X1746190Y19232620D02*
X1746190Y20232620D01*
X603333Y19232620D02*
X1174761Y19232620D01*
X889047Y19232620D02*
X889047Y20232620D01*
X984285Y20089762D01*
X1079523Y19994524D01*
X1174761Y19946905D01*
X1436666Y16692620D02*
X1770000Y17168810D01*
X2008095Y16692620D02*
X2008095Y17692620D01*
X1627142Y17692620D01*
X1531904Y17645000D01*
X1484285Y17597381D01*
X1436666Y17502143D01*
X1436666Y17359286D01*
X1484285Y17264048D01*
X1531904Y17216429D01*
X1627142Y17168810D01*
X2008095Y17168810D01*
X484285Y16692620D02*
X1055714Y16692620D01*
X770000Y16692620D02*
X770000Y17692620D01*
X865238Y17549762D01*
X960476Y17454524D01*
X1055714Y17406905D01*
X1436666Y11612620D02*
X1770000Y12088810D01*
X2008095Y11612620D02*
X2008095Y12612620D01*
X1627142Y12612620D01*
X1531904Y12565000D01*
X1484285Y12517381D01*
X1436666Y12422143D01*
X1436666Y12279286D01*
X1484285Y12184048D01*
X1531904Y12136429D01*
X1627142Y12088810D01*
X2008095Y12088810D01*
X1055714Y12517381D02*
X1008095Y12565000D01*
X912857Y12612620D01*
X674761Y12612620D01*
X579523Y12565000D01*
X531904Y12517381D01*
X484285Y12422143D01*
X484285Y12326905D01*
X531904Y12184048D01*
X1103333Y11612620D01*
X484285Y11612620D01*
X2031904Y15152620D02*
X1460476Y15152620D01*
X1746190Y14152620D02*
X1746190Y15152620D01*
X1174761Y15057381D02*
X1127142Y15105000D01*
X1031904Y15152620D01*
X793809Y15152620D01*
X698571Y15105000D01*
X650952Y15057381D01*
X603333Y14962143D01*
X603333Y14866905D01*
X650952Y14724048D01*
X1222380Y14152620D01*
X603333Y14152620D01*
D11*
X22482142Y16481429D02*
X22482142Y17981429D01*
X22125000Y17981429D01*
X21910714Y17910000D01*
X21767857Y17767143D01*
X21696428Y17624286D01*
X21625000Y17338572D01*
X21625000Y17124286D01*
X21696428Y16838572D01*
X21767857Y16695715D01*
X21910714Y16552858D01*
X22125000Y16481429D01*
X22482142Y16481429D01*
X20982142Y17981429D02*
X20982142Y16767143D01*
X20910714Y16624286D01*
X20839285Y16552858D01*
X20696428Y16481429D01*
X20410714Y16481429D01*
X20267857Y16552858D01*
X20196428Y16624286D01*
X20125000Y16767143D01*
X20125000Y17981429D01*
X19482142Y16910000D02*
X18767857Y16910000D01*
X19625000Y16481429D02*
X19125000Y17981429D01*
X18625000Y16481429D01*
X17410714Y16481429D02*
X18125000Y16481429D01*
X18125000Y17981429D01*
X14910714Y16481429D02*
X15410714Y17195715D01*
X15767857Y16481429D02*
X15767857Y17981429D01*
X15196428Y17981429D01*
X15053571Y17910000D01*
X14982142Y17838572D01*
X14910714Y17695715D01*
X14910714Y17481429D01*
X14982142Y17338572D01*
X15053571Y17267143D01*
X15196428Y17195715D01*
X15767857Y17195715D01*
X14339285Y16552858D02*
X14125000Y16481429D01*
X13767857Y16481429D01*
X13625000Y16552858D01*
X13553571Y16624286D01*
X13482142Y16767143D01*
X13482142Y16910000D01*
X13553571Y17052858D01*
X13625000Y17124286D01*
X13767857Y17195715D01*
X14053571Y17267143D01*
X14196428Y17338572D01*
X14267857Y17410000D01*
X14339285Y17552858D01*
X14339285Y17695715D01*
X14267857Y17838572D01*
X14196428Y17910000D01*
X14053571Y17981429D01*
X13696428Y17981429D01*
X13482142Y17910000D01*
X12196428Y17481429D02*
X12196428Y16481429D01*
X12553571Y18052858D02*
X12910714Y16981429D01*
X11982142Y16981429D01*
X11482142Y17838572D02*
X11410714Y17910000D01*
X11267857Y17981429D01*
X10910714Y17981429D01*
X10767857Y17910000D01*
X10696428Y17838572D01*
X10625000Y17695715D01*
X10625000Y17552858D01*
X10696428Y17338572D01*
X11553571Y16481429D01*
X10625000Y16481429D01*
X10053571Y17838572D02*
X9982142Y17910000D01*
X9839285Y17981429D01*
X9482142Y17981429D01*
X9339285Y17910000D01*
X9267857Y17838572D01*
X9196428Y17695715D01*
X9196428Y17552858D01*
X9267857Y17338572D01*
X10125000Y16481429D01*
X9196428Y16481429D01*
X18660714Y13931429D02*
X18660714Y15431429D01*
X18089285Y15431429D01*
X17946428Y15360000D01*
X17875000Y15288572D01*
X17803571Y15145715D01*
X17803571Y14931429D01*
X17875000Y14788572D01*
X17946428Y14717143D01*
X18089285Y14645715D01*
X18660714Y14645715D01*
X17160714Y13931429D02*
X17160714Y15431429D01*
X16660714Y14360000D01*
X16160714Y15431429D01*
X16160714Y13931429D01*
X15160714Y15431429D02*
X14875000Y15431429D01*
X14732142Y15360000D01*
X14589285Y15217143D01*
X14517857Y14931429D01*
X14517857Y14431429D01*
X14589285Y14145715D01*
X14732142Y14002858D01*
X14875000Y13931429D01*
X15160714Y13931429D01*
X15303571Y14002858D01*
X15446428Y14145715D01*
X15517857Y14431429D01*
X15517857Y14931429D01*
X15446428Y15217143D01*
X15303571Y15360000D01*
X15160714Y15431429D01*
X13875000Y13931429D02*
X13875000Y15431429D01*
X13517857Y15431429D01*
X13303571Y15360000D01*
X13160714Y15217143D01*
X13089285Y15074286D01*
X13017857Y14788572D01*
X13017857Y14574286D01*
X13089285Y14288572D01*
X13160714Y14145715D01*
X13303571Y14002858D01*
X13517857Y13931429D01*
X13875000Y13931429D01*
X20875000Y10331429D02*
X20017857Y10331429D01*
X20446428Y8831429D02*
X20446428Y10331429D01*
X19517857Y8974286D02*
X19446428Y8902858D01*
X19517857Y8831429D01*
X19589285Y8902858D01*
X19517857Y8974286D01*
X19517857Y8831429D01*
X18803571Y8831429D02*
X18803571Y10331429D01*
X18803571Y9617143D02*
X17946428Y9617143D01*
X17946428Y8831429D02*
X17946428Y10331429D01*
X16160714Y10188572D02*
X16089285Y10260000D01*
X15946428Y10331429D01*
X15589285Y10331429D01*
X15446428Y10260000D01*
X15375000Y10188572D01*
X15303571Y10045715D01*
X15303571Y9902858D01*
X15375000Y9688572D01*
X16232142Y8831429D01*
X15303571Y8831429D01*
X14375000Y10331429D02*
X14232142Y10331429D01*
X14089285Y10260000D01*
X14017857Y10188572D01*
X13946428Y10045715D01*
X13875000Y9760000D01*
X13875000Y9402858D01*
X13946428Y9117143D01*
X14017857Y8974286D01*
X14089285Y8902858D01*
X14232142Y8831429D01*
X14375000Y8831429D01*
X14517857Y8902858D01*
X14589285Y8974286D01*
X14660714Y9117143D01*
X14732142Y9402858D01*
X14732142Y9760000D01*
X14660714Y10045715D01*
X14589285Y10188572D01*
X14517857Y10260000D01*
X14375000Y10331429D01*
X13303571Y10188572D02*
X13232142Y10260000D01*
X13089285Y10331429D01*
X12732142Y10331429D01*
X12589285Y10260000D01*
X12517857Y10188572D01*
X12446428Y10045715D01*
X12446428Y9902858D01*
X12517857Y9688572D01*
X13375000Y8831429D01*
X12446428Y8831429D01*
X11517857Y10331429D02*
X11375000Y10331429D01*
X11232142Y10260000D01*
X11160714Y10188572D01*
X11089285Y10045715D01*
X11017857Y9760000D01*
X11017857Y9402858D01*
X11089285Y9117143D01*
X11160714Y8974286D01*
X11232142Y8902858D01*
X11375000Y8831429D01*
X11517857Y8831429D01*
X11660714Y8902858D01*
X11732142Y8974286D01*
X11803571Y9117143D01*
X11875000Y9402858D01*
X11875000Y9760000D01*
X11803571Y10045715D01*
X11732142Y10188572D01*
X11660714Y10260000D01*
X11517857Y10331429D01*
D10*
X29910710Y4418650D02*
X29910710Y3942460D01*
X30244043Y4942460D02*
X29910710Y4418650D01*
X29577377Y4942460D01*
X29291662Y4847221D02*
X29244043Y4894840D01*
X29148805Y4942460D01*
X28910710Y4942460D01*
X28815472Y4894840D01*
X28767853Y4847221D01*
X28720234Y4751983D01*
X28720234Y4656745D01*
X28767853Y4513888D01*
X29339281Y3942460D01*
X28720234Y3942460D01*
X30244043Y7442460D02*
X29577377Y7442460D01*
X30244043Y6442460D01*
X29577377Y6442460D01*
X29244043Y7347221D02*
X29196424Y7394840D01*
X29101186Y7442460D01*
X28863091Y7442460D01*
X28767853Y7394840D01*
X28720234Y7347221D01*
X28672615Y7251983D01*
X28672615Y7156745D01*
X28720234Y7013888D01*
X29291662Y6442460D01*
X28672615Y6442460D01*
X29839281Y9466269D02*
X29696424Y9418650D01*
X29648805Y9371031D01*
X29601186Y9275793D01*
X29601186Y9132936D01*
X29648805Y9037698D01*
X29696424Y8990079D01*
X29791662Y8942460D01*
X30172615Y8942460D01*
X30172615Y9942460D01*
X29839281Y9942460D01*
X29744043Y9894840D01*
X29696424Y9847221D01*
X29648805Y9751983D01*
X29648805Y9656745D01*
X29696424Y9561507D01*
X29744043Y9513888D01*
X29839281Y9466269D01*
X30172615Y9466269D01*
X29220234Y9847221D02*
X29172615Y9894840D01*
X29077377Y9942460D01*
X28839281Y9942460D01*
X28744043Y9894840D01*
X28696424Y9847221D01*
X28648805Y9751983D01*
X28648805Y9656745D01*
X28696424Y9513888D01*
X29267853Y8942460D01*
X28648805Y8942460D01*
X30148805Y11778174D02*
X29672615Y11778174D01*
X30244043Y11492460D02*
X29910710Y12492460D01*
X29577377Y11492460D01*
X29291662Y12397221D02*
X29244043Y12444840D01*
X29148805Y12492460D01*
X28910710Y12492460D01*
X28815472Y12444840D01*
X28767853Y12397221D01*
X28720234Y12301983D01*
X28720234Y12206745D01*
X28767853Y12063888D01*
X29339281Y11492460D01*
X28720234Y11492460D01*
X29960710Y14518650D02*
X29960710Y14042460D01*
X30294043Y15042460D02*
X29960710Y14518650D01*
X29627377Y15042460D01*
X28770234Y14042460D02*
X29341662Y14042460D01*
X29055948Y14042460D02*
X29055948Y15042460D01*
X29151186Y14899602D01*
X29246424Y14804364D01*
X29341662Y14756745D01*
X30294043Y17642460D02*
X29627377Y17642460D01*
X30294043Y16642460D01*
X29627377Y16642460D01*
X28722615Y16642460D02*
X29294043Y16642460D01*
X29008329Y16642460D02*
X29008329Y17642460D01*
X29103567Y17499602D01*
X29198805Y17404364D01*
X29294043Y17356745D01*
X29889281Y19566269D02*
X29746424Y19518650D01*
X29698805Y19471031D01*
X29651186Y19375793D01*
X29651186Y19232936D01*
X29698805Y19137698D01*
X29746424Y19090079D01*
X29841662Y19042460D01*
X30222615Y19042460D01*
X30222615Y20042460D01*
X29889281Y20042460D01*
X29794043Y19994840D01*
X29746424Y19947221D01*
X29698805Y19851983D01*
X29698805Y19756745D01*
X29746424Y19661507D01*
X29794043Y19613888D01*
X29889281Y19566269D01*
X30222615Y19566269D01*
X28698805Y19042460D02*
X29270234Y19042460D01*
X28984520Y19042460D02*
X28984520Y20042460D01*
X29079758Y19899602D01*
X29174996Y19804364D01*
X29270234Y19756745D01*
X30198805Y22028174D02*
X29722615Y22028174D01*
X30294043Y21742460D02*
X29960710Y22742460D01*
X29627377Y21742460D01*
X28770234Y21742460D02*
X29341662Y21742460D01*
X29055948Y21742460D02*
X29055948Y22742460D01*
X29151186Y22599602D01*
X29246424Y22504364D01*
X29341662Y22456745D01*
M02*
