G04 #@! TF.GenerationSoftware,KiCad,Pcbnew,5.1.5-52549c5~86~ubuntu19.10.1*
G04 #@! TF.CreationDate,2020-05-04T22:04:25+01:00*
G04 #@! TF.ProjectId,pmod-dualrs422,706d6f64-2d64-4756-916c-72733432322e,rev?*
G04 #@! TF.SameCoordinates,PXccb7580PY7aec778*
G04 #@! TF.FileFunction,Soldermask,Top*
G04 #@! TF.FilePolarity,Negative*
%FSLAX46Y46*%
G04 Gerber Fmt 4.6, Leading zero omitted, Abs format (unit mm)*
G04 Created by KiCad (PCBNEW 5.1.5-52549c5~86~ubuntu19.10.1) date 2020-05-04 22:04:25*
%MOMM*%
%LPD*%
G04 APERTURE LIST*
%ADD10C,0.100000*%
G04 APERTURE END LIST*
D10*
G36*
X26783512Y2801073D02*
G01*
X26932812Y2771376D01*
X27096784Y2703456D01*
X27244354Y2604853D01*
X27369853Y2479354D01*
X27468456Y2331784D01*
X27536376Y2167812D01*
X27571000Y1993741D01*
X27571000Y1816259D01*
X27536376Y1642188D01*
X27468456Y1478216D01*
X27369853Y1330646D01*
X27244354Y1205147D01*
X27096784Y1106544D01*
X26932812Y1038624D01*
X26783512Y1008927D01*
X26758742Y1004000D01*
X26581258Y1004000D01*
X26556488Y1008927D01*
X26407188Y1038624D01*
X26243216Y1106544D01*
X26095646Y1205147D01*
X25970147Y1330646D01*
X25871544Y1478216D01*
X25803624Y1642188D01*
X25769000Y1816259D01*
X25769000Y1993741D01*
X25803624Y2167812D01*
X25871544Y2331784D01*
X25970147Y2479354D01*
X26095646Y2604853D01*
X26243216Y2703456D01*
X26407188Y2771376D01*
X26556488Y2801073D01*
X26581258Y2806000D01*
X26758742Y2806000D01*
X26783512Y2801073D01*
G37*
G36*
X35300256Y5418702D02*
G01*
X35406579Y5397553D01*
X35707042Y5273097D01*
X35977451Y5092415D01*
X36207415Y4862451D01*
X36388097Y4592042D01*
X36485762Y4356259D01*
X36512553Y4291578D01*
X36576000Y3972611D01*
X36576000Y3647389D01*
X36555434Y3544000D01*
X36512553Y3328421D01*
X36388097Y3027958D01*
X36207415Y2757549D01*
X35977451Y2527585D01*
X35707042Y2346903D01*
X35406579Y2222447D01*
X35300256Y2201298D01*
X35087611Y2159000D01*
X34762389Y2159000D01*
X34549744Y2201298D01*
X34443421Y2222447D01*
X34142958Y2346903D01*
X33872549Y2527585D01*
X33642585Y2757549D01*
X33461903Y3027958D01*
X33337447Y3328421D01*
X33294566Y3544000D01*
X33274000Y3647389D01*
X33274000Y3972611D01*
X33337447Y4291578D01*
X33364239Y4356259D01*
X33461903Y4592042D01*
X33642585Y4862451D01*
X33872549Y5092415D01*
X34142958Y5273097D01*
X34443421Y5397553D01*
X34549744Y5418702D01*
X34762389Y5461000D01*
X35087611Y5461000D01*
X35300256Y5418702D01*
G37*
G36*
X26783512Y5341073D02*
G01*
X26932812Y5311376D01*
X27096784Y5243456D01*
X27244354Y5144853D01*
X27369853Y5019354D01*
X27468456Y4871784D01*
X27536376Y4707812D01*
X27571000Y4533741D01*
X27571000Y4356259D01*
X27536376Y4182188D01*
X27468456Y4018216D01*
X27369853Y3870646D01*
X27244354Y3745147D01*
X27096784Y3646544D01*
X26932812Y3578624D01*
X26783512Y3548927D01*
X26758742Y3544000D01*
X26581258Y3544000D01*
X26556488Y3548927D01*
X26407188Y3578624D01*
X26243216Y3646544D01*
X26095646Y3745147D01*
X25970147Y3870646D01*
X25871544Y4018216D01*
X25803624Y4182188D01*
X25769000Y4356259D01*
X25769000Y4533741D01*
X25803624Y4707812D01*
X25871544Y4871784D01*
X25970147Y5019354D01*
X26095646Y5144853D01*
X26243216Y5243456D01*
X26407188Y5311376D01*
X26556488Y5341073D01*
X26581258Y5346000D01*
X26758742Y5346000D01*
X26783512Y5341073D01*
G37*
G36*
X19394448Y5788076D02*
G01*
X19415529Y5781680D01*
X19434965Y5771292D01*
X19451996Y5757316D01*
X19465972Y5740285D01*
X19476360Y5720849D01*
X19482756Y5699768D01*
X19485520Y5671700D01*
X19485520Y5207980D01*
X19482756Y5179912D01*
X19476360Y5158831D01*
X19465972Y5139395D01*
X19451996Y5122364D01*
X19434965Y5108388D01*
X19415529Y5098000D01*
X19394448Y5091604D01*
X19366380Y5088840D01*
X17552660Y5088840D01*
X17524592Y5091604D01*
X17503511Y5098000D01*
X17484075Y5108388D01*
X17467044Y5122364D01*
X17453068Y5139395D01*
X17442680Y5158831D01*
X17436284Y5179912D01*
X17433520Y5207980D01*
X17433520Y5671700D01*
X17436284Y5699768D01*
X17442680Y5720849D01*
X17453068Y5740285D01*
X17467044Y5757316D01*
X17484075Y5771292D01*
X17503511Y5781680D01*
X17524592Y5788076D01*
X17552660Y5790840D01*
X19366380Y5790840D01*
X19394448Y5788076D01*
G37*
G36*
X14444448Y5788076D02*
G01*
X14465529Y5781680D01*
X14484965Y5771292D01*
X14501996Y5757316D01*
X14515972Y5740285D01*
X14526360Y5720849D01*
X14532756Y5699768D01*
X14535520Y5671700D01*
X14535520Y5207980D01*
X14532756Y5179912D01*
X14526360Y5158831D01*
X14515972Y5139395D01*
X14501996Y5122364D01*
X14484965Y5108388D01*
X14465529Y5098000D01*
X14444448Y5091604D01*
X14416380Y5088840D01*
X12602660Y5088840D01*
X12574592Y5091604D01*
X12553511Y5098000D01*
X12534075Y5108388D01*
X12517044Y5122364D01*
X12503068Y5139395D01*
X12492680Y5158831D01*
X12486284Y5179912D01*
X12483520Y5207980D01*
X12483520Y5671700D01*
X12486284Y5699768D01*
X12492680Y5720849D01*
X12503068Y5740285D01*
X12517044Y5757316D01*
X12534075Y5771292D01*
X12553511Y5781680D01*
X12574592Y5788076D01*
X12602660Y5790840D01*
X14416380Y5790840D01*
X14444448Y5788076D01*
G37*
G36*
X11293988Y7441275D02*
G01*
X11332658Y7429544D01*
X11368297Y7410494D01*
X11399537Y7384857D01*
X11425174Y7353617D01*
X11444224Y7317978D01*
X11455955Y7279308D01*
X11460520Y7232952D01*
X11460520Y6156728D01*
X11455955Y6110372D01*
X11444224Y6071702D01*
X11425174Y6036063D01*
X11399537Y6004823D01*
X11368297Y5979186D01*
X11332658Y5960136D01*
X11293988Y5948405D01*
X11247632Y5943840D01*
X10596408Y5943840D01*
X10550052Y5948405D01*
X10511382Y5960136D01*
X10475743Y5979186D01*
X10444503Y6004823D01*
X10418866Y6036063D01*
X10399816Y6071702D01*
X10388085Y6110372D01*
X10383520Y6156728D01*
X10383520Y7232952D01*
X10388085Y7279308D01*
X10399816Y7317978D01*
X10418866Y7353617D01*
X10444503Y7384857D01*
X10475743Y7410494D01*
X10511382Y7429544D01*
X10550052Y7441275D01*
X10596408Y7445840D01*
X11247632Y7445840D01*
X11293988Y7441275D01*
G37*
G36*
X9418988Y7441275D02*
G01*
X9457658Y7429544D01*
X9493297Y7410494D01*
X9524537Y7384857D01*
X9550174Y7353617D01*
X9569224Y7317978D01*
X9580955Y7279308D01*
X9585520Y7232952D01*
X9585520Y6156728D01*
X9580955Y6110372D01*
X9569224Y6071702D01*
X9550174Y6036063D01*
X9524537Y6004823D01*
X9493297Y5979186D01*
X9457658Y5960136D01*
X9418988Y5948405D01*
X9372632Y5943840D01*
X8721408Y5943840D01*
X8675052Y5948405D01*
X8636382Y5960136D01*
X8600743Y5979186D01*
X8569503Y6004823D01*
X8543866Y6036063D01*
X8524816Y6071702D01*
X8513085Y6110372D01*
X8508520Y6156728D01*
X8508520Y7232952D01*
X8513085Y7279308D01*
X8524816Y7317978D01*
X8543866Y7353617D01*
X8569503Y7384857D01*
X8600743Y7410494D01*
X8636382Y7429544D01*
X8675052Y7441275D01*
X8721408Y7445840D01*
X9372632Y7445840D01*
X9418988Y7441275D01*
G37*
G36*
X26783512Y7881073D02*
G01*
X26932812Y7851376D01*
X27096784Y7783456D01*
X27244354Y7684853D01*
X27369853Y7559354D01*
X27468456Y7411784D01*
X27536376Y7247812D01*
X27571000Y7073741D01*
X27571000Y6896259D01*
X27536376Y6722188D01*
X27468456Y6558216D01*
X27369853Y6410646D01*
X27244354Y6285147D01*
X27096784Y6186544D01*
X26932812Y6118624D01*
X26783512Y6088927D01*
X26758742Y6084000D01*
X26581258Y6084000D01*
X26556488Y6088927D01*
X26407188Y6118624D01*
X26243216Y6186544D01*
X26095646Y6285147D01*
X25970147Y6410646D01*
X25871544Y6558216D01*
X25803624Y6722188D01*
X25769000Y6896259D01*
X25769000Y7073741D01*
X25803624Y7247812D01*
X25871544Y7411784D01*
X25970147Y7559354D01*
X26095646Y7684853D01*
X26243216Y7783456D01*
X26407188Y7851376D01*
X26556488Y7881073D01*
X26581258Y7886000D01*
X26758742Y7886000D01*
X26783512Y7881073D01*
G37*
G36*
X3898032Y7890913D02*
G01*
X4047332Y7861216D01*
X4211304Y7793296D01*
X4358874Y7694693D01*
X4484373Y7569194D01*
X4582976Y7421624D01*
X4650896Y7257652D01*
X4685520Y7083581D01*
X4685520Y6906099D01*
X4650896Y6732028D01*
X4582976Y6568056D01*
X4484373Y6420486D01*
X4358874Y6294987D01*
X4211304Y6196384D01*
X4047332Y6128464D01*
X3898032Y6098767D01*
X3873262Y6093840D01*
X3695778Y6093840D01*
X3671008Y6098767D01*
X3521708Y6128464D01*
X3357736Y6196384D01*
X3210166Y6294987D01*
X3084667Y6420486D01*
X2986064Y6568056D01*
X2918144Y6732028D01*
X2883520Y6906099D01*
X2883520Y7083581D01*
X2918144Y7257652D01*
X2986064Y7421624D01*
X3084667Y7569194D01*
X3210166Y7694693D01*
X3357736Y7793296D01*
X3521708Y7861216D01*
X3671008Y7890913D01*
X3695778Y7895840D01*
X3873262Y7895840D01*
X3898032Y7890913D01*
G37*
G36*
X6438032Y7890913D02*
G01*
X6587332Y7861216D01*
X6751304Y7793296D01*
X6898874Y7694693D01*
X7024373Y7569194D01*
X7122976Y7421624D01*
X7190896Y7257652D01*
X7225520Y7083581D01*
X7225520Y6906099D01*
X7190896Y6732028D01*
X7122976Y6568056D01*
X7024373Y6420486D01*
X6898874Y6294987D01*
X6751304Y6196384D01*
X6587332Y6128464D01*
X6438032Y6098767D01*
X6413262Y6093840D01*
X6235778Y6093840D01*
X6211008Y6098767D01*
X6061708Y6128464D01*
X5897736Y6196384D01*
X5750166Y6294987D01*
X5624667Y6420486D01*
X5526064Y6568056D01*
X5458144Y6732028D01*
X5423520Y6906099D01*
X5423520Y7083581D01*
X5458144Y7257652D01*
X5526064Y7421624D01*
X5624667Y7569194D01*
X5750166Y7694693D01*
X5897736Y7793296D01*
X6061708Y7861216D01*
X6211008Y7890913D01*
X6235778Y7895840D01*
X6413262Y7895840D01*
X6438032Y7890913D01*
G37*
G36*
X14444448Y7058076D02*
G01*
X14465529Y7051680D01*
X14484965Y7041292D01*
X14501996Y7027316D01*
X14515972Y7010285D01*
X14526360Y6990849D01*
X14532756Y6969768D01*
X14535520Y6941700D01*
X14535520Y6477980D01*
X14532756Y6449912D01*
X14526360Y6428831D01*
X14515972Y6409395D01*
X14501996Y6392364D01*
X14484965Y6378388D01*
X14465529Y6368000D01*
X14444448Y6361604D01*
X14416380Y6358840D01*
X12602660Y6358840D01*
X12574592Y6361604D01*
X12553511Y6368000D01*
X12534075Y6378388D01*
X12517044Y6392364D01*
X12503068Y6409395D01*
X12492680Y6428831D01*
X12486284Y6449912D01*
X12483520Y6477980D01*
X12483520Y6941700D01*
X12486284Y6969768D01*
X12492680Y6990849D01*
X12503068Y7010285D01*
X12517044Y7027316D01*
X12534075Y7041292D01*
X12553511Y7051680D01*
X12574592Y7058076D01*
X12602660Y7060840D01*
X14416380Y7060840D01*
X14444448Y7058076D01*
G37*
G36*
X19394448Y7058076D02*
G01*
X19415529Y7051680D01*
X19434965Y7041292D01*
X19451996Y7027316D01*
X19465972Y7010285D01*
X19476360Y6990849D01*
X19482756Y6969768D01*
X19485520Y6941700D01*
X19485520Y6477980D01*
X19482756Y6449912D01*
X19476360Y6428831D01*
X19465972Y6409395D01*
X19451996Y6392364D01*
X19434965Y6378388D01*
X19415529Y6368000D01*
X19394448Y6361604D01*
X19366380Y6358840D01*
X17552660Y6358840D01*
X17524592Y6361604D01*
X17503511Y6368000D01*
X17484075Y6378388D01*
X17467044Y6392364D01*
X17453068Y6409395D01*
X17442680Y6428831D01*
X17436284Y6449912D01*
X17433520Y6477980D01*
X17433520Y6941700D01*
X17436284Y6969768D01*
X17442680Y6990849D01*
X17453068Y7010285D01*
X17467044Y7027316D01*
X17484075Y7041292D01*
X17503511Y7051680D01*
X17524592Y7058076D01*
X17552660Y7060840D01*
X19366380Y7060840D01*
X19394448Y7058076D01*
G37*
G36*
X14444448Y8328076D02*
G01*
X14465529Y8321680D01*
X14484965Y8311292D01*
X14501996Y8297316D01*
X14515972Y8280285D01*
X14526360Y8260849D01*
X14532756Y8239768D01*
X14535520Y8211700D01*
X14535520Y7747980D01*
X14532756Y7719912D01*
X14526360Y7698831D01*
X14515972Y7679395D01*
X14501996Y7662364D01*
X14484965Y7648388D01*
X14465529Y7638000D01*
X14444448Y7631604D01*
X14416380Y7628840D01*
X12602660Y7628840D01*
X12574592Y7631604D01*
X12553511Y7638000D01*
X12534075Y7648388D01*
X12517044Y7662364D01*
X12503068Y7679395D01*
X12492680Y7698831D01*
X12486284Y7719912D01*
X12483520Y7747980D01*
X12483520Y8211700D01*
X12486284Y8239768D01*
X12492680Y8260849D01*
X12503068Y8280285D01*
X12517044Y8297316D01*
X12534075Y8311292D01*
X12553511Y8321680D01*
X12574592Y8328076D01*
X12602660Y8330840D01*
X14416380Y8330840D01*
X14444448Y8328076D01*
G37*
G36*
X19394448Y8328076D02*
G01*
X19415529Y8321680D01*
X19434965Y8311292D01*
X19451996Y8297316D01*
X19465972Y8280285D01*
X19476360Y8260849D01*
X19482756Y8239768D01*
X19485520Y8211700D01*
X19485520Y7747980D01*
X19482756Y7719912D01*
X19476360Y7698831D01*
X19465972Y7679395D01*
X19451996Y7662364D01*
X19434965Y7648388D01*
X19415529Y7638000D01*
X19394448Y7631604D01*
X19366380Y7628840D01*
X17552660Y7628840D01*
X17524592Y7631604D01*
X17503511Y7638000D01*
X17484075Y7648388D01*
X17467044Y7662364D01*
X17453068Y7679395D01*
X17442680Y7698831D01*
X17436284Y7719912D01*
X17433520Y7747980D01*
X17433520Y8211700D01*
X17436284Y8239768D01*
X17442680Y8260849D01*
X17453068Y8280285D01*
X17467044Y8297316D01*
X17484075Y8311292D01*
X17503511Y8321680D01*
X17524592Y8328076D01*
X17552660Y8330840D01*
X19366380Y8330840D01*
X19394448Y8328076D01*
G37*
G36*
X24403988Y8883775D02*
G01*
X24442658Y8872044D01*
X24478297Y8852994D01*
X24509537Y8827357D01*
X24535174Y8796117D01*
X24554224Y8760478D01*
X24565955Y8721808D01*
X24570520Y8675452D01*
X24570520Y8024228D01*
X24565955Y7977872D01*
X24554224Y7939202D01*
X24535174Y7903563D01*
X24509537Y7872323D01*
X24478297Y7846686D01*
X24442658Y7827636D01*
X24403988Y7815905D01*
X24357632Y7811340D01*
X23281408Y7811340D01*
X23235052Y7815905D01*
X23196382Y7827636D01*
X23160743Y7846686D01*
X23129503Y7872323D01*
X23103866Y7903563D01*
X23084816Y7939202D01*
X23073085Y7977872D01*
X23068520Y8024228D01*
X23068520Y8675452D01*
X23073085Y8721808D01*
X23084816Y8760478D01*
X23103866Y8796117D01*
X23129503Y8827357D01*
X23160743Y8852994D01*
X23196382Y8872044D01*
X23235052Y8883775D01*
X23281408Y8888340D01*
X24357632Y8888340D01*
X24403988Y8883775D01*
G37*
G36*
X11293988Y9641275D02*
G01*
X11332658Y9629544D01*
X11368297Y9610494D01*
X11399537Y9584857D01*
X11425174Y9553617D01*
X11444224Y9517978D01*
X11455955Y9479308D01*
X11460520Y9432952D01*
X11460520Y8356728D01*
X11455955Y8310372D01*
X11444224Y8271702D01*
X11425174Y8236063D01*
X11399537Y8204823D01*
X11368297Y8179186D01*
X11332658Y8160136D01*
X11293988Y8148405D01*
X11247632Y8143840D01*
X10596408Y8143840D01*
X10550052Y8148405D01*
X10511382Y8160136D01*
X10475743Y8179186D01*
X10444503Y8204823D01*
X10418866Y8236063D01*
X10399816Y8271702D01*
X10388085Y8310372D01*
X10383520Y8356728D01*
X10383520Y9432952D01*
X10388085Y9479308D01*
X10399816Y9517978D01*
X10418866Y9553617D01*
X10444503Y9584857D01*
X10475743Y9610494D01*
X10511382Y9629544D01*
X10550052Y9641275D01*
X10596408Y9645840D01*
X11247632Y9645840D01*
X11293988Y9641275D01*
G37*
G36*
X9418988Y9641275D02*
G01*
X9457658Y9629544D01*
X9493297Y9610494D01*
X9524537Y9584857D01*
X9550174Y9553617D01*
X9569224Y9517978D01*
X9580955Y9479308D01*
X9585520Y9432952D01*
X9585520Y8356728D01*
X9580955Y8310372D01*
X9569224Y8271702D01*
X9550174Y8236063D01*
X9524537Y8204823D01*
X9493297Y8179186D01*
X9457658Y8160136D01*
X9418988Y8148405D01*
X9372632Y8143840D01*
X8721408Y8143840D01*
X8675052Y8148405D01*
X8636382Y8160136D01*
X8600743Y8179186D01*
X8569503Y8204823D01*
X8543866Y8236063D01*
X8524816Y8271702D01*
X8513085Y8310372D01*
X8508520Y8356728D01*
X8508520Y9432952D01*
X8513085Y9479308D01*
X8524816Y9517978D01*
X8543866Y9553617D01*
X8569503Y9584857D01*
X8600743Y9610494D01*
X8636382Y9629544D01*
X8675052Y9641275D01*
X8721408Y9645840D01*
X9372632Y9645840D01*
X9418988Y9641275D01*
G37*
G36*
X22143988Y9443775D02*
G01*
X22182658Y9432044D01*
X22218297Y9412994D01*
X22249537Y9387357D01*
X22275174Y9356117D01*
X22294224Y9320478D01*
X22305955Y9281808D01*
X22310520Y9235452D01*
X22310520Y8584228D01*
X22305955Y8537872D01*
X22294224Y8499202D01*
X22275174Y8463563D01*
X22249537Y8432323D01*
X22218297Y8406686D01*
X22182658Y8387636D01*
X22143988Y8375905D01*
X22097632Y8371340D01*
X21021408Y8371340D01*
X20975052Y8375905D01*
X20936382Y8387636D01*
X20900743Y8406686D01*
X20869503Y8432323D01*
X20843866Y8463563D01*
X20824816Y8499202D01*
X20813085Y8537872D01*
X20808520Y8584228D01*
X20808520Y9235452D01*
X20813085Y9281808D01*
X20824816Y9320478D01*
X20843866Y9356117D01*
X20869503Y9387357D01*
X20900743Y9412994D01*
X20936382Y9432044D01*
X20975052Y9443775D01*
X21021408Y9448340D01*
X22097632Y9448340D01*
X22143988Y9443775D01*
G37*
G36*
X35300256Y11768702D02*
G01*
X35406579Y11747553D01*
X35707042Y11623097D01*
X35977451Y11442415D01*
X36207415Y11212451D01*
X36388097Y10942042D01*
X36512553Y10641579D01*
X36518220Y10613090D01*
X36576000Y10322611D01*
X36576000Y9997389D01*
X36536269Y9797651D01*
X36512553Y9678421D01*
X36435542Y9492501D01*
X36398455Y9402963D01*
X36388097Y9377958D01*
X36207415Y9107549D01*
X35977451Y8877585D01*
X35707042Y8696903D01*
X35406579Y8572447D01*
X35300256Y8551298D01*
X35087611Y8509000D01*
X34762389Y8509000D01*
X34549744Y8551298D01*
X34443421Y8572447D01*
X34142958Y8696903D01*
X33872549Y8877585D01*
X33642585Y9107549D01*
X33461903Y9377958D01*
X33451546Y9402963D01*
X33414458Y9492501D01*
X33337447Y9678421D01*
X33313731Y9797651D01*
X33274000Y9997389D01*
X33274000Y10322611D01*
X33331780Y10613090D01*
X33337447Y10641579D01*
X33461903Y10942042D01*
X33642585Y11212451D01*
X33872549Y11442415D01*
X34142958Y11623097D01*
X34443421Y11747553D01*
X34549744Y11768702D01*
X34762389Y11811000D01*
X35087611Y11811000D01*
X35300256Y11768702D01*
G37*
G36*
X26775327Y10422701D02*
G01*
X26932812Y10391376D01*
X27096784Y10323456D01*
X27244354Y10224853D01*
X27369853Y10099354D01*
X27468456Y9951784D01*
X27536376Y9787812D01*
X27564615Y9645840D01*
X27571000Y9613742D01*
X27571000Y9436258D01*
X27568828Y9425340D01*
X27536376Y9262188D01*
X27468456Y9098216D01*
X27369853Y8950646D01*
X27244354Y8825147D01*
X27096784Y8726544D01*
X26932812Y8658624D01*
X26783512Y8628927D01*
X26758742Y8624000D01*
X26581258Y8624000D01*
X26556488Y8628927D01*
X26407188Y8658624D01*
X26243216Y8726544D01*
X26095646Y8825147D01*
X25970147Y8950646D01*
X25871544Y9098216D01*
X25803624Y9262188D01*
X25771172Y9425340D01*
X25769000Y9436258D01*
X25769000Y9613742D01*
X25775385Y9645840D01*
X25803624Y9787812D01*
X25871544Y9951784D01*
X25970147Y10099354D01*
X26095646Y10224853D01*
X26243216Y10323456D01*
X26407188Y10391376D01*
X26564673Y10422701D01*
X26581258Y10426000D01*
X26758742Y10426000D01*
X26775327Y10422701D01*
G37*
G36*
X6438032Y10430913D02*
G01*
X6587332Y10401216D01*
X6751304Y10333296D01*
X6898874Y10234693D01*
X7024373Y10109194D01*
X7122976Y9961624D01*
X7190896Y9797652D01*
X7225520Y9623581D01*
X7225520Y9446099D01*
X7190896Y9272028D01*
X7122976Y9108056D01*
X7024373Y8960486D01*
X6898874Y8834987D01*
X6751304Y8736384D01*
X6587332Y8668464D01*
X6447196Y8640590D01*
X6413262Y8633840D01*
X6235778Y8633840D01*
X6201844Y8640590D01*
X6061708Y8668464D01*
X5897736Y8736384D01*
X5750166Y8834987D01*
X5624667Y8960486D01*
X5526064Y9108056D01*
X5458144Y9272028D01*
X5423520Y9446099D01*
X5423520Y9623581D01*
X5458144Y9797652D01*
X5526064Y9961624D01*
X5624667Y10109194D01*
X5750166Y10234693D01*
X5897736Y10333296D01*
X6061708Y10401216D01*
X6211008Y10430913D01*
X6235778Y10435840D01*
X6413262Y10435840D01*
X6438032Y10430913D01*
G37*
G36*
X3898032Y10430913D02*
G01*
X4047332Y10401216D01*
X4211304Y10333296D01*
X4358874Y10234693D01*
X4484373Y10109194D01*
X4582976Y9961624D01*
X4650896Y9797652D01*
X4685520Y9623581D01*
X4685520Y9446099D01*
X4650896Y9272028D01*
X4582976Y9108056D01*
X4484373Y8960486D01*
X4358874Y8834987D01*
X4211304Y8736384D01*
X4047332Y8668464D01*
X3907196Y8640590D01*
X3873262Y8633840D01*
X3695778Y8633840D01*
X3661844Y8640590D01*
X3521708Y8668464D01*
X3357736Y8736384D01*
X3210166Y8834987D01*
X3084667Y8960486D01*
X2986064Y9108056D01*
X2918144Y9272028D01*
X2883520Y9446099D01*
X2883520Y9623581D01*
X2918144Y9797652D01*
X2986064Y9961624D01*
X3084667Y10109194D01*
X3210166Y10234693D01*
X3357736Y10333296D01*
X3521708Y10401216D01*
X3671008Y10430913D01*
X3695778Y10435840D01*
X3873262Y10435840D01*
X3898032Y10430913D01*
G37*
G36*
X19394448Y9598076D02*
G01*
X19415529Y9591680D01*
X19434965Y9581292D01*
X19451996Y9567316D01*
X19465972Y9550285D01*
X19476360Y9530849D01*
X19482756Y9509768D01*
X19485520Y9481700D01*
X19485520Y9017980D01*
X19482756Y8989912D01*
X19476360Y8968831D01*
X19465972Y8949395D01*
X19451996Y8932364D01*
X19434965Y8918388D01*
X19415529Y8908000D01*
X19394448Y8901604D01*
X19366380Y8898840D01*
X17552660Y8898840D01*
X17524592Y8901604D01*
X17503511Y8908000D01*
X17484075Y8918388D01*
X17467044Y8932364D01*
X17453068Y8949395D01*
X17442680Y8968831D01*
X17436284Y8989912D01*
X17433520Y9017980D01*
X17433520Y9481700D01*
X17436284Y9509768D01*
X17442680Y9530849D01*
X17453068Y9550285D01*
X17467044Y9567316D01*
X17484075Y9581292D01*
X17503511Y9591680D01*
X17524592Y9598076D01*
X17552660Y9600840D01*
X19366380Y9600840D01*
X19394448Y9598076D01*
G37*
G36*
X14444448Y9598076D02*
G01*
X14465529Y9591680D01*
X14484965Y9581292D01*
X14501996Y9567316D01*
X14515972Y9550285D01*
X14526360Y9530849D01*
X14532756Y9509768D01*
X14535520Y9481700D01*
X14535520Y9017980D01*
X14532756Y8989912D01*
X14526360Y8968831D01*
X14515972Y8949395D01*
X14501996Y8932364D01*
X14484965Y8918388D01*
X14465529Y8908000D01*
X14444448Y8901604D01*
X14416380Y8898840D01*
X12602660Y8898840D01*
X12574592Y8901604D01*
X12553511Y8908000D01*
X12534075Y8918388D01*
X12517044Y8932364D01*
X12503068Y8949395D01*
X12492680Y8968831D01*
X12486284Y8989912D01*
X12483520Y9017980D01*
X12483520Y9481700D01*
X12486284Y9509768D01*
X12492680Y9530849D01*
X12503068Y9550285D01*
X12517044Y9567316D01*
X12534075Y9581292D01*
X12553511Y9591680D01*
X12574592Y9598076D01*
X12602660Y9600840D01*
X14416380Y9600840D01*
X14444448Y9598076D01*
G37*
G36*
X24403988Y10758775D02*
G01*
X24442658Y10747044D01*
X24478297Y10727994D01*
X24509537Y10702357D01*
X24535174Y10671117D01*
X24554224Y10635478D01*
X24565955Y10596808D01*
X24570520Y10550452D01*
X24570520Y9899228D01*
X24565955Y9852872D01*
X24554224Y9814202D01*
X24535174Y9778563D01*
X24509537Y9747323D01*
X24478297Y9721686D01*
X24442658Y9702636D01*
X24403988Y9690905D01*
X24357632Y9686340D01*
X23281408Y9686340D01*
X23235052Y9690905D01*
X23196382Y9702636D01*
X23160743Y9721686D01*
X23129503Y9747323D01*
X23103866Y9778563D01*
X23084816Y9814202D01*
X23073085Y9852872D01*
X23068520Y9899228D01*
X23068520Y10550452D01*
X23073085Y10596808D01*
X23084816Y10635478D01*
X23103866Y10671117D01*
X23129503Y10702357D01*
X23160743Y10727994D01*
X23196382Y10747044D01*
X23235052Y10758775D01*
X23281408Y10763340D01*
X24357632Y10763340D01*
X24403988Y10758775D01*
G37*
G36*
X22143988Y11318775D02*
G01*
X22182658Y11307044D01*
X22218297Y11287994D01*
X22249537Y11262357D01*
X22275174Y11231117D01*
X22294224Y11195478D01*
X22305955Y11156808D01*
X22310520Y11110452D01*
X22310520Y10459228D01*
X22305955Y10412872D01*
X22294224Y10374202D01*
X22275174Y10338563D01*
X22249537Y10307323D01*
X22218297Y10281686D01*
X22182658Y10262636D01*
X22143988Y10250905D01*
X22097632Y10246340D01*
X21021408Y10246340D01*
X20975052Y10250905D01*
X20936382Y10262636D01*
X20900743Y10281686D01*
X20869503Y10307323D01*
X20843866Y10338563D01*
X20824816Y10374202D01*
X20813085Y10412872D01*
X20808520Y10459228D01*
X20808520Y11110452D01*
X20813085Y11156808D01*
X20824816Y11195478D01*
X20843866Y11231117D01*
X20869503Y11262357D01*
X20900743Y11287994D01*
X20936382Y11307044D01*
X20975052Y11318775D01*
X21021408Y11323340D01*
X22097632Y11323340D01*
X22143988Y11318775D01*
G37*
G36*
X17293988Y11841275D02*
G01*
X17332658Y11829544D01*
X17368297Y11810494D01*
X17399537Y11784857D01*
X17425174Y11753617D01*
X17444224Y11717978D01*
X17455955Y11679308D01*
X17460520Y11632952D01*
X17460520Y10556728D01*
X17455955Y10510372D01*
X17444224Y10471702D01*
X17425174Y10436063D01*
X17399537Y10404823D01*
X17368297Y10379186D01*
X17332658Y10360136D01*
X17293988Y10348405D01*
X17247632Y10343840D01*
X16596408Y10343840D01*
X16550052Y10348405D01*
X16511382Y10360136D01*
X16475743Y10379186D01*
X16444503Y10404823D01*
X16418866Y10436063D01*
X16399816Y10471702D01*
X16388085Y10510372D01*
X16383520Y10556728D01*
X16383520Y11632952D01*
X16388085Y11679308D01*
X16399816Y11717978D01*
X16418866Y11753617D01*
X16444503Y11784857D01*
X16475743Y11810494D01*
X16511382Y11829544D01*
X16550052Y11841275D01*
X16596408Y11845840D01*
X17247632Y11845840D01*
X17293988Y11841275D01*
G37*
G36*
X15418988Y11841275D02*
G01*
X15457658Y11829544D01*
X15493297Y11810494D01*
X15524537Y11784857D01*
X15550174Y11753617D01*
X15569224Y11717978D01*
X15580955Y11679308D01*
X15585520Y11632952D01*
X15585520Y10556728D01*
X15580955Y10510372D01*
X15569224Y10471702D01*
X15550174Y10436063D01*
X15524537Y10404823D01*
X15493297Y10379186D01*
X15457658Y10360136D01*
X15418988Y10348405D01*
X15372632Y10343840D01*
X14721408Y10343840D01*
X14675052Y10348405D01*
X14636382Y10360136D01*
X14600743Y10379186D01*
X14569503Y10404823D01*
X14543866Y10436063D01*
X14524816Y10471702D01*
X14513085Y10510372D01*
X14508520Y10556728D01*
X14508520Y11632952D01*
X14513085Y11679308D01*
X14524816Y11717978D01*
X14543866Y11753617D01*
X14569503Y11784857D01*
X14600743Y11810494D01*
X14636382Y11829544D01*
X14675052Y11841275D01*
X14721408Y11845840D01*
X15372632Y11845840D01*
X15418988Y11841275D01*
G37*
G36*
X26783512Y12961073D02*
G01*
X26932812Y12931376D01*
X27096784Y12863456D01*
X27244354Y12764853D01*
X27369853Y12639354D01*
X27468456Y12491784D01*
X27536376Y12327812D01*
X27571000Y12153741D01*
X27571000Y11976259D01*
X27536376Y11802188D01*
X27468456Y11638216D01*
X27369853Y11490646D01*
X27244354Y11365147D01*
X27096784Y11266544D01*
X26932812Y11198624D01*
X26783512Y11168927D01*
X26758742Y11164000D01*
X26581258Y11164000D01*
X26556488Y11168927D01*
X26407188Y11198624D01*
X26243216Y11266544D01*
X26095646Y11365147D01*
X25970147Y11490646D01*
X25871544Y11638216D01*
X25803624Y11802188D01*
X25769000Y11976259D01*
X25769000Y12153741D01*
X25803624Y12327812D01*
X25871544Y12491784D01*
X25970147Y12639354D01*
X26095646Y12764853D01*
X26243216Y12863456D01*
X26407188Y12931376D01*
X26556488Y12961073D01*
X26581258Y12966000D01*
X26758742Y12966000D01*
X26783512Y12961073D01*
G37*
G36*
X6438032Y12970913D02*
G01*
X6587332Y12941216D01*
X6751304Y12873296D01*
X6898874Y12774693D01*
X7024373Y12649194D01*
X7122976Y12501624D01*
X7190896Y12337652D01*
X7225520Y12163581D01*
X7225520Y11986099D01*
X7190896Y11812028D01*
X7122976Y11648056D01*
X7024373Y11500486D01*
X6898874Y11374987D01*
X6751304Y11276384D01*
X6587332Y11208464D01*
X6438032Y11178767D01*
X6413262Y11173840D01*
X6235778Y11173840D01*
X6211008Y11178767D01*
X6061708Y11208464D01*
X5897736Y11276384D01*
X5750166Y11374987D01*
X5624667Y11500486D01*
X5526064Y11648056D01*
X5458144Y11812028D01*
X5423520Y11986099D01*
X5423520Y12163581D01*
X5458144Y12337652D01*
X5526064Y12501624D01*
X5624667Y12649194D01*
X5750166Y12774693D01*
X5897736Y12873296D01*
X6061708Y12941216D01*
X6211008Y12970913D01*
X6235778Y12975840D01*
X6413262Y12975840D01*
X6438032Y12970913D01*
G37*
G36*
X3898032Y12970913D02*
G01*
X4047332Y12941216D01*
X4211304Y12873296D01*
X4358874Y12774693D01*
X4484373Y12649194D01*
X4582976Y12501624D01*
X4650896Y12337652D01*
X4685520Y12163581D01*
X4685520Y11986099D01*
X4650896Y11812028D01*
X4582976Y11648056D01*
X4484373Y11500486D01*
X4358874Y11374987D01*
X4211304Y11276384D01*
X4047332Y11208464D01*
X3898032Y11178767D01*
X3873262Y11173840D01*
X3695778Y11173840D01*
X3671008Y11178767D01*
X3521708Y11208464D01*
X3357736Y11276384D01*
X3210166Y11374987D01*
X3084667Y11500486D01*
X2986064Y11648056D01*
X2918144Y11812028D01*
X2883520Y11986099D01*
X2883520Y12163581D01*
X2918144Y12337652D01*
X2986064Y12501624D01*
X3084667Y12649194D01*
X3210166Y12774693D01*
X3357736Y12873296D01*
X3521708Y12941216D01*
X3671008Y12970913D01*
X3695778Y12975840D01*
X3873262Y12975840D01*
X3898032Y12970913D01*
G37*
G36*
X26783512Y15501073D02*
G01*
X26932812Y15471376D01*
X27096784Y15403456D01*
X27244354Y15304853D01*
X27369853Y15179354D01*
X27468456Y15031784D01*
X27536376Y14867812D01*
X27571000Y14693741D01*
X27571000Y14516259D01*
X27536376Y14342188D01*
X27468456Y14178216D01*
X27369853Y14030646D01*
X27244354Y13905147D01*
X27096784Y13806544D01*
X26932812Y13738624D01*
X26783512Y13708927D01*
X26758742Y13704000D01*
X26581258Y13704000D01*
X26556488Y13708927D01*
X26407188Y13738624D01*
X26243216Y13806544D01*
X26095646Y13905147D01*
X25970147Y14030646D01*
X25871544Y14178216D01*
X25803624Y14342188D01*
X25769000Y14516259D01*
X25769000Y14693741D01*
X25803624Y14867812D01*
X25871544Y15031784D01*
X25970147Y15179354D01*
X26095646Y15304853D01*
X26243216Y15403456D01*
X26407188Y15471376D01*
X26556488Y15501073D01*
X26581258Y15506000D01*
X26758742Y15506000D01*
X26783512Y15501073D01*
G37*
G36*
X6438032Y15510913D02*
G01*
X6587332Y15481216D01*
X6751304Y15413296D01*
X6898874Y15314693D01*
X7024373Y15189194D01*
X7122976Y15041624D01*
X7190896Y14877652D01*
X7225520Y14703581D01*
X7225520Y14526099D01*
X7190896Y14352028D01*
X7122976Y14188056D01*
X7024373Y14040486D01*
X6898874Y13914987D01*
X6751304Y13816384D01*
X6587332Y13748464D01*
X6438032Y13718767D01*
X6413262Y13713840D01*
X6235778Y13713840D01*
X6211008Y13718767D01*
X6061708Y13748464D01*
X5897736Y13816384D01*
X5750166Y13914987D01*
X5624667Y14040486D01*
X5526064Y14188056D01*
X5458144Y14352028D01*
X5423520Y14526099D01*
X5423520Y14703581D01*
X5458144Y14877652D01*
X5526064Y15041624D01*
X5624667Y15189194D01*
X5750166Y15314693D01*
X5897736Y15413296D01*
X6061708Y15481216D01*
X6211008Y15510913D01*
X6235778Y15515840D01*
X6413262Y15515840D01*
X6438032Y15510913D01*
G37*
G36*
X3898032Y15510913D02*
G01*
X4047332Y15481216D01*
X4211304Y15413296D01*
X4358874Y15314693D01*
X4484373Y15189194D01*
X4582976Y15041624D01*
X4650896Y14877652D01*
X4685520Y14703581D01*
X4685520Y14526099D01*
X4650896Y14352028D01*
X4582976Y14188056D01*
X4484373Y14040486D01*
X4358874Y13914987D01*
X4211304Y13816384D01*
X4047332Y13748464D01*
X3898032Y13718767D01*
X3873262Y13713840D01*
X3695778Y13713840D01*
X3671008Y13718767D01*
X3521708Y13748464D01*
X3357736Y13816384D01*
X3210166Y13914987D01*
X3084667Y14040486D01*
X2986064Y14188056D01*
X2918144Y14352028D01*
X2883520Y14526099D01*
X2883520Y14703581D01*
X2918144Y14877652D01*
X2986064Y15041624D01*
X3084667Y15189194D01*
X3210166Y15314693D01*
X3357736Y15413296D01*
X3521708Y15481216D01*
X3671008Y15510913D01*
X3695778Y15515840D01*
X3873262Y15515840D01*
X3898032Y15510913D01*
G37*
G36*
X35300256Y18118702D02*
G01*
X35406579Y18097553D01*
X35590875Y18021215D01*
X35691838Y17979395D01*
X35707042Y17973097D01*
X35977451Y17792415D01*
X36207415Y17562451D01*
X36375907Y17310285D01*
X36388098Y17292040D01*
X36408170Y17243582D01*
X36485762Y17056259D01*
X36512553Y16991578D01*
X36576000Y16672611D01*
X36576000Y16347389D01*
X36544537Y16189217D01*
X36512553Y16028421D01*
X36388097Y15727958D01*
X36207415Y15457549D01*
X35977451Y15227585D01*
X35707042Y15046903D01*
X35707041Y15046902D01*
X35707040Y15046902D01*
X35694293Y15041622D01*
X35406579Y14922447D01*
X35300256Y14901298D01*
X35087611Y14859000D01*
X34762389Y14859000D01*
X34549744Y14901298D01*
X34443421Y14922447D01*
X34155707Y15041622D01*
X34142960Y15046902D01*
X34142959Y15046902D01*
X34142958Y15046903D01*
X33872549Y15227585D01*
X33642585Y15457549D01*
X33461903Y15727958D01*
X33337447Y16028421D01*
X33305463Y16189217D01*
X33274000Y16347389D01*
X33274000Y16672611D01*
X33337447Y16991578D01*
X33364239Y17056259D01*
X33441830Y17243582D01*
X33461902Y17292040D01*
X33474093Y17310285D01*
X33642585Y17562451D01*
X33872549Y17792415D01*
X34142958Y17973097D01*
X34158163Y17979395D01*
X34259125Y18021215D01*
X34443421Y18097553D01*
X34549744Y18118702D01*
X34762389Y18161000D01*
X35087611Y18161000D01*
X35300256Y18118702D01*
G37*
G36*
X19394448Y16088076D02*
G01*
X19415529Y16081680D01*
X19434965Y16071292D01*
X19451996Y16057316D01*
X19465972Y16040285D01*
X19476360Y16020849D01*
X19482756Y15999768D01*
X19485520Y15971700D01*
X19485520Y15507980D01*
X19482756Y15479912D01*
X19476360Y15458831D01*
X19465972Y15439395D01*
X19451996Y15422364D01*
X19434965Y15408388D01*
X19415529Y15398000D01*
X19394448Y15391604D01*
X19366380Y15388840D01*
X17552660Y15388840D01*
X17524592Y15391604D01*
X17503511Y15398000D01*
X17484075Y15408388D01*
X17467044Y15422364D01*
X17453068Y15439395D01*
X17442680Y15458831D01*
X17436284Y15479912D01*
X17433520Y15507980D01*
X17433520Y15971700D01*
X17436284Y15999768D01*
X17442680Y16020849D01*
X17453068Y16040285D01*
X17467044Y16057316D01*
X17484075Y16071292D01*
X17503511Y16081680D01*
X17524592Y16088076D01*
X17552660Y16090840D01*
X19366380Y16090840D01*
X19394448Y16088076D01*
G37*
G36*
X14444448Y16088076D02*
G01*
X14465529Y16081680D01*
X14484965Y16071292D01*
X14501996Y16057316D01*
X14515972Y16040285D01*
X14526360Y16020849D01*
X14532756Y15999768D01*
X14535520Y15971700D01*
X14535520Y15507980D01*
X14532756Y15479912D01*
X14526360Y15458831D01*
X14515972Y15439395D01*
X14501996Y15422364D01*
X14484965Y15408388D01*
X14465529Y15398000D01*
X14444448Y15391604D01*
X14416380Y15388840D01*
X12602660Y15388840D01*
X12574592Y15391604D01*
X12553511Y15398000D01*
X12534075Y15408388D01*
X12517044Y15422364D01*
X12503068Y15439395D01*
X12492680Y15458831D01*
X12486284Y15479912D01*
X12483520Y15507980D01*
X12483520Y15971700D01*
X12486284Y15999768D01*
X12492680Y16020849D01*
X12503068Y16040285D01*
X12517044Y16057316D01*
X12534075Y16071292D01*
X12553511Y16081680D01*
X12574592Y16088076D01*
X12602660Y16090840D01*
X14416380Y16090840D01*
X14444448Y16088076D01*
G37*
G36*
X9418988Y17641275D02*
G01*
X9457658Y17629544D01*
X9493297Y17610494D01*
X9524537Y17584857D01*
X9550174Y17553617D01*
X9569224Y17517978D01*
X9580955Y17479308D01*
X9585520Y17432952D01*
X9585520Y16356728D01*
X9580955Y16310372D01*
X9569224Y16271702D01*
X9550174Y16236063D01*
X9524537Y16204823D01*
X9493297Y16179186D01*
X9457658Y16160136D01*
X9418988Y16148405D01*
X9372632Y16143840D01*
X8721408Y16143840D01*
X8675052Y16148405D01*
X8636382Y16160136D01*
X8600743Y16179186D01*
X8569503Y16204823D01*
X8543866Y16236063D01*
X8524816Y16271702D01*
X8513085Y16310372D01*
X8508520Y16356728D01*
X8508520Y17432952D01*
X8513085Y17479308D01*
X8524816Y17517978D01*
X8543866Y17553617D01*
X8569503Y17584857D01*
X8600743Y17610494D01*
X8636382Y17629544D01*
X8675052Y17641275D01*
X8721408Y17645840D01*
X9372632Y17645840D01*
X9418988Y17641275D01*
G37*
G36*
X11293988Y17641275D02*
G01*
X11332658Y17629544D01*
X11368297Y17610494D01*
X11399537Y17584857D01*
X11425174Y17553617D01*
X11444224Y17517978D01*
X11455955Y17479308D01*
X11460520Y17432952D01*
X11460520Y16356728D01*
X11455955Y16310372D01*
X11444224Y16271702D01*
X11425174Y16236063D01*
X11399537Y16204823D01*
X11368297Y16179186D01*
X11332658Y16160136D01*
X11293988Y16148405D01*
X11247632Y16143840D01*
X10596408Y16143840D01*
X10550052Y16148405D01*
X10511382Y16160136D01*
X10475743Y16179186D01*
X10444503Y16204823D01*
X10418866Y16236063D01*
X10399816Y16271702D01*
X10388085Y16310372D01*
X10383520Y16356728D01*
X10383520Y17432952D01*
X10388085Y17479308D01*
X10399816Y17517978D01*
X10418866Y17553617D01*
X10444503Y17584857D01*
X10475743Y17610494D01*
X10511382Y17629544D01*
X10550052Y17641275D01*
X10596408Y17645840D01*
X11247632Y17645840D01*
X11293988Y17641275D01*
G37*
G36*
X26783512Y18041073D02*
G01*
X26932812Y18011376D01*
X27096784Y17943456D01*
X27244354Y17844853D01*
X27369853Y17719354D01*
X27468456Y17571784D01*
X27536376Y17407812D01*
X27559404Y17292040D01*
X27567269Y17252501D01*
X27571000Y17233741D01*
X27571000Y17056259D01*
X27536376Y16882188D01*
X27468456Y16718216D01*
X27369853Y16570646D01*
X27244354Y16445147D01*
X27096784Y16346544D01*
X26932812Y16278624D01*
X26783512Y16248927D01*
X26758742Y16244000D01*
X26581258Y16244000D01*
X26556488Y16248927D01*
X26407188Y16278624D01*
X26243216Y16346544D01*
X26095646Y16445147D01*
X25970147Y16570646D01*
X25871544Y16718216D01*
X25803624Y16882188D01*
X25769000Y17056259D01*
X25769000Y17233741D01*
X25772732Y17252501D01*
X25780596Y17292040D01*
X25803624Y17407812D01*
X25871544Y17571784D01*
X25970147Y17719354D01*
X26095646Y17844853D01*
X26243216Y17943456D01*
X26407188Y18011376D01*
X26556488Y18041073D01*
X26581258Y18046000D01*
X26758742Y18046000D01*
X26783512Y18041073D01*
G37*
G36*
X3898032Y18050913D02*
G01*
X4047332Y18021216D01*
X4211304Y17953296D01*
X4358874Y17854693D01*
X4484373Y17729194D01*
X4582976Y17581624D01*
X4650896Y17417652D01*
X4685520Y17243581D01*
X4685520Y17066099D01*
X4650896Y16892028D01*
X4582976Y16728056D01*
X4484373Y16580486D01*
X4358874Y16454987D01*
X4211304Y16356384D01*
X4047332Y16288464D01*
X3898032Y16258767D01*
X3873262Y16253840D01*
X3695778Y16253840D01*
X3671008Y16258767D01*
X3521708Y16288464D01*
X3357736Y16356384D01*
X3210166Y16454987D01*
X3084667Y16580486D01*
X2986064Y16728056D01*
X2918144Y16892028D01*
X2883520Y17066099D01*
X2883520Y17243581D01*
X2918144Y17417652D01*
X2986064Y17581624D01*
X3084667Y17729194D01*
X3210166Y17854693D01*
X3357736Y17953296D01*
X3521708Y18021216D01*
X3671008Y18050913D01*
X3695778Y18055840D01*
X3873262Y18055840D01*
X3898032Y18050913D01*
G37*
G36*
X6438032Y18050913D02*
G01*
X6587332Y18021216D01*
X6751304Y17953296D01*
X6898874Y17854693D01*
X7024373Y17729194D01*
X7122976Y17581624D01*
X7190896Y17417652D01*
X7225520Y17243581D01*
X7225520Y17066099D01*
X7190896Y16892028D01*
X7122976Y16728056D01*
X7024373Y16580486D01*
X6898874Y16454987D01*
X6751304Y16356384D01*
X6587332Y16288464D01*
X6438032Y16258767D01*
X6413262Y16253840D01*
X6235778Y16253840D01*
X6211008Y16258767D01*
X6061708Y16288464D01*
X5897736Y16356384D01*
X5750166Y16454987D01*
X5624667Y16580486D01*
X5526064Y16728056D01*
X5458144Y16892028D01*
X5423520Y17066099D01*
X5423520Y17243581D01*
X5458144Y17417652D01*
X5526064Y17581624D01*
X5624667Y17729194D01*
X5750166Y17854693D01*
X5897736Y17953296D01*
X6061708Y18021216D01*
X6211008Y18050913D01*
X6235778Y18055840D01*
X6413262Y18055840D01*
X6438032Y18050913D01*
G37*
G36*
X19394448Y17358076D02*
G01*
X19415529Y17351680D01*
X19434965Y17341292D01*
X19451996Y17327316D01*
X19465972Y17310285D01*
X19476360Y17290849D01*
X19482756Y17269768D01*
X19485520Y17241700D01*
X19485520Y16777980D01*
X19482756Y16749912D01*
X19476360Y16728831D01*
X19465972Y16709395D01*
X19451996Y16692364D01*
X19434965Y16678388D01*
X19415529Y16668000D01*
X19394448Y16661604D01*
X19366380Y16658840D01*
X17552660Y16658840D01*
X17524592Y16661604D01*
X17503511Y16668000D01*
X17484075Y16678388D01*
X17467044Y16692364D01*
X17453068Y16709395D01*
X17442680Y16728831D01*
X17436284Y16749912D01*
X17433520Y16777980D01*
X17433520Y17241700D01*
X17436284Y17269768D01*
X17442680Y17290849D01*
X17453068Y17310285D01*
X17467044Y17327316D01*
X17484075Y17341292D01*
X17503511Y17351680D01*
X17524592Y17358076D01*
X17552660Y17360840D01*
X19366380Y17360840D01*
X19394448Y17358076D01*
G37*
G36*
X14444448Y17358076D02*
G01*
X14465529Y17351680D01*
X14484965Y17341292D01*
X14501996Y17327316D01*
X14515972Y17310285D01*
X14526360Y17290849D01*
X14532756Y17269768D01*
X14535520Y17241700D01*
X14535520Y16777980D01*
X14532756Y16749912D01*
X14526360Y16728831D01*
X14515972Y16709395D01*
X14501996Y16692364D01*
X14484965Y16678388D01*
X14465529Y16668000D01*
X14444448Y16661604D01*
X14416380Y16658840D01*
X12602660Y16658840D01*
X12574592Y16661604D01*
X12553511Y16668000D01*
X12534075Y16678388D01*
X12517044Y16692364D01*
X12503068Y16709395D01*
X12492680Y16728831D01*
X12486284Y16749912D01*
X12483520Y16777980D01*
X12483520Y17241700D01*
X12486284Y17269768D01*
X12492680Y17290849D01*
X12503068Y17310285D01*
X12517044Y17327316D01*
X12534075Y17341292D01*
X12553511Y17351680D01*
X12574592Y17358076D01*
X12602660Y17360840D01*
X14416380Y17360840D01*
X14444448Y17358076D01*
G37*
G36*
X14444448Y18628076D02*
G01*
X14465529Y18621680D01*
X14484965Y18611292D01*
X14501996Y18597316D01*
X14515972Y18580285D01*
X14526360Y18560849D01*
X14532756Y18539768D01*
X14535520Y18511700D01*
X14535520Y18047980D01*
X14532756Y18019912D01*
X14526360Y17998831D01*
X14515972Y17979395D01*
X14501996Y17962364D01*
X14484965Y17948388D01*
X14465529Y17938000D01*
X14444448Y17931604D01*
X14416380Y17928840D01*
X12602660Y17928840D01*
X12574592Y17931604D01*
X12553511Y17938000D01*
X12534075Y17948388D01*
X12517044Y17962364D01*
X12503068Y17979395D01*
X12492680Y17998831D01*
X12486284Y18019912D01*
X12483520Y18047980D01*
X12483520Y18511700D01*
X12486284Y18539768D01*
X12492680Y18560849D01*
X12503068Y18580285D01*
X12517044Y18597316D01*
X12534075Y18611292D01*
X12553511Y18621680D01*
X12574592Y18628076D01*
X12602660Y18630840D01*
X14416380Y18630840D01*
X14444448Y18628076D01*
G37*
G36*
X19394448Y18628076D02*
G01*
X19415529Y18621680D01*
X19434965Y18611292D01*
X19451996Y18597316D01*
X19465972Y18580285D01*
X19476360Y18560849D01*
X19482756Y18539768D01*
X19485520Y18511700D01*
X19485520Y18047980D01*
X19482756Y18019912D01*
X19476360Y17998831D01*
X19465972Y17979395D01*
X19451996Y17962364D01*
X19434965Y17948388D01*
X19415529Y17938000D01*
X19394448Y17931604D01*
X19366380Y17928840D01*
X17552660Y17928840D01*
X17524592Y17931604D01*
X17503511Y17938000D01*
X17484075Y17948388D01*
X17467044Y17962364D01*
X17453068Y17979395D01*
X17442680Y17998831D01*
X17436284Y18019912D01*
X17433520Y18047980D01*
X17433520Y18511700D01*
X17436284Y18539768D01*
X17442680Y18560849D01*
X17453068Y18580285D01*
X17467044Y18597316D01*
X17484075Y18611292D01*
X17503511Y18621680D01*
X17524592Y18628076D01*
X17552660Y18630840D01*
X19366380Y18630840D01*
X19394448Y18628076D01*
G37*
G36*
X9418988Y19841275D02*
G01*
X9457658Y19829544D01*
X9493297Y19810494D01*
X9524537Y19784857D01*
X9550174Y19753617D01*
X9569224Y19717978D01*
X9580955Y19679308D01*
X9585520Y19632952D01*
X9585520Y18556728D01*
X9580955Y18510372D01*
X9569224Y18471702D01*
X9550174Y18436063D01*
X9524537Y18404823D01*
X9493297Y18379186D01*
X9457658Y18360136D01*
X9418988Y18348405D01*
X9372632Y18343840D01*
X8721408Y18343840D01*
X8675052Y18348405D01*
X8636382Y18360136D01*
X8600743Y18379186D01*
X8569503Y18404823D01*
X8543866Y18436063D01*
X8524816Y18471702D01*
X8513085Y18510372D01*
X8508520Y18556728D01*
X8508520Y19632952D01*
X8513085Y19679308D01*
X8524816Y19717978D01*
X8543866Y19753617D01*
X8569503Y19784857D01*
X8600743Y19810494D01*
X8636382Y19829544D01*
X8675052Y19841275D01*
X8721408Y19845840D01*
X9372632Y19845840D01*
X9418988Y19841275D01*
G37*
G36*
X11293988Y19841275D02*
G01*
X11332658Y19829544D01*
X11368297Y19810494D01*
X11399537Y19784857D01*
X11425174Y19753617D01*
X11444224Y19717978D01*
X11455955Y19679308D01*
X11460520Y19632952D01*
X11460520Y18556728D01*
X11455955Y18510372D01*
X11444224Y18471702D01*
X11425174Y18436063D01*
X11399537Y18404823D01*
X11368297Y18379186D01*
X11332658Y18360136D01*
X11293988Y18348405D01*
X11247632Y18343840D01*
X10596408Y18343840D01*
X10550052Y18348405D01*
X10511382Y18360136D01*
X10475743Y18379186D01*
X10444503Y18404823D01*
X10418866Y18436063D01*
X10399816Y18471702D01*
X10388085Y18510372D01*
X10383520Y18556728D01*
X10383520Y19632952D01*
X10388085Y19679308D01*
X10399816Y19717978D01*
X10418866Y19753617D01*
X10444503Y19784857D01*
X10475743Y19810494D01*
X10511382Y19829544D01*
X10550052Y19841275D01*
X10596408Y19845840D01*
X11247632Y19845840D01*
X11293988Y19841275D01*
G37*
G36*
X24303988Y19483775D02*
G01*
X24342658Y19472044D01*
X24378297Y19452994D01*
X24409537Y19427357D01*
X24435174Y19396117D01*
X24454224Y19360478D01*
X24465955Y19321808D01*
X24470520Y19275452D01*
X24470520Y18624228D01*
X24465955Y18577872D01*
X24454224Y18539202D01*
X24435174Y18503563D01*
X24409537Y18472323D01*
X24378297Y18446686D01*
X24342658Y18427636D01*
X24303988Y18415905D01*
X24257632Y18411340D01*
X23181408Y18411340D01*
X23135052Y18415905D01*
X23096382Y18427636D01*
X23060743Y18446686D01*
X23029503Y18472323D01*
X23003866Y18503563D01*
X22984816Y18539202D01*
X22973085Y18577872D01*
X22968520Y18624228D01*
X22968520Y19275452D01*
X22973085Y19321808D01*
X22984816Y19360478D01*
X23003866Y19396117D01*
X23029503Y19427357D01*
X23060743Y19452994D01*
X23096382Y19472044D01*
X23135052Y19483775D01*
X23181408Y19488340D01*
X24257632Y19488340D01*
X24303988Y19483775D01*
G37*
G36*
X26783512Y20581073D02*
G01*
X26932812Y20551376D01*
X27096784Y20483456D01*
X27244354Y20384853D01*
X27369853Y20259354D01*
X27468456Y20111784D01*
X27536376Y19947812D01*
X27563834Y19809768D01*
X27567269Y19792501D01*
X27571000Y19773741D01*
X27571000Y19596259D01*
X27536376Y19422188D01*
X27468456Y19258216D01*
X27369853Y19110646D01*
X27244354Y18985147D01*
X27096784Y18886544D01*
X26932812Y18818624D01*
X26783512Y18788927D01*
X26758742Y18784000D01*
X26581258Y18784000D01*
X26556488Y18788927D01*
X26407188Y18818624D01*
X26243216Y18886544D01*
X26095646Y18985147D01*
X25970147Y19110646D01*
X25871544Y19258216D01*
X25803624Y19422188D01*
X25769000Y19596259D01*
X25769000Y19773741D01*
X25772732Y19792501D01*
X25776166Y19809768D01*
X25803624Y19947812D01*
X25871544Y20111784D01*
X25970147Y20259354D01*
X26095646Y20384853D01*
X26243216Y20483456D01*
X26407188Y20551376D01*
X26556488Y20581073D01*
X26581258Y20586000D01*
X26758742Y20586000D01*
X26783512Y20581073D01*
G37*
G36*
X4685520Y18793840D02*
G01*
X2883520Y18793840D01*
X2883520Y20595840D01*
X4685520Y20595840D01*
X4685520Y18793840D01*
G37*
G36*
X6438032Y20590913D02*
G01*
X6587332Y20561216D01*
X6751304Y20493296D01*
X6898874Y20394693D01*
X7024373Y20269194D01*
X7122976Y20121624D01*
X7190896Y19957652D01*
X7225520Y19783581D01*
X7225520Y19606099D01*
X7190896Y19432028D01*
X7122976Y19268056D01*
X7024373Y19120486D01*
X6898874Y18994987D01*
X6751304Y18896384D01*
X6587332Y18828464D01*
X6438032Y18798767D01*
X6413262Y18793840D01*
X6235778Y18793840D01*
X6211008Y18798767D01*
X6061708Y18828464D01*
X5897736Y18896384D01*
X5750166Y18994987D01*
X5624667Y19120486D01*
X5526064Y19268056D01*
X5458144Y19432028D01*
X5423520Y19606099D01*
X5423520Y19783581D01*
X5458144Y19957652D01*
X5526064Y20121624D01*
X5624667Y20269194D01*
X5750166Y20394693D01*
X5897736Y20493296D01*
X6061708Y20561216D01*
X6211008Y20590913D01*
X6235778Y20595840D01*
X6413262Y20595840D01*
X6438032Y20590913D01*
G37*
G36*
X22143988Y19906275D02*
G01*
X22182658Y19894544D01*
X22218297Y19875494D01*
X22249537Y19849857D01*
X22275174Y19818617D01*
X22294224Y19782978D01*
X22305955Y19744308D01*
X22310520Y19697952D01*
X22310520Y19046728D01*
X22305955Y19000372D01*
X22294224Y18961702D01*
X22275174Y18926063D01*
X22249537Y18894823D01*
X22218297Y18869186D01*
X22182658Y18850136D01*
X22143988Y18838405D01*
X22097632Y18833840D01*
X21021408Y18833840D01*
X20975052Y18838405D01*
X20936382Y18850136D01*
X20900743Y18869186D01*
X20869503Y18894823D01*
X20843866Y18926063D01*
X20824816Y18961702D01*
X20813085Y19000372D01*
X20808520Y19046728D01*
X20808520Y19697952D01*
X20813085Y19744308D01*
X20824816Y19782978D01*
X20843866Y19818617D01*
X20869503Y19849857D01*
X20900743Y19875494D01*
X20936382Y19894544D01*
X20975052Y19906275D01*
X21021408Y19910840D01*
X22097632Y19910840D01*
X22143988Y19906275D01*
G37*
G36*
X19394448Y19898076D02*
G01*
X19415529Y19891680D01*
X19434965Y19881292D01*
X19451996Y19867316D01*
X19465972Y19850285D01*
X19476360Y19830849D01*
X19482756Y19809768D01*
X19485520Y19781700D01*
X19485520Y19317980D01*
X19482756Y19289912D01*
X19476360Y19268831D01*
X19465972Y19249395D01*
X19451996Y19232364D01*
X19434965Y19218388D01*
X19415529Y19208000D01*
X19394448Y19201604D01*
X19366380Y19198840D01*
X17552660Y19198840D01*
X17524592Y19201604D01*
X17503511Y19208000D01*
X17484075Y19218388D01*
X17467044Y19232364D01*
X17453068Y19249395D01*
X17442680Y19268831D01*
X17436284Y19289912D01*
X17433520Y19317980D01*
X17433520Y19781700D01*
X17436284Y19809768D01*
X17442680Y19830849D01*
X17453068Y19850285D01*
X17467044Y19867316D01*
X17484075Y19881292D01*
X17503511Y19891680D01*
X17524592Y19898076D01*
X17552660Y19900840D01*
X19366380Y19900840D01*
X19394448Y19898076D01*
G37*
G36*
X14444448Y19898076D02*
G01*
X14465529Y19891680D01*
X14484965Y19881292D01*
X14501996Y19867316D01*
X14515972Y19850285D01*
X14526360Y19830849D01*
X14532756Y19809768D01*
X14535520Y19781700D01*
X14535520Y19317980D01*
X14532756Y19289912D01*
X14526360Y19268831D01*
X14515972Y19249395D01*
X14501996Y19232364D01*
X14484965Y19218388D01*
X14465529Y19208000D01*
X14444448Y19201604D01*
X14416380Y19198840D01*
X12602660Y19198840D01*
X12574592Y19201604D01*
X12553511Y19208000D01*
X12534075Y19218388D01*
X12517044Y19232364D01*
X12503068Y19249395D01*
X12492680Y19268831D01*
X12486284Y19289912D01*
X12483520Y19317980D01*
X12483520Y19781700D01*
X12486284Y19809768D01*
X12492680Y19830849D01*
X12503068Y19850285D01*
X12517044Y19867316D01*
X12534075Y19881292D01*
X12553511Y19891680D01*
X12574592Y19898076D01*
X12602660Y19900840D01*
X14416380Y19900840D01*
X14444448Y19898076D01*
G37*
G36*
X24303988Y21358775D02*
G01*
X24342658Y21347044D01*
X24378297Y21327994D01*
X24409537Y21302357D01*
X24435174Y21271117D01*
X24454224Y21235478D01*
X24465955Y21196808D01*
X24470520Y21150452D01*
X24470520Y20499228D01*
X24465955Y20452872D01*
X24454224Y20414202D01*
X24435174Y20378563D01*
X24409537Y20347323D01*
X24378297Y20321686D01*
X24342658Y20302636D01*
X24303988Y20290905D01*
X24257632Y20286340D01*
X23181408Y20286340D01*
X23135052Y20290905D01*
X23096382Y20302636D01*
X23060743Y20321686D01*
X23029503Y20347323D01*
X23003866Y20378563D01*
X22984816Y20414202D01*
X22973085Y20452872D01*
X22968520Y20499228D01*
X22968520Y21150452D01*
X22973085Y21196808D01*
X22984816Y21235478D01*
X23003866Y21271117D01*
X23029503Y21302357D01*
X23060743Y21327994D01*
X23096382Y21347044D01*
X23135052Y21358775D01*
X23181408Y21363340D01*
X24257632Y21363340D01*
X24303988Y21358775D01*
G37*
G36*
X22143988Y21781275D02*
G01*
X22182658Y21769544D01*
X22218297Y21750494D01*
X22249537Y21724857D01*
X22275174Y21693617D01*
X22294224Y21657978D01*
X22305955Y21619308D01*
X22310520Y21572952D01*
X22310520Y20921728D01*
X22305955Y20875372D01*
X22294224Y20836702D01*
X22275174Y20801063D01*
X22249537Y20769823D01*
X22218297Y20744186D01*
X22182658Y20725136D01*
X22143988Y20713405D01*
X22097632Y20708840D01*
X21021408Y20708840D01*
X20975052Y20713405D01*
X20936382Y20725136D01*
X20900743Y20744186D01*
X20869503Y20769823D01*
X20843866Y20801063D01*
X20824816Y20836702D01*
X20813085Y20875372D01*
X20808520Y20921728D01*
X20808520Y21572952D01*
X20813085Y21619308D01*
X20824816Y21657978D01*
X20843866Y21693617D01*
X20869503Y21724857D01*
X20900743Y21750494D01*
X20936382Y21769544D01*
X20975052Y21781275D01*
X21021408Y21785840D01*
X22097632Y21785840D01*
X22143988Y21781275D01*
G37*
G36*
X17293988Y22441275D02*
G01*
X17332658Y22429544D01*
X17368297Y22410494D01*
X17399537Y22384857D01*
X17425174Y22353617D01*
X17444224Y22317978D01*
X17455955Y22279308D01*
X17460520Y22232952D01*
X17460520Y21156728D01*
X17455955Y21110372D01*
X17444224Y21071702D01*
X17425174Y21036063D01*
X17399537Y21004823D01*
X17368297Y20979186D01*
X17332658Y20960136D01*
X17293988Y20948405D01*
X17247632Y20943840D01*
X16596408Y20943840D01*
X16550052Y20948405D01*
X16511382Y20960136D01*
X16475743Y20979186D01*
X16444503Y21004823D01*
X16418866Y21036063D01*
X16399816Y21071702D01*
X16388085Y21110372D01*
X16383520Y21156728D01*
X16383520Y22232952D01*
X16388085Y22279308D01*
X16399816Y22317978D01*
X16418866Y22353617D01*
X16444503Y22384857D01*
X16475743Y22410494D01*
X16511382Y22429544D01*
X16550052Y22441275D01*
X16596408Y22445840D01*
X17247632Y22445840D01*
X17293988Y22441275D01*
G37*
G36*
X15418988Y22441275D02*
G01*
X15457658Y22429544D01*
X15493297Y22410494D01*
X15524537Y22384857D01*
X15550174Y22353617D01*
X15569224Y22317978D01*
X15580955Y22279308D01*
X15585520Y22232952D01*
X15585520Y21156728D01*
X15580955Y21110372D01*
X15569224Y21071702D01*
X15550174Y21036063D01*
X15524537Y21004823D01*
X15493297Y20979186D01*
X15457658Y20960136D01*
X15418988Y20948405D01*
X15372632Y20943840D01*
X14721408Y20943840D01*
X14675052Y20948405D01*
X14636382Y20960136D01*
X14600743Y20979186D01*
X14569503Y21004823D01*
X14543866Y21036063D01*
X14524816Y21071702D01*
X14513085Y21110372D01*
X14508520Y21156728D01*
X14508520Y22232952D01*
X14513085Y22279308D01*
X14524816Y22317978D01*
X14543866Y22353617D01*
X14569503Y22384857D01*
X14600743Y22410494D01*
X14636382Y22429544D01*
X14675052Y22441275D01*
X14721408Y22445840D01*
X15372632Y22445840D01*
X15418988Y22441275D01*
G37*
G36*
X35300256Y24468702D02*
G01*
X35406579Y24447553D01*
X35707042Y24323097D01*
X35977451Y24142415D01*
X36207415Y23912451D01*
X36207416Y23912449D01*
X36388098Y23642040D01*
X36512553Y23341578D01*
X36576000Y23022611D01*
X36576000Y22697389D01*
X36566928Y22651782D01*
X36512553Y22378421D01*
X36388097Y22077958D01*
X36207415Y21807549D01*
X35977451Y21577585D01*
X35707042Y21396903D01*
X35406579Y21272447D01*
X35300256Y21251298D01*
X35087611Y21209000D01*
X34762389Y21209000D01*
X34549744Y21251298D01*
X34443421Y21272447D01*
X34142958Y21396903D01*
X33872549Y21577585D01*
X33642585Y21807549D01*
X33461903Y22077958D01*
X33337447Y22378421D01*
X33283072Y22651782D01*
X33274000Y22697389D01*
X33274000Y23022611D01*
X33337447Y23341578D01*
X33461902Y23642040D01*
X33642584Y23912449D01*
X33642585Y23912451D01*
X33872549Y24142415D01*
X34142958Y24323097D01*
X34443421Y24447553D01*
X34549744Y24468702D01*
X34762389Y24511000D01*
X35087611Y24511000D01*
X35300256Y24468702D01*
G37*
G36*
X26783512Y23121073D02*
G01*
X26932812Y23091376D01*
X27096784Y23023456D01*
X27244354Y22924853D01*
X27369853Y22799354D01*
X27468456Y22651784D01*
X27536376Y22487812D01*
X27571000Y22313741D01*
X27571000Y22136259D01*
X27536376Y21962188D01*
X27468456Y21798216D01*
X27369853Y21650646D01*
X27244354Y21525147D01*
X27096784Y21426544D01*
X26932812Y21358624D01*
X26783512Y21328927D01*
X26758742Y21324000D01*
X26581258Y21324000D01*
X26556488Y21328927D01*
X26407188Y21358624D01*
X26243216Y21426544D01*
X26095646Y21525147D01*
X25970147Y21650646D01*
X25871544Y21798216D01*
X25803624Y21962188D01*
X25769000Y22136259D01*
X25769000Y22313741D01*
X25803624Y22487812D01*
X25871544Y22651784D01*
X25970147Y22799354D01*
X26095646Y22924853D01*
X26243216Y23023456D01*
X26407188Y23091376D01*
X26556488Y23121073D01*
X26581258Y23126000D01*
X26758742Y23126000D01*
X26783512Y23121073D01*
G37*
G36*
X27571000Y23864000D02*
G01*
X25769000Y23864000D01*
X25769000Y25666000D01*
X27571000Y25666000D01*
X27571000Y23864000D01*
G37*
M02*
