G04 #@! TF.GenerationSoftware,KiCad,Pcbnew,5.1.5-52549c5~86~ubuntu19.10.1*
G04 #@! TF.CreationDate,2020-05-04T22:04:25+01:00*
G04 #@! TF.ProjectId,pmod-dualrs422,706d6f64-2d64-4756-916c-72733432322e,rev?*
G04 #@! TF.SameCoordinates,PXccb7580PY7aec778*
G04 #@! TF.FileFunction,Legend,Top*
G04 #@! TF.FilePolarity,Positive*
%FSLAX46Y46*%
G04 Gerber Fmt 4.6, Leading zero omitted, Abs format (unit mm)*
G04 Created by KiCad (PCBNEW 5.1.5-52549c5~86~ubuntu19.10.1) date 2020-05-04 22:04:25*
%MOMM*%
%LPD*%
G04 APERTURE LIST*
%ADD10C,0.120000*%
%ADD11C,0.150000*%
G04 APERTURE END LIST*
D10*
X0Y22225000D02*
X0Y9525000D01*
X0Y9525000D02*
X0Y22225000D01*
X25400000Y26035000D02*
X26670000Y26035000D01*
X25400000Y24765000D02*
X25400000Y26035000D01*
X27712929Y1525000D02*
X28110000Y1525000D01*
X27712929Y2285000D02*
X28110000Y2285000D01*
X36770000Y1525000D02*
X30770000Y1525000D01*
X36770000Y2285000D02*
X36770000Y1525000D01*
X30770000Y2285000D02*
X36770000Y2285000D01*
X28110000Y3175000D02*
X30770000Y3175000D01*
X27712929Y4065000D02*
X28110000Y4065000D01*
X27712929Y4825000D02*
X28110000Y4825000D01*
X36770000Y4065000D02*
X30770000Y4065000D01*
X36770000Y4825000D02*
X36770000Y4065000D01*
X30770000Y4825000D02*
X36770000Y4825000D01*
X28110000Y5715000D02*
X30770000Y5715000D01*
X27712929Y6605000D02*
X28110000Y6605000D01*
X27712929Y7365000D02*
X28110000Y7365000D01*
X36770000Y6605000D02*
X30770000Y6605000D01*
X36770000Y7365000D02*
X36770000Y6605000D01*
X30770000Y7365000D02*
X36770000Y7365000D01*
X28110000Y8255000D02*
X30770000Y8255000D01*
X27712929Y9145000D02*
X28110000Y9145000D01*
X27712929Y9905000D02*
X28110000Y9905000D01*
X36770000Y9145000D02*
X30770000Y9145000D01*
X36770000Y9905000D02*
X36770000Y9145000D01*
X30770000Y9905000D02*
X36770000Y9905000D01*
X28110000Y10795000D02*
X30770000Y10795000D01*
X27712929Y11685000D02*
X28110000Y11685000D01*
X27712929Y12445000D02*
X28110000Y12445000D01*
X36770000Y11685000D02*
X30770000Y11685000D01*
X36770000Y12445000D02*
X36770000Y11685000D01*
X30770000Y12445000D02*
X36770000Y12445000D01*
X28110000Y13335000D02*
X30770000Y13335000D01*
X27712929Y14225000D02*
X28110000Y14225000D01*
X27712929Y14985000D02*
X28110000Y14985000D01*
X36770000Y14225000D02*
X30770000Y14225000D01*
X36770000Y14985000D02*
X36770000Y14225000D01*
X30770000Y14985000D02*
X36770000Y14985000D01*
X28110000Y15875000D02*
X30770000Y15875000D01*
X27712929Y16765000D02*
X28110000Y16765000D01*
X27712929Y17525000D02*
X28110000Y17525000D01*
X36770000Y16765000D02*
X30770000Y16765000D01*
X36770000Y17525000D02*
X36770000Y16765000D01*
X30770000Y17525000D02*
X36770000Y17525000D01*
X28110000Y18415000D02*
X30770000Y18415000D01*
X27712929Y19305000D02*
X28110000Y19305000D01*
X27712929Y20065000D02*
X28110000Y20065000D01*
X36770000Y19305000D02*
X30770000Y19305000D01*
X36770000Y20065000D02*
X36770000Y19305000D01*
X30770000Y20065000D02*
X36770000Y20065000D01*
X28110000Y20955000D02*
X30770000Y20955000D01*
X27712929Y21845000D02*
X28110000Y21845000D01*
X27712929Y22605000D02*
X28110000Y22605000D01*
X36770000Y21845000D02*
X30770000Y21845000D01*
X36770000Y22605000D02*
X36770000Y21845000D01*
X30770000Y22605000D02*
X36770000Y22605000D01*
X28110000Y23495000D02*
X30770000Y23495000D01*
X27780000Y24385000D02*
X28110000Y24385000D01*
X27780000Y25145000D02*
X28110000Y25145000D01*
X30770000Y24485000D02*
X36770000Y24485000D01*
X30770000Y24605000D02*
X36770000Y24605000D01*
X30770000Y24725000D02*
X36770000Y24725000D01*
X30770000Y24845000D02*
X36770000Y24845000D01*
X30770000Y24965000D02*
X36770000Y24965000D01*
X30770000Y25085000D02*
X36770000Y25085000D01*
X36770000Y24385000D02*
X30770000Y24385000D01*
X36770000Y25145000D02*
X36770000Y24385000D01*
X30770000Y25145000D02*
X36770000Y25145000D01*
X30770000Y26095000D02*
X28110000Y26095000D01*
X30770000Y575000D02*
X30770000Y26095000D01*
X28110000Y575000D02*
X30770000Y575000D01*
X28110000Y26095000D02*
X28110000Y575000D01*
X15725942Y20984840D02*
X16243098Y20984840D01*
X15725942Y22404840D02*
X16243098Y22404840D01*
X10243098Y7404840D02*
X9725942Y7404840D01*
X10243098Y5984840D02*
X9725942Y5984840D01*
X10243098Y9604840D02*
X9725942Y9604840D01*
X10243098Y8184840D02*
X9725942Y8184840D01*
X10243098Y17604840D02*
X9725942Y17604840D01*
X10243098Y16184840D02*
X9725942Y16184840D01*
X10243098Y19804840D02*
X9725942Y19804840D01*
X10243098Y18384840D02*
X9725942Y18384840D01*
X2454520Y21024840D02*
X3784520Y21024840D01*
X2454520Y19694840D02*
X2454520Y21024840D01*
X5054520Y21024840D02*
X7654520Y21024840D01*
X5054520Y18424840D02*
X5054520Y21024840D01*
X2454520Y18424840D02*
X5054520Y18424840D01*
X7654520Y21024840D02*
X7654520Y5664840D01*
X2454520Y18424840D02*
X2454520Y5664840D01*
X2454520Y5664840D02*
X7654520Y5664840D01*
X15984520Y9904840D02*
X12534520Y9904840D01*
X15984520Y9904840D02*
X17934520Y9904840D01*
X15984520Y4784840D02*
X14034520Y4784840D01*
X15984520Y4784840D02*
X17934520Y4784840D01*
X15984520Y20204840D02*
X12534520Y20204840D01*
X15984520Y20204840D02*
X17934520Y20204840D01*
X15984520Y15084840D02*
X14034520Y15084840D01*
X15984520Y15084840D02*
X17934520Y15084840D01*
X20849520Y10105918D02*
X20849520Y9588762D01*
X22269520Y10105918D02*
X22269520Y9588762D01*
X20849520Y20568418D02*
X20849520Y20051262D01*
X22269520Y20568418D02*
X22269520Y20051262D01*
X23109520Y9545918D02*
X23109520Y9028762D01*
X24529520Y9545918D02*
X24529520Y9028762D01*
X23009520Y20145918D02*
X23009520Y19628762D01*
X24429520Y20145918D02*
X24429520Y19628762D01*
X15725942Y10384840D02*
X16243098Y10384840D01*
X15725942Y11804840D02*
X16243098Y11804840D01*
D11*
X23796666Y25312620D02*
X23796666Y24598334D01*
X23749047Y24455477D01*
X23653809Y24360239D01*
X23510952Y24312620D01*
X23415714Y24312620D01*
X24225238Y25217381D02*
X24272857Y25265000D01*
X24368095Y25312620D01*
X24606190Y25312620D01*
X24701428Y25265000D01*
X24749047Y25217381D01*
X24796666Y25122143D01*
X24796666Y25026905D01*
X24749047Y24884048D01*
X24177619Y24312620D01*
X24796666Y24312620D01*
X15771833Y23137858D02*
X15724214Y23090239D01*
X15581357Y23042620D01*
X15486119Y23042620D01*
X15343261Y23090239D01*
X15248023Y23185477D01*
X15200404Y23280715D01*
X15152785Y23471191D01*
X15152785Y23614048D01*
X15200404Y23804524D01*
X15248023Y23899762D01*
X15343261Y23995000D01*
X15486119Y24042620D01*
X15581357Y24042620D01*
X15724214Y23995000D01*
X15771833Y23947381D01*
X16152785Y23947381D02*
X16200404Y23995000D01*
X16295642Y24042620D01*
X16533738Y24042620D01*
X16628976Y23995000D01*
X16676595Y23947381D01*
X16724214Y23852143D01*
X16724214Y23756905D01*
X16676595Y23614048D01*
X16105166Y23042620D01*
X16724214Y23042620D01*
X9866333Y4373620D02*
X9533000Y4849810D01*
X9294904Y4373620D02*
X9294904Y5373620D01*
X9675857Y5373620D01*
X9771095Y5326000D01*
X9818714Y5278381D01*
X9866333Y5183143D01*
X9866333Y5040286D01*
X9818714Y4945048D01*
X9771095Y4897429D01*
X9675857Y4849810D01*
X9294904Y4849810D01*
X10723476Y5040286D02*
X10723476Y4373620D01*
X10485380Y5421239D02*
X10247285Y4706953D01*
X10866333Y4706953D01*
X9817853Y10152120D02*
X9484520Y10628310D01*
X9246424Y10152120D02*
X9246424Y11152120D01*
X9627377Y11152120D01*
X9722615Y11104500D01*
X9770234Y11056881D01*
X9817853Y10961643D01*
X9817853Y10818786D01*
X9770234Y10723548D01*
X9722615Y10675929D01*
X9627377Y10628310D01*
X9246424Y10628310D01*
X10151186Y11152120D02*
X10770234Y11152120D01*
X10436900Y10771167D01*
X10579758Y10771167D01*
X10674996Y10723548D01*
X10722615Y10675929D01*
X10770234Y10580691D01*
X10770234Y10342596D01*
X10722615Y10247358D01*
X10674996Y10199739D01*
X10579758Y10152120D01*
X10294043Y10152120D01*
X10198805Y10199739D01*
X10151186Y10247358D01*
X9817853Y14792460D02*
X9484520Y15268650D01*
X9246424Y14792460D02*
X9246424Y15792460D01*
X9627377Y15792460D01*
X9722615Y15744840D01*
X9770234Y15697221D01*
X9817853Y15601983D01*
X9817853Y15459126D01*
X9770234Y15363888D01*
X9722615Y15316269D01*
X9627377Y15268650D01*
X9246424Y15268650D01*
X10198805Y15697221D02*
X10246424Y15744840D01*
X10341662Y15792460D01*
X10579758Y15792460D01*
X10674996Y15744840D01*
X10722615Y15697221D01*
X10770234Y15601983D01*
X10770234Y15506745D01*
X10722615Y15363888D01*
X10151186Y14792460D01*
X10770234Y14792460D01*
X9866333Y20502620D02*
X9533000Y20978810D01*
X9294904Y20502620D02*
X9294904Y21502620D01*
X9675857Y21502620D01*
X9771095Y21455000D01*
X9818714Y21407381D01*
X9866333Y21312143D01*
X9866333Y21169286D01*
X9818714Y21074048D01*
X9771095Y21026429D01*
X9675857Y20978810D01*
X9294904Y20978810D01*
X10818714Y20502620D02*
X10247285Y20502620D01*
X10533000Y20502620D02*
X10533000Y21502620D01*
X10437761Y21359762D01*
X10342523Y21264524D01*
X10247285Y21216905D01*
X4721186Y22572460D02*
X4721186Y21858174D01*
X4673567Y21715317D01*
X4578329Y21620079D01*
X4435472Y21572460D01*
X4340234Y21572460D01*
X5721186Y21572460D02*
X5149758Y21572460D01*
X5435472Y21572460D02*
X5435472Y22572460D01*
X5340234Y22429602D01*
X5244996Y22334364D01*
X5149758Y22286745D01*
X12382595Y11342620D02*
X12382595Y10533096D01*
X12430214Y10437858D01*
X12477833Y10390239D01*
X12573071Y10342620D01*
X12763547Y10342620D01*
X12858785Y10390239D01*
X12906404Y10437858D01*
X12954023Y10533096D01*
X12954023Y11342620D01*
X13382595Y11247381D02*
X13430214Y11295000D01*
X13525452Y11342620D01*
X13763547Y11342620D01*
X13858785Y11295000D01*
X13906404Y11247381D01*
X13954023Y11152143D01*
X13954023Y11056905D01*
X13906404Y10914048D01*
X13334976Y10342620D01*
X13954023Y10342620D01*
X12255595Y21756620D02*
X12255595Y20947096D01*
X12303214Y20851858D01*
X12350833Y20804239D01*
X12446071Y20756620D01*
X12636547Y20756620D01*
X12731785Y20804239D01*
X12779404Y20851858D01*
X12827023Y20947096D01*
X12827023Y21756620D01*
X13827023Y20756620D02*
X13255595Y20756620D01*
X13541309Y20756620D02*
X13541309Y21756620D01*
X13446071Y21613762D01*
X13350833Y21518524D01*
X13255595Y21470905D01*
X21978880Y5770643D02*
X21502690Y5437310D01*
X21978880Y5199215D02*
X20978880Y5199215D01*
X20978880Y5580167D01*
X21026500Y5675405D01*
X21074119Y5723024D01*
X21169357Y5770643D01*
X21312214Y5770643D01*
X21407452Y5723024D01*
X21455071Y5675405D01*
X21502690Y5580167D01*
X21502690Y5199215D01*
X21978880Y6723024D02*
X21978880Y6151596D01*
X21978880Y6437310D02*
X20978880Y6437310D01*
X21121738Y6342072D01*
X21216976Y6246834D01*
X21264595Y6151596D01*
X20978880Y7342072D02*
X20978880Y7437310D01*
X21026500Y7532548D01*
X21074119Y7580167D01*
X21169357Y7627786D01*
X21359833Y7675405D01*
X21597928Y7675405D01*
X21788404Y7627786D01*
X21883642Y7580167D01*
X21931261Y7532548D01*
X21978880Y7437310D01*
X21978880Y7342072D01*
X21931261Y7246834D01*
X21883642Y7199215D01*
X21788404Y7151596D01*
X21597928Y7103977D01*
X21359833Y7103977D01*
X21169357Y7151596D01*
X21074119Y7199215D01*
X21026500Y7246834D01*
X20978880Y7342072D01*
X22042380Y16978334D02*
X21566190Y16645000D01*
X22042380Y16406905D02*
X21042380Y16406905D01*
X21042380Y16787858D01*
X21090000Y16883096D01*
X21137619Y16930715D01*
X21232857Y16978334D01*
X21375714Y16978334D01*
X21470952Y16930715D01*
X21518571Y16883096D01*
X21566190Y16787858D01*
X21566190Y16406905D01*
X22042380Y17454524D02*
X22042380Y17645000D01*
X21994761Y17740239D01*
X21947142Y17787858D01*
X21804285Y17883096D01*
X21613809Y17930715D01*
X21232857Y17930715D01*
X21137619Y17883096D01*
X21090000Y17835477D01*
X21042380Y17740239D01*
X21042380Y17549762D01*
X21090000Y17454524D01*
X21137619Y17406905D01*
X21232857Y17359286D01*
X21470952Y17359286D01*
X21566190Y17406905D01*
X21613809Y17454524D01*
X21661428Y17549762D01*
X21661428Y17740239D01*
X21613809Y17835477D01*
X21566190Y17883096D01*
X21470952Y17930715D01*
X24141662Y6328174D02*
X24189281Y6280555D01*
X24236900Y6137698D01*
X24236900Y6042460D01*
X24189281Y5899602D01*
X24094043Y5804364D01*
X23998805Y5756745D01*
X23808329Y5709126D01*
X23665472Y5709126D01*
X23474996Y5756745D01*
X23379758Y5804364D01*
X23284520Y5899602D01*
X23236900Y6042460D01*
X23236900Y6137698D01*
X23284520Y6280555D01*
X23332139Y6328174D01*
X23570234Y7185317D02*
X24236900Y7185317D01*
X23189281Y6947221D02*
X23903567Y6709126D01*
X23903567Y7328174D01*
X24141662Y16828174D02*
X24189281Y16780555D01*
X24236900Y16637698D01*
X24236900Y16542460D01*
X24189281Y16399602D01*
X24094043Y16304364D01*
X23998805Y16256745D01*
X23808329Y16209126D01*
X23665472Y16209126D01*
X23474996Y16256745D01*
X23379758Y16304364D01*
X23284520Y16399602D01*
X23236900Y16542460D01*
X23236900Y16637698D01*
X23284520Y16780555D01*
X23332139Y16828174D01*
X23236900Y17161507D02*
X23236900Y17780555D01*
X23617853Y17447221D01*
X23617853Y17590079D01*
X23665472Y17685317D01*
X23713091Y17732936D01*
X23808329Y17780555D01*
X24046424Y17780555D01*
X24141662Y17732936D01*
X24189281Y17685317D01*
X24236900Y17590079D01*
X24236900Y17304364D01*
X24189281Y17209126D01*
X24141662Y17161507D01*
X15817853Y12387698D02*
X15770234Y12340079D01*
X15627377Y12292460D01*
X15532139Y12292460D01*
X15389281Y12340079D01*
X15294043Y12435317D01*
X15246424Y12530555D01*
X15198805Y12721031D01*
X15198805Y12863888D01*
X15246424Y13054364D01*
X15294043Y13149602D01*
X15389281Y13244840D01*
X15532139Y13292460D01*
X15627377Y13292460D01*
X15770234Y13244840D01*
X15817853Y13197221D01*
X16770234Y12292460D02*
X16198805Y12292460D01*
X16484520Y12292460D02*
X16484520Y13292460D01*
X16389281Y13149602D01*
X16294043Y13054364D01*
X16198805Y13006745D01*
M02*
